<svg width="600" height="583" viewBox="0 0 600 583" fill="none" xmlns="http://www.w3.org/2000/svg">
<g clip-path="url(#clip0_1414_1376)">
<rect width="600" height="583" fill="white"/>
<path fill-rule="evenodd" clip-rule="evenodd" d="M280.588 338.175H234.395V335.048H277.48V98.2381H48.991V335.048H214.903V338.175H45.8824V95.1113H280.588V338.175" fill="#1B1A19"/>
<path fill-rule="evenodd" clip-rule="evenodd" d="M49.606 122.644H278.088V98.7276H49.606V122.644ZM46.4993 125.747H281.198V95.625H46.4993V125.747Z" fill="#1B1A19"/>
<path fill-rule="evenodd" clip-rule="evenodd" d="M102.564 300.4H175.358V216.112H102.564V300.4ZM99.4577 303.503H178.469V213.01H99.4577V303.503Z" fill="#1B1A19"/>
<path fill-rule="evenodd" clip-rule="evenodd" d="M101.31 216.643L45.8824 124.884L48.6901 123.293L104.118 215.052L101.31 216.643" fill="#1B1A19"/>
<path fill-rule="evenodd" clip-rule="evenodd" d="M178.478 216.643L176.471 214.255L276.816 121.531L278.824 123.919L178.478 216.643" fill="#1B1A19"/>
<path fill-rule="evenodd" clip-rule="evenodd" d="M277.877 338.176L176.471 305.817L177.419 302.949L278.824 335.309L277.877 338.176" fill="#1B1A19"/>
<path fill-rule="evenodd" clip-rule="evenodd" d="M600 125.325H596.91V64.7056H400.149V177.894H397.059V61.6465H600V125.325Z" fill="#1B1A19"/>
<path fill-rule="evenodd" clip-rule="evenodd" d="M350.641 36.4852C350.641 40.0069 352.769 41.5178 357.26 41.5178H364.35L364.822 45.0395C362.222 45.5426 358.204 45.7949 356.549 45.7949C349.931 45.7949 346.387 42.7763 346.387 37.2391V14.0916H338.824V10.8191L346.387 10.5684H365.294V14.0916H350.641V36.4852" fill="#0A0B09"/>
<path fill-rule="evenodd" clip-rule="evenodd" d="M345.882 8.80665V0H349.412V3.62561L345.882 8.80665" fill="#0A0B09"/>
<path fill-rule="evenodd" clip-rule="evenodd" d="M323.678 365.814H509.417V180.431H323.678V365.814ZM320.572 368.917H512.527V177.328H320.572V368.917Z" fill="#1B1A19"/>
<path fill-rule="evenodd" clip-rule="evenodd" d="M67.0588 110.082C67.0588 112.514 64.6878 114.486 61.7638 114.486C58.8397 114.486 56.4706 112.514 56.4706 110.082C56.4706 107.652 58.8397 105.68 61.7638 105.68C64.6878 105.68 67.0588 107.652 67.0588 110.082" fill="#0A0B09"/>
<path fill-rule="evenodd" clip-rule="evenodd" d="M82.9412 110.082C82.9412 112.514 80.9653 114.486 78.5286 114.486C76.0919 114.486 74.1176 112.514 74.1176 110.082C74.1176 107.652 76.0919 105.68 78.5286 105.68C80.9653 105.68 82.9412 107.652 82.9412 110.082" fill="#0A0B09"/>
<path fill-rule="evenodd" clip-rule="evenodd" d="M100.588 110.082C100.588 112.514 98.2172 114.486 95.2932 114.486C92.3691 114.486 90 112.514 90 110.082C90 107.652 92.3691 105.68 95.2932 105.68C98.2172 105.68 100.588 107.652 100.588 110.082" fill="#0A0B09"/>
<path fill-rule="evenodd" clip-rule="evenodd" d="M138.959 162.56C119.41 162.56 105.787 168.095 105.787 173.064C105.787 178.033 119.41 183.568 138.959 183.568C158.507 183.568 172.131 178.033 172.131 173.064C172.131 168.095 158.507 162.56 138.959 162.56ZM138.961 186.67C121.374 186.67 102.68 181.902 102.68 173.064C102.68 164.226 121.374 159.457 138.961 159.457C156.548 159.457 175.241 164.226 175.241 173.064C175.241 181.902 156.548 186.67 138.961 186.67V186.67Z" fill="#1B1A19"/>
<path fill-rule="evenodd" clip-rule="evenodd" d="M490.588 125.054H600V121.531L490.588 121.531V125.054Z" fill="#1B1A19"/>
<path fill-rule="evenodd" clip-rule="evenodd" d="M490.588 149.712H566.471V146.189H490.588V149.712Z" fill="#1B1A19"/>
<path fill-rule="evenodd" clip-rule="evenodd" d="M203.337 567.149H180.865L180.798 565.659C180.754 564.7 176.548 469.467 176.471 448.075C176.4 428.118 191.23 395.097 191.862 393.701L192.279 392.777H220.588V395.893H194.343C191.92 401.44 179.572 430.58 179.635 448.064C179.707 467.921 183.357 551.777 183.895 564.033H200.33L205.61 462.974L208.772 463.135L203.337 567.149" fill="#1B1A19"/>
<path fill-rule="evenodd" clip-rule="evenodd" d="M255.882 567.149H231.702L219.202 495.107C217.104 491.207 194.379 448.513 195.961 433.028L199.135 433.343C197.607 448.288 221.894 493.406 222.14 493.859L222.261 494.083L222.304 494.333L234.395 564.012H252.323L244.08 490.531L217.329 393.598L220.407 392.777L247.236 490.067L255.882 567.149" fill="#1B1A19"/>
<path fill-rule="evenodd" clip-rule="evenodd" d="M193.107 392.637H217.587L225.485 367.196C227.521 362.248 228.242 356.968 227.617 351.796L226.046 333.733C225.76 330.438 223.046 327.955 219.732 327.955C219.731 327.955 219.731 327.955 219.729 327.955L185.971 327.977C183.213 327.779 180.724 328.851 179.045 330.91C177.367 332.969 176.823 335.614 177.552 338.166L193.107 392.637ZM219.882 395.74H190.762L174.563 339.016C173.553 335.476 174.308 331.808 176.635 328.952C178.962 326.096 182.409 324.616 186.084 324.877L219.728 324.852C219.731 324.852 219.733 324.852 219.734 324.852C224.674 324.852 228.718 328.554 229.146 333.465L230.711 351.476C231.395 357.123 230.599 362.94 228.409 368.246L219.882 395.74V395.74Z" fill="#1B1A19"/>
<path fill-rule="evenodd" clip-rule="evenodd" d="M174.76 339.706L159.68 369.786C157.707 373.721 158.098 378.371 160.699 381.926L183.061 412.456L187.527 400.872L175.649 379.63C174.02 377.225 173.715 374.059 174.907 371.269L180.22 358.823L174.76 339.706ZM183.917 418.879L158.192 383.756C154.9 379.26 154.407 373.376 156.902 368.396L175.561 331.182L183.513 359.029L177.77 372.484C176.994 374.304 177.19 376.367 178.296 378.007L190.953 400.63L183.917 418.879V418.879Z" fill="#1B1A19"/>
<path fill-rule="evenodd" clip-rule="evenodd" d="M444.63 137.383L428.823 124.173L444.63 110.963L446.471 113.402L433.583 124.173L446.471 134.943L444.63 137.383" fill="#1B1A19"/>
<path fill-rule="evenodd" clip-rule="evenodd" d="M463.066 133.86L460.588 132.514L470.463 110.963L472.941 112.309L463.066 133.86" fill="#1B1A19"/>
<path fill-rule="evenodd" clip-rule="evenodd" d="M103.572 392.776C93.1626 392.776 87.8931 389.881 82.8014 387.081C77.8316 384.349 73.1369 381.769 63.5218 381.769C56.2364 381.769 51.8954 383.317 48.9262 384.666L47.6471 381.859C50.8989 380.382 55.6431 378.686 63.5218 378.686C73.9309 378.686 79.1988 381.58 84.2906 384.379C89.2603 387.112 93.9551 389.693 103.572 389.693C112.414 389.693 117.169 387.486 122.045 384.822L123.529 387.526C118.274 390.399 113.143 392.776 103.572 392.776" fill="#1B1A19"/>
<path fill-rule="evenodd" clip-rule="evenodd" d="M103.572 412.151C93.1626 412.151 87.8931 408.893 82.8014 405.743C77.8316 402.67 73.1369 399.768 63.5218 399.768C56.2364 399.768 51.8954 401.509 48.9262 403.027L47.6471 399.869C50.8989 398.207 55.6431 396.299 63.5218 396.299C73.9309 396.299 79.1988 399.555 84.2906 402.704C89.2603 405.778 93.9551 408.682 103.572 408.682C112.414 408.682 117.169 406.2 122.045 403.202L123.529 406.245C118.274 409.476 113.143 412.151 103.572 412.151" fill="#1B1A19"/>
<path fill-rule="evenodd" clip-rule="evenodd" d="M139.412 179.023C123.543 179.023 110.257 174.782 106.78 169.088C106.199 170.039 105.882 171.027 105.882 172.046C105.882 179.168 120.894 184.94 139.412 184.94C157.929 184.94 172.941 179.168 172.941 172.046C172.941 171.027 172.625 170.039 172.044 169.088C168.567 174.782 155.281 179.023 139.412 179.023" fill="#1B1A19"/>
<path fill-rule="evenodd" clip-rule="evenodd" d="M375.882 54.6016H324.706V10.5684H331.363V13.6212H328.034V51.5487H372.554V13.6212H368.809V10.5684H375.882V54.6016" fill="#1B1A19"/>
<path fill-rule="evenodd" clip-rule="evenodd" d="M185.294 123.293H188.824V98.6348H185.294V123.293Z" fill="#0A0B09"/>
<path fill-rule="evenodd" clip-rule="evenodd" d="M231.176 123.293H234.706V98.6348H231.176V123.293Z" fill="#0A0B09"/>
<path fill-rule="evenodd" clip-rule="evenodd" d="M176.494 371.64L162.353 362.017L164.094 359.311L178.235 368.933L176.494 371.64" fill="#1B1A19"/>
<path fill-rule="evenodd" clip-rule="evenodd" d="M222.459 307.619C221.771 308.39 219.809 309.237 217.569 309.978C213.14 304.417 208 300.278 212.732 295.553C216.104 292.189 219.379 289.208 221.768 286.446C221.939 286.819 222.044 287.219 222.069 287.65C222.218 290.353 222.456 293.013 222.666 295.359C223.146 300.733 223.642 306.288 222.459 307.619ZM225.762 295.084C225.545 292.647 225.321 290.129 225.172 287.476C225.091 286.034 224.553 284.838 223.773 283.828C224.922 282.078 225.574 280.402 225.478 278.755C225.189 273.82 215.524 263.512 205.474 269.363C195.424 275.215 189.841 292.628 183.142 295.553C176.441 298.48 167.762 294.459 159.478 304.218C153.272 311.531 158.454 319.282 153.396 321.584C136.243 329.39 136.763 342.646 141.826 348.493C156.063 364.933 169.135 340.754 180.351 342.232C191.566 343.712 203.424 346.633 209.103 344.25C216.92 340.969 226.97 335.445 221.964 317.792C221.434 315.92 220.545 314.204 219.497 312.611C221.684 311.82 223.757 310.83 224.782 309.679C226.86 307.347 226.4 302.203 225.762 295.084V295.084Z" fill="#1B1A19"/>
<path fill-rule="evenodd" clip-rule="evenodd" d="M231.802 357.734C240.13 361.387 254.943 369.529 260.636 372.658C261.527 373.146 262.166 373.497 262.484 373.669C265.531 375.306 267.511 374.972 270.798 373.604C274.039 372.254 316.268 351.626 318.758 350.409C319.961 349.54 320.676 348.145 320.676 346.657V332.37C319.877 333.285 319.263 334.368 318.885 335.035L318.765 335.244C318.14 336.338 317.356 338.856 317.171 344.639L317.14 345.68L316.159 346.043C309.57 348.483 276.432 360.649 271.131 360.649C266.095 360.649 239.249 340.66 228.935 332.838L231.802 357.734ZM266.331 377.864C264.727 377.864 262.988 377.463 261.011 376.401C260.688 376.227 260.04 375.87 259.136 375.375C253.286 372.16 237.743 363.616 229.754 360.23L228.921 359.876L225.01 325.932L227.92 328.161C246.718 342.565 268.021 357.495 271.131 357.546C274.516 357.546 295.582 350.331 314.107 343.494C314.323 338.837 314.967 335.629 316.064 333.708L316.179 333.508C317.026 332.013 318.787 328.902 321.739 327.919L323.784 327.238V346.657C323.784 349.201 322.533 351.581 320.435 353.026L320.236 353.142C318.407 354.035 275.404 375.05 271.995 376.466C270.189 377.218 268.371 377.864 266.331 377.864V377.864Z" fill="#1B1A19"/>
<path fill-rule="evenodd" clip-rule="evenodd" d="M242.458 364.596L240 363.246L248.131 346.982L250.588 348.333L242.458 364.596" fill="#1B1A19"/>
<path fill-rule="evenodd" clip-rule="evenodd" d="M239.46 566.267L240.96 577.03C241.189 578.665 242.608 579.897 244.26 579.897H268.619C269.18 579.897 269.486 579.537 269.59 579.382C269.694 579.228 269.917 578.812 269.707 578.293C269.556 577.911 269.21 577.635 268.804 577.571C253.558 575.178 252.659 574.644 252.277 574.416C251.893 574.186 250.758 573.511 247.995 566.261L239.46 566.267ZM268.62 582.999H244.261C241.064 582.999 238.322 580.616 237.884 577.456L235.892 563.167L250.157 563.156L250.531 564.171C251.683 567.272 253.287 570.97 253.94 571.775C254.742 572.036 259.246 572.93 269.289 574.506C270.772 574.74 272.038 575.748 272.596 577.14C273.123 578.457 272.963 579.946 272.166 581.122C271.368 582.296 270.043 582.999 268.62 582.999V582.999Z" fill="#1B1A19"/>
<path fill-rule="evenodd" clip-rule="evenodd" d="M185.021 577.132C185.292 578.716 186.686 579.898 188.306 579.898H212.664C213.226 579.898 213.532 579.54 213.636 579.384C213.74 579.229 213.962 578.815 213.752 578.295C213.602 577.914 213.254 577.636 212.849 577.573C197.603 575.179 196.705 574.645 196.323 574.417C195.8 574.108 194.621 573.404 194.061 566.262L185.08 566.268L185.021 577.132ZM212.666 583.001H188.307C185.11 583.001 182.368 580.619 181.93 577.459L181.915 577.238L181.989 563.169L196.979 563.156L197.066 564.618C197.231 567.404 197.672 570.793 198.096 571.811C199.15 572.109 203.686 572.993 213.335 574.509C214.818 574.742 216.084 575.751 216.642 577.143C217.169 578.46 217.009 579.948 216.212 581.124C215.414 582.3 214.089 583.001 212.666 583.001V583.001Z" fill="#1B1A19"/>
<path fill-rule="evenodd" clip-rule="evenodd" d="M321.176 214.883H511.765V179.656H321.176V214.883Z" fill="#1B1A19"/>
<path fill-rule="evenodd" clip-rule="evenodd" d="M398.823 72.2148H598.235V63.4082H398.823V72.2148Z" fill="#1B1A19"/>
<path fill-rule="evenodd" clip-rule="evenodd" d="M329.414 527.931C318.631 522.829 303.628 531.859 295.432 527.931C287.225 523.996 291.237 500.217 264.334 500.217C259.712 500.217 253.153 501.011 245.294 502.355L250.203 547.773H329.414C329.414 547.773 338.673 532.309 329.414 527.931" fill="#1B1A19"/>
<path fill-rule="evenodd" clip-rule="evenodd" d="M178.781 516.07C142.305 525.512 106.81 535.189 97.124 535.189C84.0199 535.189 84.0215 523.505 71.6867 523.505C49.3729 523.505 0 547.774 0 547.774H180C179.652 538.964 179.22 527.84 178.781 516.07" fill="#1B1A19"/>
<ellipse cx="416.233" cy="290.124" rx="41.3476" ry="41.315" fill="#E01F26"/>
<rect x="396.937" y="284.613" width="38.5911" height="11.0173" rx="2" fill="white"/>
</g>
<defs>
<clipPath id="clip0_1414_1376">
<rect width="600" height="583" fill="white"/>
</clipPath>
</defs>
</svg>
