<?xml version="1.0" encoding="utf-8"?>
<!-- Generator: Adobe Illustrator 18.1.1, SVG Export Plug-In . SVG Version: 6.00 Build 0)  -->
<svg version="1.1" id="Layer_1" xmlns="http://www.w3.org/2000/svg" xmlns:xlink="http://www.w3.org/1999/xlink" x="0px" y="0px"
	 viewBox="0 0 841.9 595.3" enable-background="new 0 0 841.9 595.3" xml:space="preserve">
<g>
	<path fill="#BFBFBF" stroke="#010101" stroke-width="5" stroke-miterlimit="10" d="M437.1,374.3L406,349.9
		c-2.3-1.8-5.7-1.4-7.5,0.9c-0.8,1.1-1.2,2.4-1.1,3.7c-1.3,0.2-2.5,0.9-3.3,1.9c-0.6,0.8-1,1.8-1.1,2.8c-0.9,0.3-1.8,0.9-2.4,1.7
		c-1.8,2.3-1.4,5.7,0.9,7.5l31.1,24.4c2.3,1.8,5.7,1.4,7.5-0.9v0c0.6-0.8,1-1.8,1.1-2.8c0.9-0.3,1.8-0.9,2.4-1.7
		c0.8-1.1,1.2-2.4,1.1-3.7c1.3-0.2,2.5-0.9,3.3-1.9C439.8,379.5,439.4,376.2,437.1,374.3z"/>
	
		<path fill="#F22613" stroke="#010101" stroke-width="5" stroke-linecap="round" stroke-linejoin="round" stroke-miterlimit="10" d="
		M390.7,192.7c-6.1,0-12,1.2-17.3,3.4l-10.1-15.3c-5.2,3.4-6.8,10.6-4.8,18l-9.8-9.8c-5.7,5.7-4.3,16.6,3.2,24.7
		c-4.8,7.3-7.7,16.1-7.7,25.5v100c0,7.6,1.8,14.7,5.1,21l-27.4,27.4c11.8,11.8,33.8,9.1,50.7-5.7c5.6,2.4,11.7,3.7,18.1,3.7
		c25.6,0,46.5-20.9,46.5-46.5v-100C437.2,213.6,416.2,192.7,390.7,192.7z"/>
	
		<path fill="#BFBFBF" stroke="#010101" stroke-width="5" stroke-linecap="round" stroke-linejoin="round" stroke-miterlimit="10" d="
		M412.2,289.4v4.4c0,8.6,8.4,15.6,18.8,15.6h4.5c10.3,0,18.8-7,18.8-15.6v-4.4"/>
	
		<circle fill="#FFFFFF" stroke="#010101" stroke-width="5" stroke-linecap="round" stroke-linejoin="round" stroke-miterlimit="10" cx="386.3" cy="234.4" r="32.5"/>
	
		<circle fill="#010101" stroke="#010101" stroke-width="5" stroke-linecap="round" stroke-linejoin="round" stroke-miterlimit="10" cx="386.3" cy="234.4" r="11.2"/>
	
		<path fill="#BFBFBF" stroke="#010101" stroke-width="5" stroke-linecap="round" stroke-linejoin="round" stroke-miterlimit="10" d="
		M412.2,290.4v-10.9c0-21.5,11.3-39.1,25-39.1h6c13.8,0,25,17.6,25,39.1v10.9h-35"/>
	
		<path fill="#26A65B" stroke="#010101" stroke-width="5" stroke-linecap="round" stroke-linejoin="round" stroke-miterlimit="10" d="
		M308.2,276.4c0,30.9,34.5,56,77,56v-56H308.2z"/>
	
		<path fill="#3498DB" stroke="#010101" stroke-width="5" stroke-linecap="round" stroke-linejoin="round" stroke-miterlimit="10" d="
		M308.2,295.4c0,19.9,34.5,36,77,36v-36H308.2z"/>
	<g>
		<path fill="#010101" d="M454.2,292.4l-18-1l18-1c0.6,0,1,0.4,1.1,0.9s-0.4,1-0.9,1.1C454.2,292.4,454.2,292.4,454.2,292.4z"/>
	</g>
</g>
<g>
	<g>
		<path fill="#010101" d="M246,463.3c-0.6,0-1.2-0.1-1.7-0.3c0,0,0,0,0,0l-0.4,0c-0.7,0-1.4-0.1-2-0.4c-0.3-0.1-0.7-0.2-1.1-0.4
			c-0.3-0.1-0.7-0.2-1-0.4c-0.7-0.2-1.4-0.5-2-0.9c-0.3-0.1-0.6-0.3-0.9-0.5c-0.3-0.2-0.6-0.4-0.9-0.6c-0.3-0.2-0.5-0.4-0.8-0.6
			c-0.2-0.1-0.3-0.3-0.6-0.5c-0.3-0.2-0.5-0.4-0.7-0.7c-0.8-0.7-1.3-1.4-1.6-2.1c-0.1-0.1-0.2-0.3-0.2-0.4l-0.5-0.9
			c-0.4-0.8-0.7-1.6-0.8-2.1l-0.1-0.2c-0.3-0.8-0.4-1.5-0.4-2.1c-0.1-0.4-0.2-0.9-0.2-1.5c0,0,0-0.1,0-0.1c-0.1-0.4-0.2-0.8-0.2-1.2
			v-0.3c0-0.1,0-0.2,0-0.3c0-0.1,0-0.2,0-0.3v-0.8c0-0.5,0.1-0.9,0.2-1.4c0-0.1,0-0.3,0.1-0.4c0-0.4,0-0.7,0.1-1
			c0-0.5,0.1-1.2,0.3-1.8c0-0.5,0.1-0.9,0.2-1.3c0-0.3,0.1-0.5,0.2-0.8c0.1-0.2,0.1-0.4,0.2-0.6c0.1-0.3,0.2-0.5,0.2-0.8
			c0.1-0.2,0.1-0.5,0.2-0.7c0-0.8,0.1-1.8,0.7-2.7c0.1-0.2,0.2-0.3,0.2-0.5c0.1-0.2,0.1-0.4,0.2-0.6c0.2-0.6,0.4-1.2,0.6-1.6
			c0.2-0.4,0.3-0.6,0.3-0.9c0.1-0.2,0.2-0.5,0.3-0.7c0.4-0.9,0.8-1.9,1.2-2.8c0.4-1,0.9-2.1,1.4-3.1c0.6-1.4,1.3-2.7,1.9-3.9
			c0,0,0,0,0,0c0.1-0.3,0.2-0.6,0.3-0.9c0-0.1,0.1-0.2,0.1-0.3c0.4-0.8,0.9-1.4,1.2-1.9l0,0l1.2-2.4c0.6-1.3,1.3-2.4,2.1-3.8
			c1.1-2,2.3-4.1,3.5-6.2c0.1-0.1,0.1-0.2,0.2-0.3c0.4-0.6,0.8-1.3,1.2-1.9c0.5-0.7,0.9-1.5,1.4-2.2c0.5-0.8,1.1-1.7,1.6-2.8
			c0.1-0.1,0.1-0.2,0.2-0.3l2.7-4.1c0.2-0.4,0.5-0.7,0.7-1c0,0,0-0.1,0.1-0.1c0.4-0.9,1-1.6,1.7-2.2c1.2-1.1,2.6-1.9,4.3-2.3
			c0.4-0.1,0.9-0.2,1.4-0.2h3.5c0.4,0,1.2,0,2.1,0.2c1.9,0.2,3.8,0.7,5.7,1.4c1.1,0.4,2,0.7,2.9,1.2c1.8,0.8,3.6,1.7,5.1,2.8
			c0,0,2.4,1.9,2.4,1.9c1.3,1,2.2,2.5,2.6,4.1c0,0,0.1-0.1,0.1-0.1c0.1-0.1,0.2-0.2,0.3-0.3c0.2-0.2,0.3-0.5,0.6-0.7
			c0.1-0.1,0.1-0.1,0.2-0.1c0-0.1,0.1-0.1,0.1-0.2c0.1-0.1,0.3-0.3,0.4-0.4c0.1-0.1,0.2-0.2,0.3-0.4c0.2-0.2,0.5-0.5,0.6-0.7
			c0.2-0.3,0.4-0.5,0.6-0.7l0.2-0.2c0.3-0.5,0.6-0.9,0.9-1.2c0.1-0.1,0.2-0.2,0.3-0.4c0.1-0.2,0.3-0.4,0.5-0.5
			c0.1-0.1,0.1-0.1,0.2-0.2c0-0.1,0.1-0.1,0.1-0.2c0.3-0.3,1.1-1.1,2.3-1.5c0.9-0.6,1.7-1,2.4-1.3c0.2-0.1,0.4-0.2,0.6-0.3
			c0.4-0.2,0.9-0.4,1.4-0.5c0.2-0.1,0.5-0.1,0.9-0.2c1.3-0.3,2.6-0.4,3.8-0.4c0.5,0,1,0,1.4,0.1c1.3,0,2.6,0.2,3.6,0.4
			c0.1,0,0.2,0,0.3,0.1c0.6,0.1,1.2,0.2,1.8,0.3c0.8,0.1,1.5,0.3,2.3,0.4c0,0,0.1,0,0.1,0c0.8,0.2,2.2,0.6,3.6,1.6
			c1.6,1,2.5,2.4,3.2,3.4c0.2,0.3,0.3,0.6,0.5,1c0.3,0.9,0.4,1.8,0.5,2.6c0.8-0.6,1.5-1.1,2.2-1.7c0,0,0.1-0.1,0.1-0.1
			c0.2-0.2,0.4-0.5,0.6-0.7c0.3-0.3,0.6-0.5,0.9-0.7c1-0.9,2.2-1.5,3.4-1.8c0.2,0,0.3-0.1,0.5-0.1c0,0,0,0,0.1,0
			c0.2-0.1,0.4-0.2,0.6-0.2c0.1,0,0.2-0.1,0.4-0.1c1.7-0.4,3.1-0.6,4.7-0.6c2,0,3.9,0.4,5.6,0.7c0.1,0,0.2,0,0.2,0.1
			c1.3,0.3,2.7,0.7,4.2,1.2c0.1,0,0.1,0.1,0.2,0.1c1.2,0.5,2.2,1,3.2,1.5c0.1,0.1,0.2,0.1,0.3,0.2c1.8,1.1,3.1,2.4,3.9,4
			c0.3,0.7,0.5,1.5,0.5,2.2v0.1c0.1,0.4,0.2,0.9,0.2,1.4c0,1.6-0.5,3.2-1.4,4.6c-0.2,0.3-0.9,1.4-1.7,2.1c-0.1,0.1-0.2,0.2-0.3,0.3
			c0,0.1-0.3,0.4-0.3,0.5c-0.2,0.4-0.5,0.8-0.8,1.3c-0.2,0.4-0.5,0.8-0.7,1.2c-0.8,1.4-1.7,2.9-2.8,4.4c-0.7,1.1-1.4,2.2-2.1,3.3
			c0.1-0.1,0.1-0.1,0.2-0.2c0.1-0.1,0.1-0.1,0.2-0.2c0.8-0.6,1.5-0.9,2.4-1.2c0.1,0,0.2-0.1,0.4-0.1c1.2-0.3,2.1-0.3,2.9-0.3
			c1.9,0,3.6,1.1,4.5,2.8l0.5,0.9c0.3,0.7,0.5,1.5,0.5,2.2v1.8c0,0.4,0,0.8-0.1,1.2c-0.3,1.3-0.9,2.4-1.4,3.1
			c-0.2,0.3-0.3,0.6-0.5,0.8c-0.2,0.4-0.4,0.8-0.7,1.2c0,0.1-0.1,0.1-0.1,0.2c-0.5,0.7-1,1.6-1.4,2.4c0,0.1-0.1,0.1-0.1,0.2
			c-1,1.7-1.9,3.3-2.8,4.9l-1.8,3.2c-0.1,0.1-0.1,0.2-0.2,0.3c-0.2,0.3-0.4,0.6-0.5,0.9c-0.4,0.6-0.7,1.2-1.3,1.9
			c-0.6,0.9-1.2,1.7-1.8,2.4c-0.4,0.7-0.8,1.4-1.4,2.1c-0.2,0.3-0.4,0.8-0.8,1.2c-0.1,0.2-0.2,0.3-0.3,0.4c-0.4,0.7-0.9,1.3-1.5,1.8
			c-0.2,0.2-0.4,0.4-0.6,0.6c-0.8,0.9-1.6,1.4-2.1,1.7c0,0,0,0-0.1,0c-0.2,0.2-0.5,0.4-0.7,0.6c-0.5,0.3-1.2,0.8-2,1.1
			c-1.1,0.6-2.3,1.1-3.3,1.5c-1.1,0.5-2.1,0.8-3,1c-0.3,0.1-0.5,0.1-0.8,0.2c-0.1,0-0.3,0.1-0.4,0.1c-0.9,0.2-2,0.4-3.3,0.4
			c-0.7,0-1.8,0-2.9-0.2c-1.8-0.3-3.3-0.9-4.4-1.4c-0.2-0.1-0.3-0.2-0.5-0.3c-1.4-0.8-2.5-1.6-3.5-2.5c-0.1-0.1-0.2-0.2-0.3-0.3
			c-0.3-0.3-0.6-0.6-0.7-0.9c0,0-0.1-0.2-0.2-0.2c-1.9-2.1-3.3-4.4-4.3-7.1c0-0.1-0.1-0.2-0.1-0.4c-0.4-1.5-0.8-3.1-1-4.8
			c-1.3,1.9-2.7,3.9-4.1,6.1c-0.1,0.1-0.2,0.3-0.3,0.4c-0.1,0.2-0.3,0.5-0.5,0.8c-0.3,0.5-0.7,1.1-1.2,1.7c-0.3,0.3-0.5,0.6-0.7,0.9
			c-0.6,0.8-1.3,1.6-2.1,2.4c-0.1,0.1-0.3,0.3-0.4,0.5c-0.3,0.4-0.6,0.7-0.9,1c-0.2,0.2-0.3,0.3-0.5,0.5c-0.2,0.2-0.4,0.3-0.6,0.5
			c-0.4,0.4-0.8,0.7-1.2,1c-0.1,0.1-0.1,0.1-0.2,0.2c0,0-0.1,0.1-0.2,0.1c-0.4,0.3-1,0.8-1.9,1.2c-0.1,0.1-0.2,0.1-0.3,0.1
			c-0.2,0.1-0.5,0.3-0.8,0.4c-1.2,0.5-2.5,0.7-3.9,0.7c-0.9,0-1.8-0.1-2.7-0.3c-2.2-0.4-4.3-1.3-6.5-2.7c0,0-0.1-0.1-0.1-0.1
			c-1.5-1.1-2.8-2.4-3.9-3.9c-1-1.4-1.6-2.9-1.7-4.4c-0.2-1.3,0-2.3,0.1-3.1c-0.8,0.9-1.5,1.8-2.3,2.6c-1.3,1.6-2.5,2.9-3.8,4.3
			c-0.5,0.6-0.9,1-1.3,1.4c-0.5,0.6-0.9,1-1.2,1.2c-0.2,0.2-0.5,0.4-0.7,0.5c0,0-0.1,0-0.1,0.1c-0.3,0.3-0.7,0.6-1.1,0.9
			c-0.2,0.1-0.3,0.2-0.5,0.3c-0.4,0.3-0.9,0.6-1.5,0.8c-0.3,0.2-0.8,0.4-1.2,0.6c-0.3,0.2-0.7,0.3-1,0.4c-0.2,0.1-0.3,0.1-0.5,0.2
			c-0.3,0.1-0.7,0.2-1.1,0.3c-0.2,0.1-0.4,0.1-0.7,0.2c-0.2,0.1-0.3,0.1-0.5,0.1c-0.6,0.2-1.2,0.2-1.7,0.3c-0.6,0.2-1.2,0.3-1.8,0.3
			H246z"/>
		<path fill="#010101" d="M354.5,462.3c-0.3,0-0.6,0-1-0.1c-0.1,0-0.1,0-0.2,0H351c-0.7,0-1.2-0.1-1.5-0.2c-0.2,0-0.4-0.1-0.7-0.1
			c-0.5,0-1-0.2-1.5-0.3c-0.1-0.1-0.3-0.1-0.4-0.2c-0.6-0.2-1.4-0.5-2.3-1.1c-2.2-1.2-3.8-2.8-5-4.2c-0.1-0.2-0.3-0.3-0.4-0.5
			c-0.9-1.4-1.8-2.9-2.7-4.7c-0.9-1.6-1.5-3.3-1.7-4.9c-0.1-0.3-0.1-0.6-0.2-0.9l0-0.1c-0.1-0.5-0.2-0.9-0.2-1.4v-2
			c0-0.2,0-0.4,0-0.6c0.1-0.6,0.2-1.2,0.2-1.8c0.1-0.6,0.1-1.1,0.2-1.7c0-0.2,0.1-0.4,0.1-0.7c0.7-2.7,1.6-5.2,2.8-7.5
			c0.4-0.8,0.8-1.5,1.2-2.3c0.4-0.7,0.7-1.4,1.1-2.1c0-0.1,0.1-0.1,0.1-0.2c2-3.7,4.1-7.2,6.2-10.3c0-0.1,0.1-0.1,0.1-0.2
			c2-2.7,4-5.6,6.4-8.3c0.2-0.3,0.5-0.6,0.7-0.9c0.2-0.2,0.4-0.5,0.5-0.7c0.2-0.3,0.4-0.6,0.6-0.9c0.1-0.2,0.2-0.3,0.4-0.5
			c0.1-0.2,0.2-0.4,0.4-0.5c0.2-0.2,0.3-0.4,0.5-0.6c0.3-0.4,0.6-0.8,0.9-1.1c0,0,0,0,0,0c0.2-0.2,0.3-0.5,0.5-0.7
			c0.2-0.2,0.3-0.4,0.5-0.5c0,0,0.1-0.1,0.1-0.1c0.1-0.2,0.2-0.3,0.4-0.5c0.3-0.5,0.8-1,1.3-1.4c0.2-0.2,0.4-0.5,0.6-0.7
			c0.2-0.2,0.4-0.4,0.6-0.5c0.2-0.2,0.3-0.3,0.5-0.5c0.2-0.2,0.5-0.4,0.7-0.6c0,0,0.5-0.5,0.6-0.6c0.3-0.3,0.6-0.6,1-0.8
			c0.6-0.6,1.2-1,1.7-1.4c0.5-0.5,1.1-0.9,1.7-1.2c0.1-0.1,0.2-0.1,0.3-0.2c0.1-0.1,0.4-0.3,0.7-0.4c0.4-0.2,0.8-0.4,1.2-0.6
			c0.1,0,0.2-0.1,0.3-0.1c0.3-0.1,0.6-0.2,0.9-0.3c0.4-0.1,0.6-0.2,0.9-0.3c0.2-0.1,0.3-0.2,0.5-0.2c1.9-0.7,3.7-1.2,5.4-1.6
			c0,0,0.4-0.1,0.4-0.1c0.5-0.1,1.1-0.3,1.9-0.4c0.7-0.2,1.3-0.3,2-0.3c0.8-0.2,1.4-0.2,1.8-0.2h2c0.6,0,1.1,0.1,1.5,0.1
			c0.1,0,0.1,0,0.2,0h1.5c0.4,0,0.8,0.1,1.2,0.2c0.6,0,1.1,0.1,1.5,0.2c0.2,0,0.5,0.1,0.7,0.1c0.3,0,0.6,0,0.9,0.1
			c0.2,0,0.4,0,0.6,0.1h0.2c0.8,0,1.5,0.2,2.2,0.5c0,0,0.1,0,0.1,0.1c0.3,0.1,0.6,0.2,0.9,0.3l1.1,0.3c0.6,0.1,1.1,0.4,1.6,0.7
			c0.1,0,0.2,0.1,0.2,0.1l0.3,0.2c0.8,0.3,1.5,0.8,2,1.1c0.4,0.2,0.8,0.5,1.2,0.7c0.3,0.2,0.6,0.4,0.9,0.6c0.1,0,0.1,0.1,0.2,0.1
			c0.9,0.6,1.4,1.1,2,1.7c0.8,0.8,1.3,1.6,1.7,2.1c0.1,0.2,0.2,0.4,0.3,0.5l0.4,0.7c0.5,0.9,0.9,1.8,1,2.7c0.1,0.4,0.3,0.8,0.3,1.4
			c0.1,0.3,0.1,0.6,0.2,0.9c0.2,1.4,0.2,2.5,0.2,3.6c0,1.3-0.2,2.5-0.7,3.8c-0.1,0.3-0.2,0.6-0.4,0.9c-0.1,0.3-0.2,0.6-0.4,0.9
			c-0.1,0.3-0.2,0.5-0.4,0.8c-0.2,0.6-0.5,1.1-0.9,1.5c-0.2,0.3-0.4,0.6-0.6,0.8c-0.4,0.6-0.9,1.1-1.5,1.5c-0.1,0.1-0.2,0.2-0.4,0.3
			c0,0.1,0,0.1,0.1,0.2c0.1,0.4,0.1,0.8,0.1,1.2v2c0,0.8-0.2,1.5-0.5,2.2c-0.1,0.4-0.3,0.7-0.4,1.1c-0.3,0.8-0.6,1.4-1,2
			c-0.1,0.2-0.2,0.4-0.3,0.6c0,0.1-0.1,0.2-0.1,0.3c0.2,0,0.4,0,0.5,0h0.8c2.4,0,4.4,1.5,5,3.7c0.6,1.7,0.6,3.5-0.2,5.2
			c-0.1,0.2-0.2,0.4-0.2,0.6c0,0.1-0.1,0.2-0.1,0.3c-0.3,0.8-0.6,1.4-0.9,1.9c-0.1,0.3-0.3,0.6-0.4,1c-0.1,0.2-0.2,0.4-0.3,0.6
			c0,0.1-0.1,0.2-0.2,0.4c-0.1,0.3-0.3,0.7-0.5,1.1c-0.1,0.1-0.1,0.3-0.2,0.4c-0.1,0.2-0.2,0.4-0.3,0.5c-0.1,0.3-0.3,0.6-0.5,0.8
			c-0.2,0.3-0.4,0.7-0.6,0.9c-0.1,0.2-0.2,0.3-0.3,0.4c0,0-0.1,0.1-0.1,0.2c-0.2,0.3-0.3,0.7-0.6,1c0,0.1-0.1,0.1-0.1,0.2
			c-0.1,0.2-0.2,0.4-0.4,0.6c-0.2,0.3-0.5,0.7-0.8,0.9c0,0,0,0,0,0c-0.1,0.1-0.2,0.3-0.3,0.4c-0.2,0.3-0.4,0.6-0.7,0.8c0,0,0,0,0,0
			c-0.2,0.3-0.4,0.5-0.6,0.7c-0.1,0.1-0.5,0.5-0.5,0.5c0,0.1-0.6,0.6-0.6,0.6c-0.2,0.2-0.4,0.5-0.7,0.7c-0.1,0.2-0.3,0.4-0.5,0.6
			c-0.2,0.3-0.4,0.6-0.8,0.9c-0.1,0.1-0.2,0.2-0.3,0.3c0,0-0.1,0.1-0.1,0.1c-0.1,0.1-0.2,0.2-0.3,0.3c-0.4,0.5-0.8,0.9-1.4,1.2
			c-0.1,0.1-0.3,0.2-0.5,0.3c-0.3,0.2-0.7,0.5-1.1,0.6c-0.1,0.1-0.2,0.1-0.3,0.2c-0.2,0.2-0.5,0.4-0.8,0.5c-0.3,0.2-0.6,0.4-1,0.6
			c0,0-0.2,0.1-0.3,0.2c-0.3,0.2-0.6,0.3-0.9,0.5c0,0-0.1,0-0.1,0c-0.4,0.3-0.9,0.5-1.4,0.7c-0.3,0.1-0.5,0.2-0.8,0.3
			c-0.1,0-0.2,0.1-0.3,0.1c-0.1,0-0.3,0.1-0.4,0.1c-0.2,0.1-0.5,0.1-0.7,0.2c-0.2,0.1-0.3,0.1-0.5,0.1c-0.5,0.2-1.1,0.3-1.6,0.3
			c-0.2,0-0.3,0.1-0.5,0.1c-0.3,0-0.5,0.1-0.8,0.1c-0.3,0-0.6,0-0.9-0.1c0,0,0,0-0.1,0c-0.4,0-0.8,0-1.1-0.1c-0.2,0-0.3,0-0.5-0.1
			c0,0-0.1,0-0.1,0c-0.6,0-1.1-0.1-1.7-0.3c-0.1,0-0.2,0-0.2-0.1c-0.5-0.1-1.1-0.2-1.5-0.5c-0.4-0.2-1.1-0.5-1.8-1.1
			c-0.3-0.2-0.5-0.4-0.8-0.6c-0.4-0.4-0.8-0.9-1.2-1.6c-0.1-0.2-0.3-0.4-0.4-0.6c-0.1-0.2-0.2-0.3-0.3-0.5c-0.2-0.3-0.4-0.7-0.5-1.1
			c-0.3-0.7-0.5-1.4-0.6-2c-0.1,0.1-0.1,0.2-0.2,0.2c-0.2,0.2-0.4,0.4-0.6,0.7c-0.2,0.3-0.4,0.5-0.7,0.7c-0.2,0.3-0.5,0.7-0.7,0.9
			c-0.1,0.1-0.3,0.3-0.4,0.4c-0.1,0.1-0.2,0.2-0.3,0.4l-2.4,2.4c-0.2,0.2-0.5,0.5-0.7,0.7c-0.3,0.3-0.6,0.5-0.9,0.7l-0.3,0.3
			c-0.7,0.7-1.5,1.2-2,1.6c-0.2,0.1-0.3,0.3-0.5,0.4c-0.3,0.3-0.7,0.6-1.1,0.9c-0.1,0.1-0.1,0.1-0.2,0.2c-1.4,0.9-3.1,1.5-5,1.8
			C355.5,462.3,355,462.3,354.5,462.3z"/>
		<path fill="#010101" d="M422.1,463.2c-0.5,0-0.9,0-1.4,0h-0.5c-0.5,0-1-0.1-1.4-0.2l-0.1,0c-0.1,0-0.3-0.1-0.5-0.1
			c-0.4,0-0.9-0.1-1.4-0.2c-0.3,0-0.5-0.1-0.6-0.1c-0.6-0.1-1.2-0.3-1.8-0.6c-0.2,0-0.3-0.1-0.5-0.1c-0.3-0.1-0.6-0.2-0.9-0.3
			c-0.1,0-0.2-0.1-0.3-0.1c-0.6-0.2-1.1-0.5-1.5-0.8c-0.4-0.3-0.9-0.6-1.6-1c-0.3-0.1-0.5-0.3-0.7-0.4c-2.9-2.1-5.2-4.3-7-6.9
			c-2.9-3.8-4.5-8.2-4.9-12.9c0-0.1,0-0.3,0-0.4v-3.5c0-0.2,0-0.3,0-0.5c0.2-1.6,0.3-3.3,0.7-5.1c0-0.1,0-0.1,0-0.2
			c0.6-2.7,1.6-5.5,2.8-8.4c0.2-0.4,0.3-0.8,0.5-1.2c0.1-0.2,0.2-0.4,0.3-0.6c0.1-0.2,0.1-0.3,0.2-0.5c0.1-0.3,0.2-0.6,0.4-0.9
			c0.1-0.5,0.4-1,0.7-1.4c0-0.1,0.1-0.2,0.1-0.3c0.1-0.2,0.1-0.3,0.2-0.5c0.1-0.3,0.3-0.6,0.5-0.9c0.1-0.2,0.2-0.4,0.4-0.6
			c0,0,0,0,0-0.1c0-0.1,0.1-0.2,0.2-0.3c0.1-0.3,0.3-0.6,0.5-0.8c0.1-0.3,0.3-0.5,0.5-0.8c0.1-0.3,0.3-0.5,0.4-0.7
			c0.2-0.4,0.5-0.7,0.8-1c0,0,0,0,0,0c0.2-0.3,0.4-0.6,0.6-0.8c0.1-0.1,0.1-0.2,0.2-0.4c0.2-0.4,0.5-0.8,0.8-1.2
			c0.2-0.3,0.4-0.5,0.6-0.8c0.1-0.2,0.2-0.3,0.4-0.5c0.2-0.3,0.4-0.5,0.6-0.8l0.1-0.1c0.1-0.1,0.2-0.3,0.3-0.4
			c0.6-1,1.3-1.9,1.9-2.7c0.2-0.3,0.5-0.6,0.7-0.9c0.1-0.2,0.3-0.4,0.5-0.5c0.3-0.3,0.7-0.6,1-0.9c0.2-0.1,0.3-0.3,0.5-0.4
			c0.2-0.2,0.4-0.4,0.6-0.7c0.6-0.6,1.2-1.3,1.9-1.9c1.5-1.3,3.1-2.8,5.2-4c0.2-0.1,0.4-0.3,0.6-0.4c0.1,0,0.2-0.1,0.2-0.1
			c0,0,0.1,0,0.1-0.1c0.3-0.3,0.7-0.6,1.2-0.8c0.4-0.2,0.8-0.3,1-0.4c0.6-0.3,1.1-0.5,1.4-0.7c0.1,0,0.2-0.1,0.3-0.1
			c0.2-0.1,0.3-0.2,0.5-0.2c1.9-0.7,4-1.1,6.3-1.3c0.2,0,0.3,0,0.5,0h1.8c0.4,0,0.8,0.1,1.2,0.2c0,0,0.2,0,0.3,0
			c0.5,0,1.1,0.1,1.6,0.3c0.1,0,0.1,0,0.2,0.1c0.3,0,0.6,0.1,0.9,0.2l0.1,0c0.2,0,0.4,0.1,0.7,0.1c1.1,0,1.9,0.3,2.5,0.5
			c0.3,0.1,0.6,0.2,0.8,0.3c0.1,0,0.3,0.1,0.4,0.1c0.9,0.4,1.9,0.9,2.9,1.4c1,0.2,1.9,0.7,2.5,1.3c0.4,0.3,0.7,0.6,1,0.8
			c0.1,0.1,0.2,0.1,0.2,0.2c0.3,0.2,0.5,0.4,0.7,0.6l0.5,0.5c0.3,0.3,0.6,0.7,0.9,1c0.1,0.1,0.2,0.2,0.3,0.4
			c0.1,0.1,0.3,0.3,0.4,0.4c0.8,1,1.4,1.9,1.9,2.7c0.4,0.7,0.7,1.2,1,1.9c0.3,0.6,0.6,1.3,0.9,2.2c0,0,0,0,0,0
			c0,0.1,0.1,0.1,0.1,0.2c0.2,0.3,0.4,0.7,0.5,1.1c0.2,0.4,0.3,0.8,0.4,1.2c0.1,0.2,0.2,0.5,0.2,0.7c0.2,0.5,0.2,0.9,0.3,1.4
			c0.1,0.4,0.2,0.8,0.2,1.2c0,0,0,2.1,0,2.1c0,0.5,0,1-0.2,1.5c0,0.3-0.1,0.5-0.2,0.8c-0.1,0.6-0.2,1.1-0.5,1.6
			c0,0.1-0.1,0.3-0.1,0.3c-0.1,0.4-0.2,0.7-0.4,1c-0.2,0.6-0.5,1.2-0.9,1.7c0,0-0.1,0.1-0.1,0.1c-0.1,0.3-0.3,0.6-0.5,0.9
			c0,0.1-0.1,0.2-0.1,0.2c-0.3,0.5-0.7,0.9-1,1.3c-0.3,0.4-0.6,0.8-0.9,1.1c-0.1,0.1-0.2,0.2-0.3,0.3c-0.1,0.1-0.1,0.2-0.2,0.2
			c-0.3,0.3-0.6,0.6-1,0.8c-0.3,0.3-0.6,0.5-1,0.7c-0.2,0.2-0.5,0.3-0.8,0.5l0,0c-0.1,0.1-0.2,0.2-0.4,0.3c0.5-0.1,1-0.3,1.5-0.3
			c0.3-0.1,0.7-0.1,1-0.1c2.3,0,4.4,1.3,5.4,3.4c0.1,0.2,0.2,0.4,0.3,0.7l0.1,0.2c0.2,0.5,0.5,1.4,0.5,2.6v0.2
			c0,1.8-0.8,3.1-1.3,3.9c-0.2,0.4-0.4,0.8-0.8,1.2c-0.1,0.2-0.2,0.3-0.3,0.5c-0.5,0.8-1,1.6-1.7,2.4c-2.6,3.7-5.6,7.6-9.2,11.1
			c-1.5,1.5-3.3,3-5.5,4.7c-2.2,1.6-5.1,3.6-8.7,4.8C429.3,462.6,425.9,463.2,422.1,463.2z M424.7,440.5c0,0.2,0,0.4-0.1,0.7
			c-0.1,0.3-0.1,0.7-0.1,1.2c1.6-0.4,3.1-0.8,4.5-1.3c0,0,0.5-0.2,0.6-0.2c0.2-0.1,0.3-0.2,0.5-0.2c1.2-0.5,2.3-1.1,3.6-1.8
			c0.1,0,0.1-0.1,0.2-0.1c0.7-0.3,1.4-0.7,1.7-1l5.8-4.5c0.6-0.6,1.3-1.1,1.8-1.5c0.4-0.4,2.2-1.9,2.6-2.2c0.4-0.3,0.7-0.7,1-0.9
			c0.2-0.1,0.3-0.3,0.5-0.4c0.1-0.1,0.2-0.2,0.3-0.3c-0.6,0.3-1.3,0.5-1.9,0.7l-0.4,0.1c-1,0.3-2.3,0.7-3.9,0.7
			c-0.5,0.2-1.1,0.3-1.7,0.3h-2c-3.3,0-4.8-2.1-5.2-3.1c-0.2-0.5-0.4-0.9-0.5-1.4c-0.3,0.4-0.6,0.8-0.9,1.2c-1.4,1.9-2.5,4-3.6,6.2
			c0,0,0,0.1-0.1,0.1c-0.9,1.6-1.7,3.5-2.6,5.9c0,0,0,0,0,0.1c0,0.4,0,0.8-0.1,1.2C424.8,439.9,424.7,440.5,424.7,440.5z"/>
		<path fill="#010101" d="M462.6,462.3c-0.3,0-0.6,0-1-0.1c-0.1,0-0.1,0-0.2,0h-2.3c-0.7,0-1.2-0.1-1.5-0.2c-0.2,0-0.4-0.1-0.7-0.1
			c-0.5,0-1-0.2-1.5-0.3c-0.1-0.1-0.3-0.1-0.4-0.2c-0.6-0.2-1.4-0.5-2.3-1.1c-2.2-1.2-3.8-2.8-5-4.2c-0.1-0.2-0.3-0.3-0.4-0.5
			c-0.9-1.4-1.8-2.9-2.7-4.7c-0.9-1.6-1.5-3.3-1.7-4.9c-0.1-0.3-0.1-0.6-0.2-0.9l0-0.1c-0.1-0.5-0.2-0.9-0.2-1.4v-2
			c0-0.2,0-0.4,0-0.6c0.1-0.6,0.2-1.2,0.2-1.8c0.1-0.6,0.1-1.1,0.2-1.7c0-0.2,0.1-0.4,0.1-0.7c0.7-2.7,1.6-5.2,2.8-7.5
			c0.4-0.8,0.8-1.5,1.2-2.3c0.4-0.7,0.7-1.4,1.1-2.1c0-0.1,0.1-0.1,0.1-0.2c2-3.7,4.1-7.2,6.2-10.3c0-0.1,0.1-0.1,0.1-0.2
			c2-2.7,4-5.6,6.4-8.3c0.2-0.3,0.5-0.6,0.7-0.9c0.2-0.2,0.4-0.5,0.5-0.7c0.2-0.3,0.4-0.6,0.6-0.9c0.1-0.2,0.2-0.3,0.4-0.5
			c0.1-0.2,0.2-0.4,0.4-0.5c0.2-0.2,0.3-0.4,0.5-0.6c0.3-0.4,0.6-0.8,0.9-1.1c0,0,0,0,0,0c0.2-0.2,0.3-0.5,0.5-0.7
			c0.2-0.2,0.3-0.4,0.5-0.5c0,0,0.1-0.1,0.1-0.1c0.1-0.2,0.2-0.3,0.4-0.5c0.3-0.5,0.8-1,1.3-1.4c0.2-0.2,0.4-0.5,0.6-0.7
			c0.2-0.2,0.4-0.4,0.6-0.5c0.2-0.2,0.3-0.3,0.5-0.5c0.2-0.2,0.5-0.4,0.7-0.6c0,0,0.5-0.5,0.6-0.6c0.3-0.3,0.6-0.6,1-0.8
			c0.6-0.6,1.2-1,1.7-1.4c0.5-0.5,1.1-0.9,1.7-1.2c0.1-0.1,0.2-0.1,0.3-0.2c0.1-0.1,0.4-0.3,0.7-0.4c0.4-0.2,0.8-0.4,1.2-0.6
			c0.1,0,0.2-0.1,0.3-0.1c0.3-0.1,0.6-0.2,0.9-0.3c0.4-0.1,0.6-0.2,0.9-0.3c0.2-0.1,0.3-0.2,0.5-0.2c1.9-0.7,3.7-1.2,5.4-1.6
			c0,0,0.4-0.1,0.4-0.1c0.5-0.1,1.1-0.3,1.9-0.4c0.7-0.2,1.3-0.3,2-0.3c0.8-0.2,1.4-0.2,1.8-0.2h2c0.6,0,1.1,0.1,1.5,0.1
			c0.1,0,0.1,0,0.2,0h1.5c0.4,0,0.8,0.1,1.2,0.2c0.6,0,1.1,0.1,1.5,0.2c0.2,0,0.5,0.1,0.7,0.1c0.3,0,0.6,0,0.9,0.1
			c0.2,0,0.4,0,0.6,0.1h0.2c0.8,0,1.5,0.2,2.2,0.5c0,0,0.1,0,0.1,0.1c0.3,0.1,0.6,0.2,0.9,0.3l1.1,0.3c0.6,0.1,1.1,0.4,1.6,0.7
			c0.1,0,0.2,0.1,0.2,0.1l0.3,0.2c0.8,0.3,1.5,0.8,2,1.1c0.4,0.2,0.8,0.5,1.2,0.7c0.3,0.2,0.6,0.4,0.9,0.6c0.1,0,0.1,0.1,0.2,0.1
			c0.9,0.6,1.4,1.1,2,1.7c0.8,0.8,1.3,1.6,1.7,2.1c0.1,0.2,0.2,0.4,0.3,0.5l0.4,0.7c0.5,0.9,0.9,1.8,1,2.7c0.1,0.4,0.3,0.8,0.3,1.4
			c0.1,0.3,0.1,0.6,0.2,0.9c0.2,1.4,0.2,2.5,0.2,3.6c0,1.3-0.2,2.5-0.7,3.8c-0.1,0.3-0.2,0.6-0.4,0.9c-0.1,0.3-0.2,0.6-0.4,0.9
			c-0.1,0.3-0.2,0.5-0.4,0.8c-0.2,0.6-0.5,1.1-0.9,1.5c-0.2,0.3-0.4,0.6-0.6,0.8c-0.4,0.6-0.9,1.1-1.5,1.5c-0.1,0.1-0.2,0.2-0.4,0.3
			c0,0.1,0,0.1,0.1,0.2c0.1,0.4,0.1,0.8,0.1,1.2v2c0,0.8-0.2,1.5-0.5,2.2c-0.1,0.4-0.3,0.7-0.4,1.1c-0.3,0.8-0.6,1.4-1,2
			c-0.1,0.2-0.2,0.4-0.3,0.6c0,0.1-0.1,0.2-0.1,0.3c0.2,0,0.4,0,0.5,0h0.8c2.4,0,4.4,1.5,5,3.7c0.6,1.7,0.6,3.5-0.2,5.2
			c-0.1,0.2-0.2,0.4-0.2,0.6c0,0.1-0.1,0.2-0.1,0.3c-0.3,0.8-0.6,1.4-0.9,1.9c-0.1,0.3-0.3,0.6-0.4,1c-0.1,0.2-0.2,0.4-0.3,0.6
			c0,0.1-0.1,0.2-0.2,0.4c-0.1,0.3-0.3,0.7-0.5,1.1c-0.1,0.1-0.1,0.3-0.2,0.4c-0.1,0.2-0.2,0.4-0.3,0.5c-0.1,0.3-0.3,0.6-0.5,0.8
			c-0.2,0.3-0.4,0.7-0.6,0.9c-0.1,0.2-0.2,0.3-0.3,0.4c0,0-0.1,0.1-0.1,0.2c-0.2,0.3-0.3,0.7-0.6,1c0,0.1-0.1,0.1-0.1,0.2
			c-0.1,0.2-0.2,0.4-0.4,0.6c-0.2,0.3-0.5,0.7-0.8,0.9c0,0,0,0,0,0c-0.1,0.1-0.2,0.3-0.3,0.4c-0.2,0.3-0.4,0.6-0.7,0.8c0,0,0,0,0,0
			c-0.2,0.3-0.4,0.5-0.6,0.7c-0.1,0.1-0.5,0.5-0.5,0.5c0,0.1-0.6,0.6-0.6,0.6c-0.2,0.2-0.4,0.5-0.7,0.7c-0.1,0.2-0.3,0.4-0.5,0.6
			c-0.2,0.3-0.4,0.6-0.8,0.9c-0.1,0.1-0.2,0.2-0.3,0.3c0,0-0.1,0.1-0.1,0.1c-0.1,0.1-0.2,0.2-0.3,0.3c-0.4,0.5-0.8,0.9-1.4,1.2
			c-0.1,0.1-0.3,0.2-0.5,0.3c-0.3,0.2-0.7,0.5-1.1,0.6c-0.1,0.1-0.2,0.1-0.3,0.2c-0.2,0.2-0.5,0.4-0.8,0.5c-0.3,0.2-0.6,0.4-1,0.6
			c0,0-0.2,0.1-0.3,0.2c-0.3,0.2-0.6,0.3-0.9,0.5c0,0-0.1,0-0.1,0c-0.4,0.3-0.9,0.5-1.4,0.7c-0.3,0.1-0.5,0.2-0.8,0.3
			c-0.1,0-0.2,0.1-0.3,0.1c-0.1,0-0.3,0.1-0.4,0.1c-0.2,0.1-0.5,0.1-0.7,0.2c-0.2,0.1-0.3,0.1-0.5,0.1c-0.5,0.2-1.1,0.3-1.6,0.3
			c-0.2,0-0.3,0.1-0.5,0.1c-0.3,0-0.5,0.1-0.8,0.1c-0.3,0-0.6,0-0.9-0.1c0,0,0,0-0.1,0c-0.4,0-0.8,0-1.1-0.1c-0.2,0-0.3,0-0.5-0.1
			c0,0-0.1,0-0.1,0c-0.6,0-1.1-0.1-1.7-0.3c-0.1,0-0.2,0-0.2-0.1c-0.5-0.1-1.1-0.2-1.5-0.5c-0.4-0.2-1.1-0.5-1.8-1.1
			c-0.3-0.2-0.5-0.4-0.8-0.6c-0.4-0.4-0.8-0.9-1.2-1.6c-0.1-0.2-0.3-0.4-0.4-0.6c-0.1-0.2-0.2-0.3-0.3-0.5c-0.2-0.3-0.4-0.7-0.5-1.1
			c-0.3-0.7-0.5-1.4-0.6-2c-0.1,0.1-0.1,0.2-0.2,0.2c-0.2,0.2-0.4,0.4-0.6,0.7c-0.2,0.3-0.4,0.5-0.7,0.7c-0.2,0.3-0.5,0.7-0.7,0.9
			c-0.1,0.1-0.3,0.3-0.4,0.4c-0.1,0.1-0.2,0.2-0.3,0.4l-2.4,2.4c-0.2,0.2-0.5,0.5-0.7,0.7c-0.3,0.3-0.6,0.5-0.9,0.7l-0.3,0.3
			c-0.7,0.7-1.5,1.2-2,1.6c-0.2,0.1-0.3,0.3-0.5,0.4c-0.3,0.3-0.7,0.6-1.1,0.9c-0.1,0.1-0.1,0.1-0.2,0.2c-1.4,0.9-3.1,1.5-5,1.8
			C463.6,462.3,463.1,462.3,462.6,462.3z"/>
		<path fill="#010101" d="M558.4,464.5c-0.8,0-1.6-0.1-2.4-0.3c0,0,0,0,0,0c-0.3,0-0.6,0-0.8-0.1c0,0,0,0-0.1,0c-0.4,0-1,0-1.9-0.2
			c-0.8-0.1-1.4-0.3-1.9-0.5c-0.3-0.1-0.6-0.2-0.9-0.3c-0.1,0-0.2-0.1-0.3-0.1c-0.2-0.1-0.4-0.2-0.7-0.3l-0.9-0.5
			c-0.4-0.2-0.6-0.4-0.9-0.5c-0.3-0.2-0.6-0.4-0.9-0.6c0,0-0.1-0.1-0.1-0.1c-0.3-0.2-0.7-0.5-1.2-0.9c-0.5-0.4-0.9-0.9-1.1-1.1
			c0,0-0.1-0.1-0.1-0.1c-0.3-0.2-0.5-0.5-0.7-0.8c-0.1-0.1-0.2-0.3-0.3-0.4c-0.4-0.4-0.7-0.9-0.9-1.4c-0.2-0.3-0.4-0.7-0.6-1.1
			c-0.2-0.3-0.4-0.7-0.5-1.1c0-0.1-0.1-0.2-0.1-0.3c-0.4-0.7-0.6-1.3-0.7-1.6c0-0.1-0.1-0.2-0.1-0.3c-0.2-0.5-0.3-1.1-0.5-1.7
			c-0.1-0.2-0.1-0.3-0.2-0.5c-0.1,0.1-0.2,0.2-0.3,0.2c-2.1,1.6-4.2,3-6.2,4.2c-3,1.8-6,3.3-9.2,4.6c-1.2,0.5-2.3,0.8-3.3,1.1
			l-0.6,0.2c-0.2,0.1-0.4,0.1-0.7,0.1c-0.9,0.1-1.9,0.3-2.9,0.3c-0.4,0-0.8,0-1.2-0.1c-0.5,0-1-0.1-1.5-0.1c-0.4,0-0.7-0.1-1.1-0.1
			c-0.5,0-1.1-0.1-1.6-0.3c-0.7-0.2-2.4-0.8-3.6-2.5c-1-1.2-1.7-2.4-2.1-3.6c-0.5-1-1.1-2.4-1.3-4.2c-0.2-0.7-0.3-1.3-0.3-1.9
			c-0.1-0.4-0.2-0.8-0.2-1.4v-2.9c0-0.5,0.1-1,0.2-1.4c0-0.1,0-0.2,0-0.3c0.2-2.3,0.6-4.4,1.3-6.5c0.3-1,0.7-1.9,1.1-2.9
			c0.3-0.9,0.6-1.7,0.9-2.6c0-0.1,0-0.1,0.1-0.2c2-5.4,4.3-10.3,6.9-14.8c1-1.9,2.1-3.7,3.1-5.5c-0.3-0.2-0.6-0.5-0.9-0.8l-0.3-0.3
			c-1.2-1.2-1.8-2.5-1.8-4c0-0.4,0.1-0.8,0.2-1.2c0-0.4,0.1-0.7,0.1-1c0.4-1.5,1.2-2.9,2.2-4c1.3-1.3,2.7-2,4-2.6
			c0.3-0.2,0.6-0.4,0.9-0.5c0.3-0.2,0.6-0.3,0.9-0.5l2.3-1.4c0.2-0.1,0.4-0.2,0.6-0.3c0.3-0.2,0.6-0.4,0.9-0.5
			c0.3-0.2,0.6-0.3,0.8-0.4c0.1-0.1,0.3-0.2,0.4-0.3c0.4-0.4,0.9-0.7,1.4-1c0.7-0.4,1.5-0.6,2.4-0.6h0.5c0.1,0,0.2,0,0.3,0
			c0.9-0.2,1.6-0.2,2.2-0.2h0.2c0.2,0,0.3,0,0.5,0c2,0.2,3.8,0.6,5.5,1.1c0,0,0.1,0,0.1,0c2.2,0.8,4.4,1.9,6.6,3.3
			c0.5,0.3,0.9,0.5,1.2,0.7c0.4,0.2,0.7,0.5,1.1,0.8c0.5,0.5,1.1,1.1,1.6,1.8c1.6,1.9,2.4,4.5,2.4,7c0.5-0.6,1-1.2,1.5-1.8
			c1.2-1.4,2.4-2.8,3.6-4.3c0.1-0.3,0.2-0.7,0.4-1.2c0.1-0.8,0.4-1.5,0.6-1.9c0.3-0.7,0.7-1.3,1.2-2c1.2-1.6,3.2-2.6,5.4-2.6
			c0.5,0,0.9,0.1,1.4,0.2c0.4,0.1,0.9,0.2,1.1,0.2c0.3,0,0.5,0,0.8,0.1c1.1,0.2,2.1,0.5,2.9,0.8l0.4,0.1c1,0.3,1.9,0.7,2.4,0.9
			c1.2,0.4,2.4,0.8,3.7,1.4c0.2,0,0.3,0.1,0.4,0.1c0.9,0.2,1.7,0.6,2.5,1.1c0.1,0.1,0.2,0.1,0.2,0.2c0.6,0.4,2.2,1.6,2.9,3.7
			c0.4,0.9,0.5,1.7,0.6,2.2c0,0.1,0,0.2,0,0.2c0.1,0.5,0.2,1,0.2,1.5c0.4-0.8,0.8-1.6,1.1-2.3c0-0.3,0.1-0.5,0.2-0.7
			c0-0.2,0.1-0.4,0.1-0.6c0-0.2,0.1-0.4,0.1-0.6c0-0.3,0.1-0.6,0.2-0.8c0-0.4,0.1-0.8,0.2-1.2c0-0.1,0-0.2,0.1-0.3
			c0-0.3,0.1-0.7,0.2-1c0.1-0.5,0.2-1,0.4-1.4c0.1-0.3,0.2-0.6,0.3-0.9c0.1-0.3,0.1-0.5,0.2-0.8c0.1-0.5,0.3-1.1,0.5-1.5
			c0-0.1,0.1-0.2,0.1-0.3c0.3-0.9,0.7-1.9,1.5-3c0.1-0.2,0.3-0.4,0.5-0.5c0.3-0.3,0.6-0.5,0.8-0.7c1.2-1.2,2.6-1.8,3.5-2.1
			c0.5-0.2,1.1-0.3,1.7-0.4c0.4-0.1,0.8-0.2,1.2-0.2h2.1c0.3,0,0.7,0,1,0.1l0.4,0.1c0.4,0.1,0.7,0.1,0.8,0.1c1.1,0,2.2,0.2,3,0.4
			c0.2,0,0.4,0.1,0.6,0.1c1.2,0.2,2.2,0.6,3,0.9c0.3,0.1,0.5,0.2,0.7,0.3c0.5,0.1,1,0.4,1.4,0.6c1.4,0.9,2.4,2.3,2.8,3.9
			c0.2,0.6,0.3,1.2,0.3,1.8v0.3c0,0.5-0.1,1-0.2,1.3c0,0.5-0.1,1.2-0.4,1.9c0,0.2-0.1,0.4-0.1,0.6c-0.2,0.9-0.4,1.9-0.9,3.1
			c-0.2,0.6-0.5,1.2-0.7,1.6c-0.1,0.3-0.3,0.6-0.3,0.8c-0.1,0.2-0.2,0.4-0.3,0.7l-0.1,0.3c-0.2,0.5-0.6,1.2-1.1,1.9
			c0,0-0.2,0.4-0.2,0.6c-0.2,0.8-0.5,1.6-1.1,2.4c0,0,0,0.1,0,0.1c-0.3,0.5-0.6,1-0.9,1.5c-0.7,1.3-1.5,2.6-2.2,3.8
			c-0.2,0.4-0.5,0.8-0.8,1.2c-0.2,0.3-0.3,0.5-0.5,0.8c-1.8,3.2-3.7,6.6-6,9.9c-3.3,4.9-6.9,9.5-10,13.3c0,0-0.1,0.1-0.1,0.1
			c-4.7,5.5-9.2,10.6-13.9,15.7c-0.5,0.6-1,1.1-1.4,1.5c-0.3,0.3-0.7,0.7-0.9,1c-0.1,0.1-0.2,0.2-0.3,0.3c-0.2,0.2-0.4,0.4-0.6,0.7
			c-0.3,0.4-0.7,0.8-1.1,1.2c-1.7,1.7-3.5,3-5.3,4c-0.6,0.4-1.6,0.9-2.9,1.1l-2,0.4C559.6,464.4,559,464.5,558.4,464.5z"/>
	</g>
	<g>
		<path fill="#FFFFFF" d="M246.3,458.3c0,0-0.2,0-0.3,0c0-0.2,0-0.2,0-0.2c-0.6,0-1.1-0.2-1.7-0.2c-0.2,0-0.3,0-0.5,0
			c-0.5-0.3-0.9-0.2-1.4-0.6h-0.2c-0.3,0-0.6-0.2-0.8-0.3c-0.2,0-0.3,0-0.5-0.2c0,0,0,0-0.2,0v-0.2v0.2c-0.2,0-0.2,0-0.3-0.2
			c0,0,0-0.2-0.2-0.2c-0.2-0.2-0.5-0.2-0.6-0.3c-0.2,0-0.3-0.2-0.3-0.2c0-0.2,0-0.2,0-0.2s0,0-0.2,0c-0.3,0-0.5-0.3-0.6-0.6
			c-0.2,0.2-0.2,0.2-0.2,0.2c-0.3-0.3-0.6-0.5-0.8-0.8c-0.2,0-0.3-0.2-0.3-0.3c-0.2,0-0.2-0.2-0.2-0.2c-0.3-0.2-0.6-0.3-0.6-0.6
			c0-0.2,0-0.3-0.2-0.3l-0.2-0.2c-0.2-0.3-0.3-0.6-0.5-0.9c-0.3-0.6-0.5-1.2-0.6-1.7s-0.2-0.8-0.2-1.1c0-0.2,0-0.2,0-0.3
			c-0.2-0.2-0.2-0.5-0.2-0.6s0.2-0.3,0.2-0.3l-0.2-0.2c0-0.2,0.2-0.2,0.2-0.3c-0.2,0-0.2-0.2-0.2-0.2c0-0.2,0-0.3-0.2-0.5
			c0-0.2,0-0.3,0-0.3c0.3-0.3,0.3-0.5,0-0.6c0-0.2,0-0.2,0-0.3c0,0,0,0,0.2,0c0,0,0-0.2,0.2-0.2c-0.2-0.2-0.2-0.2-0.3-0.2
			c0,0,0,0,0-0.2c0.2,0,0.2,0,0.2-0.2v-0.2c0-0.5,0-0.8,0.2-1.2c0-0.2-0.2-0.5,0-0.6c0-0.5,0-0.9,0.2-1.2c0.2,0,0-0.2,0.2-0.2
			c0-0.3,0-0.5,0-0.8c0-0.2,0-0.5,0.2-0.6c0-0.2,0-0.2,0-0.3c0.2-0.5,0.3-1.1,0.5-1.5c0.2-0.6,0.3-1.2,0.5-2
			c-0.2-0.3-0.2-0.3,0.2-0.6c0-0.2,0-0.3,0.2-0.3c0.2-0.5,0.3-0.9,0.5-1.2c0.3-1.1,0.8-1.8,1.1-2.9c0.9-2,1.7-4,2.6-5.9
			c0.6-1.4,1.2-2.6,1.8-3.8c0.2-0.3,0.5-0.6,0.5-1.1c-0.2,0,0,0,0-0.2c0.3-0.6,0.8-1.2,1.1-1.7c0.5-0.9,0.9-1.8,1.4-2.7
			c0.6-1.2,1.2-2.3,2-3.5c1.1-2,2.3-4.1,3.5-6.2c0.9-1.4,1.7-2.7,2.6-4.1c0.6-0.9,1.2-2,1.8-3c0.9-1.4,1.8-2.7,2.7-4.1
			c0.3-0.5,0.6-0.8,0.9-1.2c0.2-0.2,0.3-0.3,0.3-0.6c0,0,0-0.2,0.2-0.2c0.8-0.8,1.5-1.2,2.6-1.5c0.3,0,0.5,0,0.8,0h0.2
			c0.2,0,0.3,0,0.3,0c0.6,0,1.2,0,1.8,0c0.2,0,0.3,0,0.5,0c0.3,0,0.8,0,1.1,0.2c1.8,0.2,3.5,0.6,5,1.2c0.9,0.3,1.7,0.6,2.6,1.1
			c1.5,0.6,2.9,1.4,4.1,2.3c0.8,0.6,1.5,1.2,2.3,1.8c0.6,0.5,0.9,1.2,0.9,2.1c0,1.1-0.5,2.1-0.9,3c-0.3,0.5-0.6,0.8-0.8,1.4
			c-0.3-0.2-0.5,0-0.6,0.3c-0.2,0.2-0.3,0.3-0.6,0.6c-0.9,0.9-2,1.8-3,2.6c-0.2,0.2-0.3,0.3-0.5,0.5c-1.2,1.7-2.4,3.4-3.7,5
			c-2,2.9-3.8,5.9-5.8,9c-2.1,3.5-4.4,6.9-6.6,10.4l-0.2,0.2c0.3-0.2,0.6-0.5,0.9-0.6c0.3-0.3,0.6-0.8,1.1-1.1
			c1.7-2,3.5-3.8,5.2-5.6c0.5-0.5,0.9-1.1,1.5-1.5c1.2-1.4,2.4-2.6,3.8-4c0.8-0.9,1.7-1.7,2.6-2.6c1.2-1.2,2.4-2.4,3.7-3.8
			c0.6-0.6,1.2-1.2,1.8-1.8c1.2-1.2,2.4-2.4,3.7-3.7c0.9-0.9,1.7-1.7,2.6-2.4c0.6-0.6,1.4-1.4,2.1-2c0.3-0.5,0.8-0.9,1.1-1.4
			c0.3-0.3,0.6-0.6,0.9-0.9c0.2-0.2,0.5-0.3,0.5-0.5s0.2-0.2,0.2-0.2c0.2-0.2,0.2-0.3,0.3-0.5c0.2,0,0.2-0.2,0.3-0.2c0,0,0,0,0-0.2
			c0.3-0.3,0.6-0.5,0.8-0.8c0.5-0.5,0.9-0.9,1.2-1.4c0.2-0.2,0.5-0.5,0.6-0.6c0.3-0.6,0.8-1.1,1.2-1.7c0.2-0.2,0.3-0.2,0.3-0.3
			c0.3-0.3,0.5-0.5,0.9-0.3c0-0.2,0.2-0.2,0.2-0.3c0.2,0,0.3,0,0.3-0.2c0.8-0.6,1.7-0.9,2.6-1.4c0.3,0,0.5-0.2,0.8-0.2
			c1.4-0.3,2.7-0.5,4.3-0.3c1.1,0,2.1,0.2,3,0.3c1.4,0.3,2.7,0.5,4.1,0.8c0.6,0.2,1.4,0.5,2,0.9c0.8,0.5,1.2,1.1,1.7,1.8
			c0.3,0.9,0.3,1.8-0.2,2.7c-0.3,0.5-0.6,0.9-0.9,1.4c-0.2,0.3-0.3,0.6-0.5,0.9c-1.2,1.8-2.4,3.8-3.7,5.6c-2.1,3.4-4.3,6.7-6.4,9.9
			c-1.4,2.1-2.7,4.3-3.8,6.4c-0.2,0.2-0.2,0.3-0.2,0.5c0.8-0.6,1.4-1.1,2.1-1.7c2.3-2,4.4-4,6.4-6.1c0.5-0.5,1.1-0.9,1.5-1.4
			c1.2-1.2,2.4-2.6,3.7-3.8c1.2-1.4,2.6-2.6,3.8-4c0.9-0.8,1.7-1.5,2.6-2.3c1.8-1.8,3.8-3.4,5.9-4.9c0,0,0.2-0.2,0.3-0.2
			c0.3-0.3,0.6-0.8,0.9-1.1c0.2,0,0.3-0.2,0.5-0.3c0.5-0.5,0.9-0.8,1.5-0.9c0.5,0,1.1-0.3,1.5-0.5c1.2-0.3,2.3-0.5,3.5-0.5
			c1.5,0,3,0.3,4.6,0.6c1.2,0.3,2.4,0.6,3.7,1.1c1.1,0.5,2,0.9,2.9,1.4c0.8,0.5,1.5,1.1,2,2v0.2c0,0.3,0,0.6,0,0.8
			c0.2,0.2,0.2,0.5,0.2,0.6c0,0.8-0.3,1.4-0.6,1.8s-0.8,1.1-1.1,1.4c-0.6,0.5-0.9,1.1-1.4,1.7c-0.2,0.3-0.3,0.6-0.6,0.9
			c-1.2,2-2.3,4-3.7,5.8c-1.5,2.6-3.2,5-4.9,7.6c-2,2.7-3.7,5.6-5.2,8.5c-1.5,3.4-2.7,6.9-3.5,10.4c0,0.3,0,0.6,0,0.9
			c0.2-0.2,0.2-0.2,0.3-0.2c0.9-0.8,2-1.2,2.9-2c0.5-0.3,0.8-0.6,1.2-0.9c1.2-0.8,2.4-1.7,3.5-2.6c1.4-1.2,2.7-2.4,4-3.7
			c0.9-0.9,1.8-1.8,2.6-2.9c1.1-1.1,2-2.3,2.9-3.7c0.5-0.6,0.9-1.2,1.5-1.7c0.5-0.3,0.8-0.5,1.2-0.6c0.6-0.2,1.1-0.2,1.7-0.2
			c0.2,0.3,0.3,0.6,0.5,0.9c0,0.2,0,0.5,0,0.6s0,0.5,0,0.6s0,0.3,0,0.6c-0.2,0.6-0.5,1.2-0.8,1.7c-0.5,0.8-0.8,1.4-1.2,2.1
			c-0.6,0.9-1.2,2-1.7,2.9c-0.9,1.7-1.8,3.2-2.7,4.7c-0.6,1.1-1.2,2.1-1.8,3.2c-0.6,0.9-1.1,1.8-1.7,2.6c-0.6,0.9-1.2,1.7-1.8,2.4
			c-0.5,0.8-0.9,1.5-1.5,2.3c-0.2,0.3-0.3,0.6-0.6,0.9c-0.2,0.3-0.5,0.6-0.6,0.9s-0.3,0.5-0.6,0.6c-0.2,0.3-0.5,0.5-0.8,0.8
			c-0.5,0.6-1.2,0.9-1.8,1.4c-0.2,0.2-0.3,0.3-0.3,0.3c-0.5,0.3-0.9,0.6-1.4,0.8c-1.1,0.6-2.1,1.1-3.2,1.5c-0.9,0.5-2,0.6-3,0.9
			c-0.8,0.2-1.5,0.3-2.3,0.3c-0.6,0-1.4,0-2-0.2c-1.2-0.2-2.3-0.6-3.4-1.1c-1.1-0.6-1.8-1.2-2.7-2c-0.2-0.2-0.3-0.5-0.5-0.6
			s-0.3-0.3-0.3-0.3c-1.5-1.7-2.6-3.5-3.4-5.5c-0.5-1.5-0.8-3.2-0.9-4.9c-0.2-1.5,0-3.2,0.2-4.7c0.3-2.1,0.8-4.1,1.4-6.1
			s1.2-4.1,1.8-6.1c0-0.2,0-0.3,0-0.5L311,426c-2.3,2.4-4.3,5-6.2,7.6c-3.5,4.7-6.9,9.6-10.1,14.5c-0.6,0.8-1.1,1.7-1.7,2.4
			c-0.8,0.9-1.5,2-2.4,2.9c-0.5,0.5-0.9,1.1-1.4,1.5c-0.6,0.5-1.2,1.1-1.8,1.5c-0.5,0.3-0.9,0.8-1.5,1.1c-0.2,0-0.5,0.2-0.6,0.3
			c-1.2,0.5-2.6,0.5-3.8,0.2c-1.8-0.3-3.4-1.1-4.7-2c-1.1-0.8-2-1.7-2.7-2.7c-0.5-0.6-0.8-1.2-0.8-2c-0.2-0.8,0-1.4,0.2-2.1
			c0.5-1.1,0.8-2.3,1.2-3.5c1.1-2.7,2.1-5.5,3.2-8.2c1.8-4.4,3.8-9,5.9-13.4c0,0,0.2-0.2,0.2-0.3c-0.9,0.9-1.7,1.8-2.4,2.6
			c-1.7,1.8-3.5,3.7-5,5.5c-0.8,0.9-1.5,1.8-2.3,2.7c-1.1,1.2-2.3,2.4-3.4,3.7c-1.2,1.4-2.6,2.7-3.8,4.3c-1.5,2-3,3.8-4.7,5.6
			c-1.2,1.5-2.4,2.9-3.8,4.3c-0.5,0.6-0.9,1.1-1.4,1.5c-0.2,0.3-0.5,0.5-0.6,0.6c-0.3,0.2-0.6,0.5-0.9,0.6c-0.2,0-0.2,0.2-0.2,0.2
			c0,0.2-0.2,0.2-0.2,0.2h-0.2c0.2,0,0.2,0,0.2,0c-0.3,0.2-0.5,0.3-0.6,0.5c-0.2,0-0.3,0.2-0.5,0.2v0.2c-0.2,0-0.3,0-0.5,0
			c0,0.3-0.2,0.2-0.3,0.3s-0.5,0.3-0.6,0.3c0,0,0,0,0-0.2c0,0,0,0-0.2,0c-0.2,0.2-0.3,0.3-0.5,0.5c-0.2,0-0.3,0-0.5,0.2
			c0,0,0,0,0-0.2c0,0.2,0,0.2-0.2,0.2c-0.3,0.2-0.6,0.3-1.1,0.3c-0.2,0.2-0.3,0.2-0.5,0.2s-0.3,0.2-0.5,0.2
			c-0.5,0.2-0.9,0.2-1.4,0.2c-0.3,0.2-0.6,0.2-0.9,0.3c-0.2,0-0.3,0-0.5,0c0,0,0,0-0.2,0c0,0,0,0-0.2,0
			C246.6,458.2,246.4,458.2,246.3,458.3z M235.2,446.2c-0.2,0-0.2,0-0.2,0s0,0,0-0.2C235,446.2,235,446.2,235.2,446.2z M236.5,441.4
			c-0.2,0-0.2,0-0.2,0S236.4,441.4,236.5,441.4z M239.6,456.1c0,0,0,0,0,0.2c0-0.2-0.2-0.2-0.2-0.2
			C239.6,456.1,239.6,456.1,239.6,456.1z M244,421.8c0,0,0,0,0-0.2V421.8z M244.6,455.9h0.2H244.6z M246.1,417.7v0.2
			c-0.2,0.2-0.2,0.3-0.2,0.5h-0.2c-0.2,0.2-0.2,0.3-0.2,0.3c0,0.2,0,0.2,0,0.2c0,0.2-0.2,0.2-0.2,0.2c0.2,0.2,0.2,0.2,0,0.2v-0.2
			c0,0,0.2,0,0.2-0.2c0,0,0,0,0-0.2c0,0,0.2-0.2,0.2-0.3h0.2c0-0.2,0.2-0.3,0.2-0.5V417.7z M246.9,416.3v0.2V416.3
			c0,0.2,0,0.2,0,0.2V416.3z M251,408.5c0,0,0,0,0.2,0C251.2,408.5,251.2,408.5,251,408.5z M251.5,456.5c0.2,0,0.2,0,0.3,0
			s0.5-0.2,0.6-0.3c0,0,0,0,0.2,0c-0.2,0-0.2,0-0.2,0c-0.2,0-0.3,0.2-0.5,0.2s-0.2,0.2-0.2,0.2c-0.2,0-0.2,0-0.3,0.2
			C251.5,456.7,251.5,456.7,251.5,456.5z M252.7,405.6c-0.2,0-0.2,0-0.2,0C252.7,405.6,252.7,405.6,252.7,405.6z M269.1,424.5v-0.2
			C269.1,424.5,269.1,424.5,269.1,424.5z M270.2,423.5v0.2C270.2,423.5,270.2,423.5,270.2,423.5z M272.8,421l0.2-0.2L272.8,421
			c-0.2,0.2-0.3,0.2-0.2,0.3c-0.2,0-0.2,0-0.3,0c0,0.2,0,0.2,0.2,0.2c-0.2,0-0.2,0.2-0.2,0.2c-0.2-0.2-0.2,0-0.3,0.2
			c0,0-0.2,0-0.2,0.2s-0.2,0.2-0.3,0.2v0.2c-0.2,0-0.2,0.2-0.3,0.2c0,0.2,0,0.2,0,0.3h-0.2c-0.3,0-0.3,0-0.3,0.2c-0.2,0-0.2,0-0.3,0
			c0.2,0.2,0.2,0.2,0.3,0c0.2,0.2,0.3,0,0.3-0.2c0,0,0,0,0.2,0c0.3-0.3,0.5-0.5,0.8-0.8v-0.2c0.2,0,0.2-0.2,0.3-0.2
			c0-0.2,0-0.2,0-0.2c0.2,0,0.2,0,0.3-0.2C272.6,421.3,272.6,421.2,272.8,421z M270.7,423.1c-0.2,0-0.2,0-0.2,0.2
			C270.5,423.1,270.7,423.1,270.7,423.1z M273.3,420.6h-0.2v0.2C273.1,420.6,273.3,420.6,273.3,420.6z M273.4,420.4c0,0,0,0,0-0.2
			c0,0,0,0.2-0.2,0.2H273.4z M277.1,416.1c0.2,0,0.2,0,0.2,0H277.1z M317.1,409.3c-0.2,0-0.2,0-0.2,0
			C317.1,409.3,317.1,409.3,317.1,409.3z M318.8,407.3c-0.2,0-0.2,0-0.2,0S318.7,407.3,318.8,407.3z M329,442.5
			c0.2-0.2,0.2-0.2,0.2-0.2h0.2c0-0.2,0-0.2,0-0.2v0.2h-0.2C329.2,442.3,329.2,442.3,329,442.5z M330.4,454.1c0.2,0,0.2,0,0.2,0
			H330.4z M331.1,453.6c0,0.2-0.2,0.2-0.2,0.2c-0.2,0-0.2,0-0.3,0.2c0.2-0.2,0.3,0,0.3-0.2C331,453.8,331.1,453.8,331.1,453.6z
			 M333,452.2h-0.2v0.2h-0.2c-0.2,0-0.2,0.2-0.3,0.3c-0.2,0-0.2,0.2-0.2,0.2h-0.2c0,0.2-0.2,0.2-0.2,0.2c0,0.2-0.2,0.2-0.3,0.2v0.2
			c-0.2,0-0.2,0-0.3,0.2c0.2,0,0.3-0.2,0.3-0.2c0.2,0,0.3-0.2,0.3-0.3c0.2,0,0.2,0,0.3-0.2l0.2-0.2c0.2,0,0.3-0.2,0.3-0.3h0.2v-0.2
			H333c0-0.2,0-0.2,0-0.2c0.2,0,0.3-0.2,0.3-0.3c0.2,0,0.2,0,0.3-0.3c-0.2,0.2-0.3,0.3-0.3,0.5c-0.2,0-0.2,0-0.2,0.2
			c-0.2,0-0.2,0-0.2,0s0,0,0.2,0c-0.2,0-0.2,0-0.2,0V452.2z M333.9,451.3c-0.2,0-0.2,0-0.2,0S333.7,451.3,333.9,451.3z M334,451.2
			c0-0.2-0.2-0.2-0.2-0.2h0.2V451.2z M335.4,437.3c0,0,0,0,0.2,0C335.4,437.3,335.4,437.3,335.4,437.3c-0.2,0.2-0.2,0.2-0.2,0.2h0.2
			c0,0,0,0-0.2-0.2C335.4,437.3,335.4,437.3,335.4,437.3z M336.2,436.9h0.2c0-0.2,0-0.2,0-0.2c-0.2,0-0.2,0-0.2,0V436.9z
			 M336.3,436.6c0.2,0,0.2,0.2,0.2,0.2c0-0.2,0-0.2,0-0.2S336.5,436.6,336.3,436.6z M336.8,436.2c-0.2,0-0.2,0-0.3,0.2
			C336.6,436.4,336.8,436.4,336.8,436.2z M337.2,435.9h-0.2C337.2,435.9,337.2,435.9,337.2,435.9z M339.7,433.5c0-0.2,0-0.2,0-0.2
			V433.5z"/>
		<path fill="#FFFFFF" d="M383.4,391.5c0.2,0,0.3,0,0.5,0c0.5,0,0.9,0,1.4,0c0.2,0,0.2,0,0.2,0c0.5,0,1.1,0.2,1.5,0.2s0.8,0,1.2,0
			c0,0,0,0,0,0.2c0-0.2,0-0.2,0-0.2h0.2c0.2,0,0.2,0,0.3,0c0.3,0.2,0.8,0.2,1.1,0.2c0.5,0,0.8,0.2,1.1,0.2c0.5,0.2,0.8,0.2,1.2,0.2
			c0.3,0.2,0.6,0,0.9,0.2c0.3,0,0.6,0,0.8,0c0.3,0.2,0.6,0.3,0.8,0.5c0.2-0.2,0.5,0,0.6,0.2c0.6,0.2,1.2,0.3,1.8,0.5
			c0.2,0.2,0.3,0.2,0.5,0.3c0.3,0.2,0.6,0.3,0.9,0.5c0.5,0.2,0.9,0.5,1.4,0.8c0.8,0.5,1.4,0.9,2.1,1.4c0.5,0.3,0.8,0.6,1.2,1.1
			s0.8,0.9,1.1,1.4c0.2,0.3,0.3,0.6,0.5,0.9c0.3,0.5,0.5,0.9,0.5,1.4c0.2,0.5,0.3,0.8,0.3,1.2c0,0.2,0.2,0.5,0.2,0.6
			c0.2,1.1,0.2,2,0.2,3c0,0.8-0.2,1.5-0.5,2.3c0,0,0,0.2-0.2,0.3c-0.2,0-0.2,0.2-0.2,0.3c0,0,0,0-0.2-0.2c0.2,0.2,0.2,0.2,0.2,0.3
			c0,0-0.2,0-0.2,0.2s-0.2,0.3-0.2,0.3v0.2c-0.3,0,0,0-0.2,0c0,0.2-0.2,0.3-0.2,0.5l-0.2-0.2c0,0.2,0.2,0.2,0.2,0.2s0,0-0.2,0
			c0,0.2,0,0.2,0,0.3V410c0,0,0,0-0.2,0c0,0.2,0,0.2,0,0.3c0,0,0,0-0.2,0c0,0,0,0,0.2,0c-0.2,0.2-0.2,0.2-0.2,0.3c0,0,0,0.2-0.2,0.2
			v0.2c-0.3,0.3-0.5,0.5-0.6,0.8c-0.3,0.2-0.5,0.3-0.6,0.5s-0.2,0.2-0.2,0.2c-0.3,0-0.5,0-0.6,0.2c-0.2,0-0.3,0-0.3,0
			c-0.2,0-0.3,0-0.5,0c0,0-0.2,0,0,0c-0.5,0.2-0.9,0.2-1.2,0c0,0,0,0-0.2,0c0,0,0,0-0.2,0c0-0.2,0-0.2,0-0.3c0,0,0,0-0.2,0.2
			c0,0,0,0,0.2,0.2c-0.2,0-0.2,0-0.2,0v-0.2c0,0,0,0-0.2,0.2c0-0.2,0-0.2,0-0.2s0,0-0.2,0.2c0-0.2-0.2-0.2-0.3-0.2
			c0.2,0,0.2-0.2,0.2-0.2h-0.2c0,0.2-0.2,0.2-0.2,0.2l-0.2-0.2c0,0,0,0-0.2,0.2c0.2-0.2,0-0.2-0.2-0.2c0,0,0,0-0.2-0.2
			c0,0,0,0,0,0.2c0-0.2,0-0.2,0-0.2c-0.2,0-0.2,0-0.2,0h-0.2c-0.2-0.2-0.2-0.2-0.3-0.3c-0.2,0-0.3,0-0.5-0.2c0.2,0,0.2,0,0.2,0
			s0,0-0.2,0c-0.2-0.2-0.3-0.3-0.5-0.5c-0.3-0.3-0.5-0.6-0.6-0.9c-0.2-0.5-0.3-0.8,0-1.2v-0.2c-0.2-0.5-0.2-1.1-0.6-1.5
			c-0.2,0-0.2,0-0.3-0.2c-0.3,0-0.5-0.2-0.8-0.2c-0.2,0-0.3-0.2-0.5,0c-0.2-0.2-0.3,0-0.5-0.2v0.2c0,0,0,0,0-0.2
			c-0.2,0.2-0.2,0.2-0.2,0.2s0,0-0.2-0.2c0,0.2,0,0.2,0,0.2h-0.2c-0.2,0.2-0.2,0.2-0.3,0.2h-0.2c-0.2,0-0.3,0-0.5,0l-0.2,0.2
			c-0.2,0-0.2,0-0.3,0c-0.2,0.2-0.2,0.2-0.3,0.2c-0.2,0.2-0.3,0.2-0.5,0.2c0,0-0.2,0.2-0.3,0c0,0,0,0,0,0.2v-0.2
			c0,0.2,0,0.2-0.2,0.2c0,0,0,0-0.2,0c0,0.2-0.2,0.2-0.3,0.2l-0.2,0.2v-0.2c-0.2,0.2-0.2,0.2-0.2,0.2c-0.2,0.2-0.2,0.2-0.3,0.2
			s-0.2,0.2-0.3,0.2h-0.2h-0.2h0.2c-0.2,0.2-0.3,0.2-0.3,0.2v-0.2c0,0,0,0.2,0.2,0.2c0-0.2-0.2-0.2-0.2-0.2v0.2c-0.2,0-0.2,0-0.2,0
			s-0.2,0.2,0,0.2h-0.2c-0.2,0-0.2,0-0.2,0s0,0,0-0.2c0,0.2-0.2,0.3-0.2,0.5c0-0.2-0.2-0.2-0.2-0.2v0.2c-0.2,0-0.2,0-0.2,0l-0.2,0.2
			H387h0.2c-0.2,0-0.2,0.2-0.3,0c0,0.2,0,0.2-0.2,0.2c-0.2,0.2-0.5,0.3-0.6,0.5c-0.3,0.5-0.8,0.8-1.2,1.1c-0.9,0.8-2,1.4-2.7,2.1
			c-2.6,2.1-4.9,4.3-7.2,6.6c-1.4,1.2-2.6,2.6-3.8,3.8c-2.4,2.6-4.7,5.2-6.9,8.1c-2.7,3.5-5.3,7.3-7.5,11.3
			c-0.2,0.2-0.2,0.3-0.2,0.3v0.2c0-0.2,0.2-0.2,0.2-0.3c0.2-0.2,0.5-0.5,0.8-0.6c0.2,0.2,0.2-0.2,0.3-0.2c0-0.2,0.2-0.2,0.2-0.2
			s0,0,0.2-0.2c-0.2,0-0.2,0-0.2,0h0.2c0-0.2,0-0.2,0.2-0.2c0,0,0.2-0.2,0.2-0.3c0,0.2,0,0.2,0,0.2s0,0,0-0.2h0.2c0,0,0,0,0-0.2
			c0.2,0.2,0.2,0,0.3,0s0.2,0,0.2,0h-0.2c0-0.2,0-0.2,0.2-0.3c0,0.2,0,0.2,0,0.2s0.2,0,0.2,0.2c0-0.2,0-0.3-0.2-0.3
			c0.3-0.2,0.5-0.2,0.5-0.3h0.2c0,0,0,0,0-0.2c0,0,0,0,0.2,0v0.2c0-0.2,0-0.2,0-0.3h0.2v0.2v-0.2c0,0,0-0.2,0.2-0.3
			c0,0.2,0,0.2,0,0.2c0.2,0,0.2-0.2,0.3-0.2c0-0.2,0-0.2,0.2-0.2c0-0.3,0.2-0.5,0.3-0.5s0.2,0,0.2-0.2c0,0,0,0.2,0,0
			c0.2,0,0.2-0.2,0.2-0.2c0.2-0.2,0.3-0.2,0.5-0.3c0-0.2,0.2-0.2,0.2,0c0-0.2,0-0.2,0-0.2c0.2-0.2,0.2-0.2,0.2-0.2
			c0.2-0.2,0.3-0.3,0.5-0.5c0.2,0,0.2,0,0.2,0s0,0-0.2,0c0.2-0.2,0.3-0.2,0.5-0.3c0-0.2,0.2-0.3,0.3-0.3c0.2-0.2,0.3-0.3,0.5-0.5
			c0,0.2,0,0,0,0c0.2,0,0.3-0.2,0.3-0.2s0,0,0-0.2c0.2,0,0.3,0,0.3,0s0,0-0.2,0c0.2-0.2,0.2-0.2,0.2-0.2h0.2v-0.2c0,0,0.2-0.2,0.2,0
			c0-0.2,0-0.2,0.2-0.2c0.2-0.3,0.3-0.3,0.5-0.2c0-0.2-0.2-0.2-0.2-0.2c0-0.2,0.2-0.2,0.2-0.2l0.2-0.2v0.2c0-0.2,0-0.2,0-0.2
			c0.2,0,0.2,0,0.2-0.2h0.2c0,0,0,0,0-0.2h0.2h-0.2c0.2-0.2,0.2-0.2,0.3-0.2l0.2-0.2c0,0,0,0,0,0.2c0-0.2,0-0.2,0-0.2s0-0.2,0.2-0.2
			c0,0,0.2-0.2,0.2,0h0.2h-0.2c0-0.2,0-0.2,0-0.2l0.2-0.2c0.2,0.2,0,0,0.2,0c0,0,0,0,0.2,0h-0.2c0-0.2,0-0.2,0-0.2
			c0.2,0,0.2,0,0.2,0s0,0,0-0.2c0,0,0,0,0.2,0v0.2h0.2c0,0,0,0,0.2,0c0,0,0,0,0-0.2c-0.2,0-0.2,0-0.3,0c0,0,0,0,0-0.2
			c0.2,0.2,0.2,0.2,0.3,0.2c0-0.2,0-0.2,0-0.2s0,0,0-0.2v0.2c0,0,0,0,0.2,0c0-0.2,0-0.3,0.2-0.3c0.2-0.2,0.2,0,0.3,0
			c0-0.2,0.2-0.2,0-0.3c0-0.2,0.2-0.2,0.3-0.3c0.2,0,0.2,0,0.3,0c-0.2,0-0.2-0.2-0.2-0.2s0.2,0,0.2-0.2c0,0.2,0.2,0.2,0.2,0.2v-0.2
			c0.2-0.2,0.2-0.2,0.2-0.2l0.2-0.2c0.2,0,0.2-0.2,0.3-0.2h-0.2c0.2,0,0.2,0,0.2,0c0-0.2,0.2-0.2,0.2-0.3c0.2,0,0.2,0,0.3-0.2
			c0,0,0-0.2,0.2,0c0,0,0,0,0-0.2h0.2c0-0.2,0.2-0.3,0.2-0.3c0.2,0,0.2,0,0.2,0c0-0.2,0.2-0.2,0.3-0.3l0.2-0.2
			c0.2-0.2,0.3-0.3,0.5-0.6c0,0.2,0,0.2,0,0.2c0.2,0,0.2-0.2,0.2-0.2c0.3-0.3,0.6-0.6,0.9-0.9s0.6-0.6,1.1-0.8c0-0.2,0-0.2,0-0.2
			c0-0.2,0.2-0.2,0.3-0.3s0.5-0.5,0.6-0.6s0.2-0.2,0.2-0.2c0.2-0.2,0.3-0.2,0.3-0.3c0.2-0.2,0.3-0.3,0.5-0.5s0.2-0.2,0.3-0.3
			c0,0,0.2,0,0.2-0.2c0,0,0,0,0.2,0c0,0,0,0,0-0.2h0.2c0,0,0,0-0.2-0.2c0.2,0,0.2,0,0.3-0.2c0,0.2,0,0,0,0c0-0.2,0-0.2,0-0.2
			c0.2,0,0.2,0,0.2,0s0,0-0.2,0c0.2,0,0.2,0,0.2,0v-0.2c0.2,0,0.3,0,0.3-0.2c0.2,0,0.2,0,0.2,0s0,0,0.2,0c-0.2,0-0.2,0-0.2,0v-0.2
			c0.2-0.2,0.2-0.2,0.3-0.2c0-0.2,0-0.2,0-0.2h0.2c0,0,0,0,0,0.2c0-0.2,0-0.2,0-0.2H377c0,0,0,0,0-0.2c0.2,0.2,0.2,0.2,0.3,0.2
			c-0.2-0.2-0.2-0.2-0.2-0.3c0.2,0.2,0.2,0.2,0.2,0.2c0-0.2,0-0.2,0.2-0.3v0.2c0-0.2,0.2-0.2,0.2-0.3c0.2,0,0.2,0,0.2-0.2
			c0,0,0.2-0.2,0.3-0.2c0-0.2,0-0.2,0.2-0.2c0-0.3,0.2-0.3,0.3-0.5l0.2-0.2c0-0.3,0.3-0.3,0.5-0.6c0.2,0,0.2-0.2,0.3-0.2
			c0.2-0.2,0.2-0.3,0.3-0.3c0-0.2,0.2-0.3,0.3-0.3c0,0,0-0.2,0.2-0.2c0,0,0,0,0.2-0.2c0,0,0,0-0.2,0c0.2,0,0.3,0,0.3,0
			s-0.2,0-0.2-0.2c0.2,0,0.2,0,0.3,0c-0.2,0-0.2,0-0.2-0.2h0.2c0,0,0,0,0-0.2c0,0,0,0,0.2,0c0,0,0,0,0,0.2c-0.2,0-0.2,0-0.2,0h0.2
			c-0.2-0.2-0.2-0.2-0.2-0.2c0.2,0,0.2-0.2,0.3-0.2h0.2c0-0.2-0.2-0.2,0-0.2c0-0.2,0,0,0-0.2c0,0,0.2,0,0.2-0.2c0,0.2,0,0.2,0,0.2
			c0-0.2,0.2-0.2,0.2-0.3c0,0.2,0,0.2,0,0.2s0,0,0.2,0c-0.2,0-0.2-0.2-0.2-0.2h0.2c0-0.2,0.2-0.2,0.2-0.2c0-0.2,0-0.2,0.2-0.3h0.2
			c0,0,0,0,0.2,0c-0.2,0-0.2,0-0.2,0c0-0.2,0.2-0.2,0.2-0.3h0.2c0-0.2,0.2-0.2,0.2-0.3c0,0.2,0,0.2,0,0.2c0.2,0,0.2,0,0.2,0
			s0-0.2-0.2-0.2c0.2,0,0.2,0,0.3,0c-0.2,0-0.2,0-0.2-0.2c0,0,0,0,0.2,0v0.2c0-0.2,0-0.2,0-0.3c0.2,0,0.2-0.2,0.3-0.2
			c0,0,0,0.2,0.2,0.2c0-0.2,0-0.2,0-0.2c-0.2-0.2,0-0.3,0.2-0.5l0.2,0.2c0-0.2,0-0.2,0-0.2v-0.2h0.2c0-0.2,0.2-0.3,0.2-0.3h0.2h-0.2
			c0.2,0,0.2-0.2,0.3-0.2c0,0,0,0-0.2,0c0.2,0,0.2,0,0.2,0c0-0.3,0.3-0.3,0.3-0.5h0.2l0.2-0.2c0-0.2,0-0.3,0.3-0.3v-0.2
			c0-0.2,0.2-0.3,0.3-0.5c0,0,0.2-0.2,0.3-0.2c0-0.2,0.2-0.3,0.2-0.3c0.2-0.3,0.3-0.5,0.5-0.6s0.3-0.5,0.5-0.6s0.3-0.3,0.6-0.3
			c0,0,0-0.2,0.2-0.2c0.2-0.2,0.5-0.3,0.6-0.6c0.5-0.3,0.9-0.5,1.4-0.6c0.9-0.5,1.8-0.5,2.7-0.5s1.7,0.2,2.4,0.3
			c0.6,0.2,1.2,0.3,1.8,0.5c0.6,0.3,1.2,0.8,1.8,1.1c0.5,0.3,0.8,0.8,1.1,1.1c0.2,0.3,0.3,0.5,0.5,0.6c0.3,0.6,0.5,1.2,0.6,1.8
			c0,0.5,0,0.9,0,1.4c0,0.2,0,0.5,0,0.6c-0.2,0.2-0.2,0.5-0.3,0.6c0,0.2,0,0.3-0.2,0.5c-0.3,0.9-0.8,1.7-1.2,2.6
			c-0.3,0.5-0.5,1.1-0.8,1.5c-0.8,1.4-1.5,2.7-2.1,4.1c-0.3,0.5-0.6,1.1-0.9,1.7c-0.8,1.4-1.5,2.7-2.1,4.1c-0.3,0.8-0.6,1.5-0.8,2.3
			c0,0.2,0,0.2,0.2,0.3s0.8,0.3,0.9,0.3c0.2-0.2,0.3-0.2,0.5-0.2c0.3-0.2,0.6-0.3,0.9-0.3c0.2-0.2,0.5-0.2,0.8-0.3
			c0.8-0.3,1.4-0.8,2.1-1.2c0.5-0.3,0.8-0.6,1.2-0.9c0.2-0.2,0.2-0.3,0.3-0.5c0.3-0.2,0.5-0.3,0.8-0.5c0.5-0.6,1.1-1.1,1.7-1.7
			c0.2-0.2,0.3-0.3,0.5-0.3c0.2-0.2,0.2-0.2,0.3-0.5c0.6-0.3,0.9-0.6,1.5-0.6c0.3,0,0.5,0,0.8,0c0.2,0,0.2,0,0.2,0.2
			c0.3,0.6,0.3,1.2,0,1.8c-0.2,0.5-0.3,0.8-0.5,1.2s-0.5,0.9-0.8,1.4c0,0.2-0.2,0.2-0.2,0.3c0,0,0,0,0,0.2s-0.2,0.3-0.3,0.5
			c0,0.2,0,0.3-0.2,0.5c-0.2,0.3-0.2,0.5-0.3,0.6c-0.2,0.3-0.2,0.6-0.3,0.8c0,0,0,0-0.2,0v0.2l-0.2,0.2v0.2c0,0.2,0,0.2-0.2,0.2
			c0,0,0,0,0,0.2v-0.2c0,0.2,0,0.2,0,0.2c-0.2,0.2-0.2,0.3-0.3,0.5c0,0,0,0,0-0.2c0,0.2,0,0.2,0,0.2s0,0-0.2,0.2c0,0,0,0,0.2,0v-0.2
			v0.2c-0.2,0-0.2,0.2-0.3,0.3c0,0,0,0-0.2,0h0.2c-0.2,0.2-0.2,0.2-0.2,0.3c0,0,0,0-0.2,0c0,0,0,0,0,0.2h0.2c-0.2,0-0.2,0-0.2,0
			c-0.2,0.2,0,0.3-0.2,0.3c0,0.2,0,0.2-0.2,0.3c0,0,0,0,0-0.2c0,0.2,0,0.2,0,0.2c-0.2,0.2-0.2,0.3-0.3,0.5c0,0.2-0.3,0.3-0.3,0.6
			c0,0,0-0.2-0.2-0.2c0,0.2,0.2,0.2,0.2,0.2c-0.3,0.2-0.3,0.6-0.6,0.8c0,0.2-0.2,0.2-0.3,0.2c0.2,0,0.2,0,0.2,0.2
			c-0.2,0-0.2,0-0.2,0c0,0.2,0,0.2-0.2,0.2c0,0.2-0.2,0.3-0.2,0.3c-0.2,0-0.2,0-0.2,0.2c0,0,0,0-0.2,0.2l0.2-0.2h-0.2v0.2
			c0,0,0,0-0.2,0c0.2,0,0.2,0,0.2,0.2l-0.2,0.2c0,0.2-0.2,0.2-0.2,0.2c-0.2,0-0.2,0-0.2,0.2c0,0,0,0.2-0.2,0.2c0,0,0,0-0.2,0.2
			c0,0,0,0-0.2,0c0,0.2,0,0.2,0,0.3c0-0.2,0-0.2-0.2-0.2c0,0,0,0,0,0.2c-0.2,0,0,0,0,0.2l-0.2-0.2c0,0.2,0,0.2,0,0.3
			c0,0-0.2,0-0.3,0c0,0,0,0,0,0.2c0,0,0,0.2-0.2,0.3c0,0,0-0.2,0,0c-0.2,0-0.2,0-0.2,0.2c-0.2,0.2-0.3,0.3-0.5,0.5
			c0-0.2,0-0.2,0-0.2h0.2c0,0,0,0-0.2,0c0,0,0,0,0,0.2c0,0,0,0,0-0.2c0,0.3-0.3,0.5-0.3,0.5c-0.2,0-0.2,0.2-0.2,0.2
			c-0.2,0.2-0.3,0.3-0.5,0.5c0,0.2-0.2,0.3-0.3,0.5s-0.3,0.5-0.5,0.6c0,0,0,0-0.2,0c0,0.2,0,0.2-0.2,0.2c-0.2,0.3-0.3,0.5-0.6,0.6
			c0,0,0.2,0,0.2-0.2c-0.2,0.2-0.2,0.2-0.3,0.2c0,0.2-0.2,0.2-0.2,0.2v0.2l-0.2,0.2c-0.2-0.2-0.2,0-0.2,0v0.2c-0.2,0-0.2,0-0.2,0
			s-0.2,0-0.2,0.2h-0.2v-0.2c0,0,0,0-0.2,0c0.2,0.2,0.2,0.2,0.2,0.2s0,0,0,0.2c0-0.2-0.2-0.2-0.2-0.2c0,0.2,0,0.2-0.2,0.2
			c0,0.2,0,0.2-0.2,0.2s-0.2,0-0.2,0s0,0,0-0.2c0,0.2,0,0.2,0,0.2V450c0,0.2,0,0.2,0,0.2h0.2c0,0-0.2,0-0.2,0.2c0-0.2,0-0.2-0.2-0.2
			v0.2l-0.2,0.2v-0.2c-0.2,0.2-0.2,0.2-0.3,0.3c0,0,0,0-0.2,0c0,0.2,0,0.3-0.2,0.3h-0.2c-0.2,0.2-0.5,0.5-0.6,0.5s-0.2,0.2-0.3,0.2
			c0,0-0.2,0.2-0.3,0.2c-0.2,0.2-0.2,0.2-0.3,0.2c-0.2,0.2-0.6,0.3-0.8,0.3c0,0.2-0.2,0.2-0.3,0.2c0,0,0,0,0,0.2c0,0,0-0.2-0.2-0.2
			c0,0.2,0,0.2,0,0.2c-0.2,0-0.2,0-0.2,0l-0.2,0.2c-0.2,0-0.3,0.2-0.3,0.2c-0.2-0.2-0.2-0.2-0.2-0.2v0.2h-0.2c0,0.2,0,0.2-0.2,0
			c0,0.2-0.2,0.2-0.2,0.2h-0.2c0,0.2-0.2,0.2-0.3,0c0,0.2,0,0.2,0,0.2h-0.2H386c0,0.2-0.2,0.2-0.3,0c0,0.2,0,0.2,0,0.2s0,0-0.2,0
			l0.2-0.2h-0.2v0.2c0.2,0,0.2,0,0.2,0c-0.2,0-0.2,0-0.2,0h-0.2c0,0,0-0.2-0.2-0.2c0,0,0,0.2,0.2,0.2c0,0,0,0-0.2,0.2
			c0-0.2,0-0.2,0-0.2c-0.2,0-0.2,0-0.2,0.2c0-0.2,0-0.2,0-0.3c-0.2,0.2-0.2,0.2-0.2,0.3c-0.2,0-0.3,0-0.3-0.2c-0.2,0-0.2,0-0.2,0.2
			c-0.2,0-0.2,0-0.3,0.2c0-0.2,0-0.2-0.2-0.2c0-0.2,0-0.2,0-0.2s0,0,0,0.2c0,0,0,0,0,0.2c-0.2-0.2-0.2-0.2-0.2-0.2
			c-0.2,0-0.2,0-0.2,0c-0.2,0-0.2,0-0.2,0h-0.2c0,0,0,0-0.2,0c0,0,0,0-0.2,0c0,0.2-0.5,0-0.5-0.2c-0.2,0.2-0.5,0.2-0.5,0
			c-0.2,0-0.2,0.2-0.2,0c-0.3,0-0.5,0-0.8,0c0,0,0,0-0.2-0.2c0,0-0.2,0-0.3,0s-0.5-0.2-0.8-0.2c-0.3-0.2-0.8-0.3-0.9-0.6
			c-0.2-0.2-0.2-0.2-0.3-0.2c-0.2-0.2-0.3-0.3-0.5-0.6s-0.5-0.6-0.6-0.9c-0.2-0.2-0.2-0.3-0.3-0.5c-0.5-1.2-0.8-2.4-0.8-3.8
			c0-1.5,0-3,0.2-4.7c0-1.8,0.2-3.7,0.5-5.5c0-0.2,0-0.3,0.2-0.6c-0.3,0.3-0.6,0.6-0.9,0.9c-0.2,0.3-0.3,0.5-0.5,0.8
			c-0.2,0.2-0.3,0.3-0.5,0.5c0,0.2-0.2,0.3-0.3,0.5s-0.3,0.5-0.5,0.6c-0.2,0-0.2,0.2-0.2,0.2c-0.2,0-0.2,0-0.2,0s0,0,0.2,0
			c-0.2,0-0.2,0.2-0.3,0.2c0,0,0,0,0,0.2V439c0,0.2,0,0.2,0,0.2c-0.2,0-0.2,0-0.2,0s0,0,0.2,0c-0.2,0.2-0.3,0.3-0.3,0.5
			c-0.2,0-0.2,0-0.2,0c-0.2,0.2-0.2,0.3-0.2,0.3c-0.2,0.3-0.5,0.5-0.6,0.8c0,0,0,0-0.2,0c-0.2,0.2-0.2,0.3-0.2,0.3
			c-0.2,0.2-0.3,0.3-0.5,0.5c0,0-0.2,0.2-0.2,0.3l-0.2,0.2c-0.2,0.2-0.2,0.2-0.2,0.3c-0.2,0.2-0.3,0.3-0.6,0.5
			c-0.2,0.3-0.3,0.6-0.6,0.9c0,0.2-0.2,0.2-0.2,0.3c-0.2,0-0.3,0.2-0.3,0.3c-0.3,0.3-0.6,0.8-0.9,1.1c-0.5,0.5-0.8,0.9-1.1,1.4
			c-0.3,0.3-0.5,0.6-0.8,0.8c-0.2,0.3-0.3,0.5-0.6,0.6c-0.2,0.3-0.5,0.6-0.6,0.9c-0.3,0.3-0.6,0.5-0.8,0.8c-0.3,0.3-0.5,0.5-0.8,0.8
			c0,0-0.2,0.2-0.3,0.3s-0.3,0.3-0.5,0.5c-0.3,0.3-0.6,0.6-0.9,0.9c-0.2,0.2-0.3,0.3-0.5,0.3c0,0,0,0.2-0.2,0.2c0,0,0,0.2-0.2,0.2
			c0,0-0.2,0.2-0.3,0.2c-0.3,0.3-0.6,0.6-0.9,0.9c-0.5,0.5-0.9,0.8-1.4,1.1c-0.6,0.5-1.1,0.9-1.7,1.4c-0.9,0.6-2,0.9-3.2,1.1
			c-0.5,0.2-1.1,0-1.7,0c-0.8,0-1.5,0-2.3,0c-0.3,0-0.6-0.2-0.9-0.2c-0.3-0.2-0.5-0.2-0.8-0.2h-0.2c-0.8-0.3-1.4-0.5-2-0.9
			c-1.5-0.8-2.7-2-3.8-3.2c-0.9-1.4-1.7-2.7-2.4-4.3c-0.6-1.1-1.1-2.3-1.2-3.5c-0.2-0.6-0.2-1.1-0.3-1.5c0-0.6,0-1.2,0-1.7
			c0-0.2,0-0.2,0-0.3c0.2-1.2,0.3-2.3,0.5-3.5c0.6-2.3,1.4-4.4,2.4-6.6c0.8-1.5,1.5-2.9,2.3-4.4c1.8-3.4,3.8-6.7,5.9-9.9
			c2-2.7,4-5.5,6.2-8.1c0.5-0.6,1.1-1.4,1.5-2c0,0,0.2,0,0.2-0.2c0-0.3,0.3-0.5,0.5-0.8c0.2-0.2,0.3-0.3,0.5-0.6l0.2-0.2
			c0.2-0.2,0.2-0.5,0.5-0.5c0-0.2,0.2-0.3,0.3-0.3v-0.2h0.2c0,0,0,0-0.2-0.2c0.2,0,0.2,0,0.3-0.2c0-0.2,0.2-0.2,0.2-0.2
			c0-0.2,0.2-0.2,0.2-0.3s0.2-0.2,0.3-0.2v-0.2c0,0,0,0,0-0.2c0,0.2,0,0.2,0,0.2c0-0.2,0-0.2,0.2-0.2h0.2c0-0.2-0.2-0.3,0-0.3h0.2
			v-0.2h0.2c0,0,0,0-0.2,0c0.2-0.3,0.3-0.2,0.3-0.2c0-0.2,0-0.3,0.2-0.3c0-0.2,0.2-0.2,0.2-0.3c0.2,0,0.2,0.2,0.2,0.2s0,0,0-0.2
			c0,0,0,0-0.2,0h0.2V402h0.2c0,0,0,0,0-0.2l0.2,0.2c0,0,0,0,0-0.2c0,0,0,0-0.2,0c0.2,0,0.2,0,0.3,0c-0.2-0.2-0.2-0.2-0.2-0.3
			c0.2,0.2,0.2,0.2,0.3,0.2h0.2c0,0,0,0,0-0.2c-0.2,0-0.2,0-0.3,0c0.2,0,0.2,0,0.3,0c0-0.2,0-0.2,0-0.3c0,0.2,0,0.2,0.2,0.2
			c-0.2-0.2,0.2-0.2,0-0.3c0,0,0.2-0.2,0.3-0.2c0,0,0,0,0.2,0v-0.2c-0.2-0.2,0.2-0.3,0.2-0.5c0.2,0,0.2,0,0.3,0c0,0.2,0,0.2,0,0.2
			s0,0,0-0.2c0,0,0,0,0.2,0h-0.2h0.2c-0.2-0.2-0.2-0.2-0.2-0.2c0.2,0,0.2,0,0.3,0l-0.2-0.2c0.2-0.2,0.2-0.3,0.3-0.3s0.2-0.2,0.3-0.2
			c0,0,0,0,0-0.2h0.2c0-0.2,0.3-0.3,0.5-0.5c0,0,0,0,0.2,0c0,0,0-0.2,0.2-0.2c0-0.2,0-0.2,0-0.2s0,0,0,0.2v-0.2l0.2-0.2
			c0.2,0,0.2,0,0.2,0s0,0,0.2,0c-0.2,0-0.2,0-0.2-0.2c0.2,0,0.3-0.2,0.3-0.3c0.2,0,0.2,0,0.2,0c0.2-0.2,0.3-0.3,0.5-0.5
			c0.2,0,0.2-0.2,0.2-0.2c0.5-0.5,0.9-0.8,1.4-1.1c0.2-0.2,0.3-0.2,0.5-0.5c0,0,0,0,0.2,0c0.2-0.2,0.3-0.2,0.5-0.3
			c0.3-0.2,0.8-0.5,1.2-0.8c0.5-0.2,0.8-0.3,1.2-0.5s0.9-0.3,1.5-0.6c1.7-0.6,3.4-1.1,5-1.5c0.6-0.2,1.1-0.3,1.7-0.3
			c0.6-0.2,1.4-0.3,2.1-0.3C382.8,391.5,383.1,391.5,383.4,391.5z M357.7,442.3h-0.2C357.7,442.3,357.7,442.3,357.7,442.3z
			 M358.3,441.7c-0.2,0-0.2,0-0.2,0H358.3z M358.2,441.7c0,0.2,0,0.2,0,0.2V441.7z M358.9,441.3c-0.2,0-0.2,0-0.2,0
			S358.8,441.3,358.9,441.3z M358.9,441.1c0,0.2,0,0.2,0,0.2V441.1z M359.1,441.1v0.2V441.1z M359.8,440.7c0-0.2,0-0.2,0-0.2
			S359.8,440.5,359.8,440.7z M360.4,439.8c-0.2,0-0.2,0-0.2,0S360.3,439.8,360.4,439.8z M360.4,439.9c-0.2,0-0.2,0-0.2,0v0.2
			C360.4,440.1,360.4,439.9,360.4,439.9z M360.3,440.2c0-0.2,0-0.2,0-0.2S360.3,440.1,360.3,440.2z M360.6,439.8h-0.2
			c0-0.2,0-0.2,0-0.2C360.6,439.8,360.6,439.8,360.6,439.8z M360.4,439.8c0,0.2,0,0.2,0,0.2V439.8z M360.6,404.6c0.2,0,0.2,0,0.2,0
			C360.6,404.6,360.6,404.6,360.6,404.6z M360.9,439.3c0,0,0,0,0.2,0C360.9,439.3,360.9,439.3,360.9,439.3z M361.4,403.3
			c0-0.2,0-0.2,0-0.2S361.4,403.2,361.4,403.3z M361.5,439v-0.2V439z M361.8,402.7v0.2V402.7z M362,438.4c0,0.2,0,0.2,0,0.2
			S362,438.5,362,438.4z M362.1,402.6c0,0,0,0,0-0.2C362.1,402.6,362.1,402.6,362.1,402.6z M362.7,437.9c-0.2,0.2-0.2,0.2-0.2,0.2
			C362.7,438.1,362.7,438.1,362.7,437.9z M362.9,402.1c-0.2,0-0.2,0-0.2,0S362.7,402.1,362.9,402.1z M363.3,401.5
			c-0.2,0-0.2,0-0.2,0H363.3h-0.2H363.3z M363.5,401.2h0.2C363.6,401.2,363.6,401.2,363.5,401.2z M363.6,400.8h0.2
			c0,0.2,0,0.2-0.2,0.2V400.8z M363.6,437.2c0,0,0,0,0-0.2C363.6,437.2,363.6,437.2,363.6,437.2z M363.9,436.9h-0.2
			C363.9,436.9,363.9,436.9,363.9,436.9z M363.9,451c0,0,0,0-0.2,0C363.8,451,363.8,451,363.9,451z M363.9,450.9c0.2,0,0.2,0,0.2,0
			c0.2-0.2,0.3-0.3,0.5-0.6c-0.2,0.2-0.3,0.3-0.5,0.6C364.1,450.9,364.1,450.9,363.9,450.9z M364.1,400.6v-0.2V400.6z M364.4,436.7
			c0,0,0,0-0.2,0C364.4,436.7,364.4,436.7,364.4,436.7z M364.4,436.4v-0.2C364.4,436.4,364.4,436.4,364.4,436.4z M364.9,399.7
			c0,0,0,0-0.2,0C364.9,399.7,364.9,399.7,364.9,399.7z M364.9,435.9c0,0.2,0,0.2,0,0.2S364.9,436.1,364.9,435.9c0.2,0,0.2,0,0.2,0
			S365,435.9,364.9,435.9z M365.6,435.3h-0.2H365.6z M367.8,433.4c0.2,0.2,0.2,0.2,0.2,0.2h-0.2V433.4z M368.5,432.7v0.2
			C368.5,432.9,368.5,432.9,368.5,432.7z M369.9,431.7v0.2V431.7z M371.4,442.6c0.2,0,0.2,0,0.2,0S371.6,442.6,371.4,442.6z
			 M373.1,440.2c0,0,0,0-0.2,0c0,0,0,0,0,0.2c0,0,0,0,0,0.2c-0.2,0-0.2,0-0.2,0c-0.2,0.2-0.2,0.2-0.2,0.2s0-0.2,0.2-0.2
			c0,0,0,0,0.2,0c0-0.2,0-0.2,0-0.2c0-0.2,0-0.2,0-0.2C373.1,440.2,373.1,440.2,373.1,440.2z M373.1,440.1c0,0,0,0,0,0.2
			C373.1,440.1,373.1,440.1,373.1,440.1z M374,439.6c0,0,0,0,0.2,0C374,439.6,374,439.6,374,439.6z M374.2,428c0,0,0,0,0-0.2
			C374.2,428,374.2,428,374.2,428z M375.7,426.5h-0.2C375.7,426.5,375.7,426.5,375.7,426.5z M376,393.1v0.2V393.1z M376,426.2
			c0.2,0,0.2,0.2,0.2,0.2S376.1,426.2,376,426.2z M376.1,425.9v0.2V425.9z M376.3,425.4v0.2V425.4z M376.7,425.4c0,0,0,0,0-0.2
			c-0.2,0.2-0.2,0.2-0.2,0.2C376.7,425.4,376.7,425.4,376.7,425.4z M376.9,425.1c-0.2,0-0.2,0-0.2,0S376.7,425.1,376.9,425.1z
			 M377.2,424.5v0.2V424.5z M377.5,424.5c0.2,0,0.2,0,0.2,0S377.7,424.5,377.5,424.5z M377.7,393.1c0.2,0,0.2,0,0.2,0V393
			C377.8,393,377.7,393,377.7,393.1z M377.7,424.2h0.2C377.8,424.2,377.8,424.2,377.7,424.2z M377.7,424.2c0.2,0,0.2,0,0.2,0
			C377.7,424.2,377.7,424.2,377.7,424.2z M378,393c0.2,0,0.2,0,0.2,0C378,393,378,393,378,393z M378.4,423.9v0.2
			C378.4,424.1,378.4,424.1,378.4,423.9h-0.2C378.4,423.9,378.4,423.9,378.4,423.9z M378.6,423.5h-0.2H378.6z M378.6,392.7
			c0,0.2,0,0.2,0,0.2S378.6,392.8,378.6,392.7z M378.7,423.3c0.2,0,0.2,0,0.2,0S378.9,423.3,378.7,423.3z M379.3,422.7h-0.2H379.3z
			 M380.7,421.6c0-0.2,0-0.2,0-0.2V421.6z M381,421c0,0,0,0,0-0.2V421z M381.5,420.3c0,0,0,0,0,0.2
			C381.5,420.3,381.5,420.3,381.5,420.3z M381.9,391.8c0,0,0,0,0,0.2C381.9,391.8,381.9,391.8,381.9,391.8z M382.2,391.9
			c0,0,0,0,0-0.2C382.2,391.8,382.2,391.8,382.2,391.9z M382.2,391.9c0,0.2,0,0.2,0,0.2s0,0,0.2,0L382.2,391.9z M382.7,391.9h-0.2
			H382.7z M382.5,419.6c0,0,0,0,0,0.2C382.5,419.6,382.5,419.6,382.5,419.6z M383.1,418.7c0,0,0,0,0-0.2c0,0.2,0,0.2,0.2,0.2
			C383.1,418.7,383.1,418.7,383.1,418.7z M383.6,391.8h-0.2H383.6z M383.8,418.1v0.2V418.1z M384.1,391.8c0-0.2,0-0.2,0-0.2
			C384.1,391.8,384.1,391.8,384.1,391.8z M384.1,453.2c0,0.2,0,0.2,0,0.2S384.1,453.3,384.1,453.2z M384.2,453.2c0,0,0,0,0.2,0
			C384.2,453.2,384.2,453.2,384.2,453.2z M384.5,392.8c0,0.2,0,0.2,0.2,0.2h-0.2C384.5,392.8,384.5,392.8,384.5,392.8h-0.2
			C384.5,392.8,384.5,392.8,384.5,392.8z M384.7,453.3l-0.2-0.2h0.2V453.3z M384.7,391.6v0.2V391.6z M385.1,392.8v0.2V392.8
			c-0.2,0-0.2,0-0.2,0.2C385,393,385,393,385.1,392.8z M385.4,393c0.2,0,0.2,0,0.2,0H385.4z M387,452.7c0,0,0,0,0,0.2
			C387,452.7,387,452.7,387,452.7z M387.4,408.8h-0.2H387.4z M387.4,452.5v-0.2V452.5z M388,452.4
			C387.9,452.4,387.9,452.4,388,452.4C387.9,452.4,387.9,452.4,388,452.4z M388.5,391.6c0,0,0,0,0,0.2
			C388.5,391.6,388.5,391.6,388.5,391.6z M388.8,393.4c0,0,0,0,0,0.2C388.8,393.4,388.8,393.4,388.8,393.4z M388.8,394v-0.2V394z
			 M388.9,393.6v-0.2V393.6z M389.1,393.6c0,0,0,0,0.2,0c-0.2,0-0.2-0.2-0.2-0.2V393.6z M389.2,408.1h-0.2H389.2z M389.2,393.6h0.2
			C389.2,393.6,389.2,393.6,389.2,393.6z M389.4,451.6h0.2C389.5,451.6,389.5,451.6,389.4,451.6z M389.7,393.7c0-0.2,0-0.2-0.2-0.2
			C389.7,393.7,389.7,393.7,389.7,393.7z M389.8,407.8c0.2,0,0.2,0,0.2,0S390,407.8,389.8,407.8z M390.9,393.9h-0.2
			C390.8,393.9,390.8,393.9,390.9,393.9z M390.8,450.9h0.2H390.8z M391.2,449.4c0,0,0,0-0.2,0C391.2,449.4,391.2,449.4,391.2,449.4z
			 M391.2,450.6h0.2H391.2z M391.5,449.2V449V449.2z M391.7,394.2c0-0.2,0-0.2,0-0.2C391.7,394.2,391.7,394.2,391.7,394.2z
			 M392,394.2c0,0,0,0,0,0.2C392,394.2,392,394.2,392,394.2z M392.3,414.2c0,0.2,0,0.2,0.2,0.2c0,0,0,0,0-0.2
			C392.3,414.2,392.3,414.2,392.3,414.2c-0.2,0-0.2,0-0.3,0C392.1,414.2,392.1,414.2,392.3,414.2z M392.4,449.7c0-0.2,0-0.2,0-0.2
			c0.2,0.2,0.2,0.2,0.2,0.2S392.6,449.7,392.4,449.7z M392.7,415.5c-0.2,0-0.2,0-0.2,0S392.6,415.5,392.7,415.5z M393,394.5
			c0,0,0,0-0.2,0c0.2,0,0.2,0.2,0.3,0.2C393,394.5,393,394.5,393,394.5z M393.5,394.7c0,0,0,0-0.2,0c0-0.2,0-0.2,0-0.2v0.2h-0.2h0.2
			H393.5z M393.4,449c0,0,0,0,0.2,0c-0.2,0-0.2,0.2-0.2,0.2V449z M393.4,449c0.2,0,0.2,0,0.2,0S393.5,449,393.4,449z M393.4,449.2
			c0,0,0,0,0,0.2C393.4,449.2,393.4,449.2,393.4,449.2z M393.8,394.7c0,0,0,0,0,0.2h-0.2c0,0,0,0,0-0.2c0,0,0,0,0,0.2h0.2
			C393.8,394.8,393.8,394.8,393.8,394.7c0.2,0,0.2,0,0.2,0C393.8,394.7,393.8,394.7,393.8,394.7z M394,412.8h-0.2H394z M394.6,395
			c-0.2,0-0.2,0-0.2,0S394.4,395,394.6,395z M394.7,395c0,0,0,0-0.2,0H394.7z M395,395.1v0.2V395.1z M395.8,394h0.2H395.8
			C395.8,393.9,395.8,393.9,395.8,394C395.8,393.9,395.8,393.9,395.8,394z M395.9,414.2h0.2H395.9z M396.2,414.2h-0.2
			C396.2,414.2,396.2,414.2,396.2,414.2z M396.5,394.2c0,0.2,0,0.2,0,0.2C396.5,394.2,396.5,394.2,396.5,394.2z M396.5,445.5v0.2
			V445.5z M396.9,413.7h-0.2H396.9z M396.9,445.4c0-0.2,0-0.2,0.2-0.2v0.2H396.9z M397.3,444.9c0,0,0,0,0.2,0
			C397.3,444.9,397.3,444.9,397.3,444.9z M397.5,444.6c0,0,0,0,0.2,0C397.5,444.6,397.5,444.6,397.5,444.6z M398.2,394.7
			c-0.2,0-0.2,0-0.2,0S398.1,394.7,398.2,394.7h-0.2H398.2z M398.2,444c0,0,0,0-0.2,0C398.2,444,398.2,444,398.2,444z M398.4,443.9
			v-0.2V443.9z M398.7,394.8v0.2C398.7,395,398.7,395,398.7,394.8z M398.7,442.8h0.2H398.7z M398.8,443.1c0,0,0,0,0.2,0
			C398.8,443.1,398.8,443.1,398.8,443.1z M399.1,395.1v0.2C399.1,395.3,399.1,395.3,399.1,395.1z M399.6,411.7c-0.2,0-0.2,0-0.2,0
			H399.6z M400.2,395.9c0,0,0,0-0.2,0H400.2z M400.1,418.6c0.2,0,0.2,0,0.2,0C400.1,418.6,400.1,418.6,400.1,418.6z M400.2,418.4
			c0,0,0,0,0,0.2C400.2,418.6,400.2,418.6,400.2,418.4z M400.8,440.1c0.2,0,0.2,0,0.2,0S401,440.1,400.8,440.1z M401.1,411.6
			l0.2,0.2c0.2,0,0.3-0.2,0.5-0.2c0,0,0,0,0-0.2C401.6,411.6,401.4,411.6,401.1,411.6z M401.1,439.8c0,0,0,0,0,0.2V439.8z
			 M401.3,439c0,0.2,0,0.2,0,0.2S401.3,439.1,401.3,439z M402,438.1h-0.2H402z M401.9,438.4h0.2H401.9z M402.9,398.3c0,0,0,0,0-0.2
			C402.9,398.3,402.9,398.3,402.9,398.3h0.2H402.9z M403.3,398.6v-0.2C403.3,398.6,403.3,398.6,403.3,398.6z M403.6,398.9
			c0,0,0,0,0,0.2C403.6,399.1,403.6,399.1,403.6,398.9z M403.9,410.4c0,0,0-0.2,0.2-0.2v0.2C403.9,410.4,403.9,410.4,403.9,410.4z
			 M404,399.5c0.2,0,0.2,0,0.2,0S404.2,399.5,404,399.5z M404,410c0,0.2,0,0.2,0,0.2S404,410.2,404,410z M404.3,409.4c0,0,0,0,0,0.2
			V409.4z M404.6,408.8v-0.2C404.6,408.8,404.6,408.8,404.6,408.8z M404.8,408.7c0,0,0,0,0-0.2C404.8,408.7,404.8,408.7,404.8,408.7
			z"/>
		<path fill="#FFFFFF" d="M436,394.7h0.2h0.2c0.5,0.2,0.9,0.2,1.5,0.2c0.5,0.2,0.9,0.3,1.4,0.3c0.5,0.2,1.1,0.2,1.5,0.3
			c0.2,0,0.3,0,0.3,0c0.6,0,1.1,0.2,1.5,0.3c0.2,0,0.3,0.2,0.5,0.2c1.1,0.5,2.3,1.1,3.4,1.7c0,0,0.2,0,0.3,0s0.3,0,0.3,0.2
			c0.2,0.2,0.2,0.2,0.2,0.2c0.6,0.3,1.2,0.9,1.7,1.2c0.2,0.2,0.3,0.3,0.5,0.5c0.5,0.5,0.8,0.9,1.2,1.4c0.6,0.8,1.1,1.5,1.5,2.3
			c0.3,0.5,0.5,0.8,0.6,1.2c0.3,0.6,0.6,1.2,0.8,2c0.2,0.2,0.2,0.5,0.3,0.8c0.2,0,0.2,0.2,0.2,0.2c0.2,0.2,0.2,0.3,0.2,0.5
			c0.2,0.2,0.3,0.5,0.3,0.8v0.2c0.2,0.2,0.2,0.2,0.2,0.3c-0.2,0-0.2,0-0.2,0c0.2,0.2,0.2,0.3,0.3,0.5c-0.2,0-0.2,0-0.2,0l0.2,0.2
			c0,0.2-0.2,0.2-0.2,0.2h0.2c0,0.2,0,0.2,0,0.2c0,0.2,0.2,0.3,0,0.5c0,0.2,0.2,0.2,0.2,0.2c0,0.2,0,0.2,0,0.2c0,0.2,0,0.2,0,0.2
			v0.2c0,0.2,0,0.2,0,0.3s0,0.3,0,0.5c0,0,0,0,0-0.2c0,0.2-0.2,0.2-0.2,0.2s0,0,0.2,0c0,0.2,0,0.3,0,0.5c-0.2,0,0,0.2,0,0.3
			l-0.2,0.2l0.2,0.2c-0.2,0-0.2,0-0.3,0c0.2,0.2,0.3,0.2,0.2,0.3c0,0.2,0,0.2,0,0.3v0.2h-0.2h-0.2c0,0.2,0,0.2,0,0.2
			c0-0.2,0-0.2,0-0.2h0.2c0,0.2,0,0.3-0.2,0.3c0.2,0,0.2,0,0.2,0v0.2c0,0-0.2,0-0.2,0.2v0.2c0.2,0.2,0,0.5-0.3,0.6h0.2
			c0,0.2,0,0.2-0.2,0.3c0,0,0,0.2,0,0.3c-0.2,0.2-0.3,0.5-0.3,0.8h-0.2c-0.2,0.3-0.2,0.5-0.3,0.6c0,0.2-0.2,0.2-0.2,0.3
			c0,0-0.2,0.2-0.2,0.3c-0.2,0.2-0.3,0.3-0.3,0.5c-0.3,0.5-0.6,0.8-0.9,1.1c0,0.2-0.2,0.2-0.2,0.3c-0.2,0-0.2,0-0.3,0.2
			c0,0.2-0.2,0.2-0.3,0.2h0.2v0.2c-0.2,0-0.2,0-0.3,0.2s-0.2,0.2-0.2,0.3c-0.2,0-0.2-0.2-0.2-0.2s0,0.2,0.2,0.2
			c-0.3,0.2-0.5,0.3-0.8,0.3c0,0.2,0,0.3,0,0.3c-0.2,0-0.2,0-0.2,0s0,0,0-0.2c0,0.2,0,0.2,0,0.2l-0.2,0.2c-0.2,0-0.2,0-0.2,0.2
			c-0.3,0.2-0.6,0.3-0.8,0.5c-1.4,1.1-2.7,1.8-4.3,2.3c-1.1,0.3-2,0.6-3,0.6c-0.2,0-0.3,0-0.5,0c-0.3,0-0.5,0.2-0.8,0.2h-0.2
			c-0.2,0-0.2,0-0.2,0.2c-0.3,0-0.6,0-0.8,0c-0.5,0-0.8,0-1.2,0c-0.3,0-0.6,0-0.8-0.3s0-0.8,0.2-0.8c0.2-0.2,0.2-0.2,0.3-0.3
			c0.3-0.5,0.5-0.9,0.8-1.4c0.8-1.1,1.4-2.1,2-3.4c0.6-1.1,1.2-2.3,1.7-3.5c0.3-0.8,0.5-1.7,0.3-2.6c0-0.5-0.2-0.6-0.6-0.5
			c-0.2,0-0.3,0-0.5,0.2c0,0,0,0-0.2,0c0.2,0,0.2,0,0.2-0.2c0,0.2,0,0.2,0,0.2H441c-0.2,0-0.3,0-0.5,0.2c-0.5,0-0.9,0.2-1.2,0.5
			c-0.6,0.2-1.1,0.3-1.5,0.5c-0.2,0.2-0.2,0.2-0.3,0.2c-0.2,0.3-0.5,0.5-0.6,0.6s-0.3,0.2-0.5,0.3c-1.1,0.8-2,1.4-2.9,2.1
			c-2.4,2-4.6,4.4-6.4,7c-1.5,2.1-2.7,4.4-4,6.7c-1.4,2.4-2.4,5.2-3.4,7.9v0.2c0.2,0.2,0.2,0.3,0.2,0.3c-0.2,0.6-0.3,1.1-0.3,1.5
			c-0.2,0.8-0.2,1.5-0.2,2.3c0,0.6,0,1.2,0.2,1.8c0,0.5,0.2,0.9,0.2,1.5c0.2,0.2,0.2,0.5,0.3,0.6c0.2,0.3,0.5,0.6,0.6,0.9
			c0,0.2,0.2,0.2,0.2,0.2c0.5,0,0.9,0.2,1.4,0.2c0.9,0.2,2-0.2,2.9-0.3c1.8-0.5,3.7-0.9,5.5-1.5c0.5-0.2,1.1-0.3,1.5-0.6
			c1.4-0.6,2.6-1.2,4-2c0.9-0.5,1.8-0.9,2.6-1.5c2-1.5,4-3,5.9-4.6c0.5-0.5,1.1-0.9,1.7-1.4c0.9-0.8,2-1.7,2.9-2.4
			c0.6-0.6,1.2-1.1,1.7-1.5c0.8-0.6,1.5-1.2,2.4-1.2c0.6-0.2,1.1,0,1.4,0.6c0.2,0.5,0.3,0.8,0.3,1.2c0,0,0,0,0,0.2
			c0,0.5-0.3,0.9-0.6,1.4c-0.2,0.3-0.3,0.6-0.5,0.8c-0.6,0.9-1.2,2-2,2.9c-2.6,3.7-5.3,7.3-8.7,10.5c-1.5,1.5-3.2,2.9-5,4.3
			c-2.3,1.7-4.7,3.2-7.5,4.1c-3.2,1.4-6.4,1.8-9.9,1.7c-0.2,0-0.5,0-0.6,0c-0.5-0.2-0.9-0.2-1.4-0.3c-0.3,0-0.8,0-1.1-0.2
			c-0.5,0-0.8-0.2-1.1-0.2c-0.2-0.2-0.3-0.2-0.5-0.3c0,0,0,0-0.2,0s-0.5-0.2-0.6-0.2c-0.5-0.2-0.8-0.3-1.2-0.5
			c-0.8-0.6-1.5-1.1-2.4-1.5c-2.3-1.7-4.3-3.5-5.9-5.8c-2.3-3-3.7-6.6-4-10.4c0-0.3,0-0.5,0-0.8c0-0.8,0-1.7,0-2.6v-0.2
			c0.2-1.5,0.3-3,0.6-4.6c0.6-2.6,1.5-5.2,2.6-7.6c0.3-0.8,0.6-1.4,0.9-2.1c0-0.2,0.2-0.3,0.2-0.5c0.2-0.2,0.2-0.5,0.3-0.5
			c0-0.2,0-0.3,0.3-0.5c0,0-0.2,0-0.2-0.2c0.2,0,0.2,0,0.2,0c0-0.2,0-0.2,0.2-0.3c0,0,0,0,0,0.2c0-0.2,0-0.2,0-0.2
			c0.2-0.2,0.2-0.3,0.2-0.5s0.2-0.3,0.3-0.3c0,0,0,0-0.2-0.2c0.2,0,0.2,0,0.2,0c0-0.2,0-0.2,0-0.3c0.2,0,0.2,0,0.2,0s0,0,0,0.2v-0.2
			c0,0,0,0,0.2-0.3v0.2v-0.2c0-0.2,0-0.3,0.3-0.3c0-0.2-0.2-0.2-0.2-0.2c0.2-0.2,0.2-0.3,0.3-0.5c0-0.2,0.2-0.2,0.2-0.3
			c0,0,0.2-0.2,0.3-0.2c-0.2,0-0.2,0-0.2-0.2v0.2c0.2-0.2,0.2-0.2,0.2-0.2c0.2,0,0.2,0,0.2-0.2h-0.2c0,0,0.2,0,0.2-0.2
			c0,0,0-0.2,0.2-0.2v0.2c0-0.2,0-0.2,0-0.2v-0.2c0,0,0,0,0-0.2c0.2,0,0.2-0.2,0.3-0.2c0,0,0,0,0,0.2c0-0.2,0-0.2,0.2-0.2
			c-0.2,0-0.2,0-0.2,0v-0.2c0.2,0,0.2,0,0.2,0s0,0-0.2,0c0.2-0.2,0.2-0.3,0.2-0.5c0.2,0,0.2,0,0.3,0c0-0.2,0-0.2,0.2-0.3
			c0,0,0-0.2-0.2-0.2c0.3-0.2,0.5-0.5,0.6-0.8c0,0,0.3-0.5,0.5-0.5c0-0.2,0.2-0.3,0.3-0.5c0-0.2,0-0.2,0.2-0.2c0,0,0,0,0-0.2
			c0.2-0.2,0.3-0.3,0.3-0.6c0.2-0.2,0.3-0.3,0.5-0.6c0.3-0.3,0.6-0.8,0.9-1.2c0.2-0.2,0.3-0.3,0.5-0.5c0-0.2,0.2-0.2,0.3-0.3
			c0.8-1.4,1.8-2.6,2.7-3.8c0.5-0.5,1.1-0.9,1.5-1.4c0.8-0.8,1.5-1.7,2.3-2.3c1.5-1.4,2.9-2.6,4.6-3.5c0.5-0.3,0.8-0.5,1.2-0.8
			c0.2-0.2,0.3-0.2,0.5-0.3c0,0,0-0.2,0.2-0.2c0.2-0.2,0.5-0.2,0.8-0.3c0.8-0.5,1.4-0.6,2-0.9c1.7-0.6,3.4-0.9,5-1.1
			c0.2,0,0.2,0,0.2,0c0.5,0,0.8,0,1.2,0H436z M409,415.8v-0.2V415.8z M409.3,415.2v-0.2V415.2z M419.2,402.9c0.2,0,0.2,0,0.2,0
			C419.2,402.9,419.2,402.9,419.2,402.9z M432.6,395.6h0.2H432.6z M438.4,395.7h0.2H438.4z M445.1,397.9c0.2,0,0.2,0,0.2,0
			S445.3,397.9,445.1,397.9z M448.9,434h0.2H448.9z M450.9,419.9c0,0,0,0-0.2,0H450.9z M451.5,432.3h-0.2c0,0,0,0,0,0.2
			C451.4,432.3,451.5,432.3,451.5,432.3z M451.7,418.9h-0.2C451.7,418.9,451.7,418.9,451.7,418.9z M452.7,431.1h-0.2H452.7z
			 M452.7,417.4c0,0,0,0,0,0.2C452.7,417.4,452.7,417.4,452.7,417.4z M452.7,417.5h0.2H452.7z M453.5,414.3v-0.2
			c0.2,0,0.2-0.2,0.2-0.2v0.2C453.5,414.2,453.5,414.3,453.5,414.3z M453.6,413.9h0.2H453.6z M453.6,415.7v0.2V415.7z M453.8,414.9
			c0,0,0,0,0,0.2C453.8,414.9,453.8,414.9,453.8,414.9z M454.1,409.7c0.2,0,0.2,0,0.2,0S454.2,409.7,454.1,409.7
			C454.1,409.7,454.1,409.9,454.1,409.7C454.1,409.9,454.1,409.7,454.1,409.7z M454.2,409c0,0.2,0,0.2,0,0.2
			C454.2,409,454.2,409,454.2,409z M454.4,412.8c-0.2,0-0.2,0-0.2,0C454.4,412.8,454.4,412.8,454.4,412.8z M454.2,414.2
			c0,0,0,0,0.2,0v0.2C454.2,414.3,454.2,414.2,454.2,414.2z M454.2,414.2c0.2,0,0.2,0,0.2,0H454.2z M454.6,410h-0.2
			c0.2,0.2,0.2,0.2,0.2,0.2S454.6,410.2,454.6,410z M454.4,410.8v0.2l0.2-0.2H454.4z M454.4,411.4c0,0.2,0,0.2,0,0.2
			C454.4,411.4,454.4,411.4,454.4,411.4z M454.6,411.6v-0.2V411.6z M454.7,412h-0.2C454.7,412,454.7,412,454.7,412z"/>
		<path fill="#FFFFFF" d="M491.5,391.5c0.2,0,0.3,0,0.5,0c0.5,0,0.9,0,1.4,0c0.2,0,0.2,0,0.2,0c0.5,0,1.1,0.2,1.5,0.2s0.8,0,1.2,0
			c0,0,0,0,0,0.2c0-0.2,0-0.2,0-0.2h0.2c0.2,0,0.2,0,0.3,0c0.3,0.2,0.8,0.2,1.1,0.2c0.5,0,0.8,0.2,1.1,0.2c0.5,0.2,0.8,0.2,1.2,0.2
			c0.3,0.2,0.6,0,0.9,0.2c0.3,0,0.6,0,0.8,0c0.3,0.2,0.6,0.3,0.8,0.5c0.2-0.2,0.5,0,0.6,0.2c0.6,0.2,1.2,0.3,1.8,0.5
			c0.2,0.2,0.3,0.2,0.5,0.3c0.3,0.2,0.6,0.3,0.9,0.5c0.5,0.2,0.9,0.5,1.4,0.8c0.8,0.5,1.4,0.9,2.1,1.4c0.5,0.3,0.8,0.6,1.2,1.1
			s0.8,0.9,1.1,1.4c0.2,0.3,0.3,0.6,0.5,0.9c0.3,0.5,0.5,0.9,0.5,1.4c0.2,0.5,0.3,0.8,0.3,1.2c0,0.2,0.2,0.5,0.2,0.6
			c0.2,1.1,0.2,2,0.2,3c0,0.8-0.2,1.5-0.5,2.3c0,0,0,0.2-0.2,0.3c-0.2,0-0.2,0.2-0.2,0.3c0,0,0,0-0.2-0.2c0.2,0.2,0.2,0.2,0.2,0.3
			c0,0-0.2,0-0.2,0.2s-0.2,0.3-0.2,0.3v0.2c-0.3,0,0,0-0.2,0c0,0.2-0.2,0.3-0.2,0.5l-0.2-0.2c0,0.2,0.2,0.2,0.2,0.2s0,0-0.2,0
			c0,0.2,0,0.2,0,0.3V410c0,0,0,0-0.2,0c0,0.2,0,0.2,0,0.3c0,0,0,0-0.2,0c0,0,0,0,0.2,0c-0.2,0.2-0.2,0.2-0.2,0.3c0,0,0,0.2-0.2,0.2
			v0.2c-0.3,0.3-0.5,0.5-0.6,0.8c-0.3,0.2-0.5,0.3-0.6,0.5s-0.2,0.2-0.2,0.2c-0.3,0-0.5,0-0.6,0.2c-0.2,0-0.3,0-0.3,0
			c-0.2,0-0.3,0-0.5,0c0,0-0.2,0,0,0c-0.5,0.2-0.9,0.2-1.2,0c0,0,0,0-0.2,0c0,0,0,0-0.2,0c0-0.2,0-0.2,0-0.3c0,0,0,0-0.2,0.2
			c0,0,0,0,0.2,0.2c-0.2,0-0.2,0-0.2,0v-0.2c0,0,0,0-0.2,0.2c0-0.2,0-0.2,0-0.2s0,0-0.2,0.2c0-0.2-0.2-0.2-0.3-0.2
			c0.2,0,0.2-0.2,0.2-0.2h-0.2c0,0.2-0.2,0.2-0.2,0.2l-0.2-0.2c0,0,0,0-0.2,0.2c0.2-0.2,0-0.2-0.2-0.2c0,0,0,0-0.2-0.2
			c0,0,0,0,0,0.2c0-0.2,0-0.2,0-0.2c-0.2,0-0.2,0-0.2,0h-0.2c-0.2-0.2-0.2-0.2-0.3-0.3c-0.2,0-0.3,0-0.5-0.2c0.2,0,0.2,0,0.2,0
			s0,0-0.2,0c-0.2-0.2-0.3-0.3-0.5-0.5c-0.3-0.3-0.5-0.6-0.6-0.9c-0.2-0.5-0.3-0.8,0-1.2v-0.2c-0.2-0.5-0.2-1.1-0.6-1.5
			c-0.2,0-0.2,0-0.3-0.2c-0.3,0-0.5-0.2-0.8-0.2c-0.2,0-0.3-0.2-0.5,0c-0.2-0.2-0.3,0-0.5-0.2v0.2c0,0,0,0,0-0.2
			C501,407,501,407,501,407s0,0-0.2-0.2c0,0.2,0,0.2,0,0.2h-0.2c-0.2,0.2-0.2,0.2-0.3,0.2h-0.2c-0.2,0-0.3,0-0.5,0l-0.2,0.2
			c-0.2,0-0.2,0-0.3,0c-0.2,0.2-0.2,0.2-0.3,0.2c-0.2,0.2-0.3,0.2-0.5,0.2c0,0-0.2,0.2-0.3,0c0,0,0,0,0,0.2v-0.2
			c0,0.2,0,0.2-0.2,0.2c0,0,0,0-0.2,0c0,0.2-0.2,0.2-0.3,0.2l-0.2,0.2v-0.2c-0.2,0.2-0.2,0.2-0.2,0.2c-0.2,0.2-0.2,0.2-0.3,0.2
			s-0.2,0.2-0.3,0.2h-0.2h-0.2h0.2c-0.2,0.2-0.3,0.2-0.3,0.2v-0.2c0,0,0,0.2,0.2,0.2c0-0.2-0.2-0.2-0.2-0.2v0.2c-0.2,0-0.2,0-0.2,0
			s-0.2,0.2,0,0.2H496c-0.2,0-0.2,0-0.2,0s0,0,0-0.2c0,0.2-0.2,0.3-0.2,0.5c0-0.2-0.2-0.2-0.2-0.2v0.2c-0.2,0-0.2,0-0.2,0l-0.2,0.2
			h-0.2h0.2c-0.2,0-0.2,0.2-0.3,0c0,0.2,0,0.2-0.2,0.2c-0.2,0.2-0.5,0.3-0.6,0.5c-0.3,0.5-0.8,0.8-1.2,1.1c-0.9,0.8-2,1.4-2.7,2.1
			c-2.6,2.1-4.9,4.3-7.2,6.6c-1.4,1.2-2.6,2.6-3.8,3.8c-2.4,2.6-4.7,5.2-6.9,8.1c-2.7,3.5-5.3,7.3-7.5,11.3
			c-0.2,0.2-0.2,0.3-0.2,0.3v0.2c0-0.2,0.2-0.2,0.2-0.3c0.2-0.2,0.5-0.5,0.8-0.6c0.2,0.2,0.2-0.2,0.3-0.2c0-0.2,0.2-0.2,0.2-0.2
			s0,0,0.2-0.2c-0.2,0-0.2,0-0.2,0h0.2c0-0.2,0-0.2,0.2-0.2c0,0,0.2-0.2,0.2-0.3c0,0.2,0,0.2,0,0.2s0,0,0-0.2h0.2c0,0,0,0,0-0.2
			c0.2,0.2,0.2,0,0.3,0s0.2,0,0.2,0H467c0-0.2,0-0.2,0.2-0.3c0,0.2,0,0.2,0,0.2s0.2,0,0.2,0.2c0-0.2,0-0.3-0.2-0.3
			c0.3-0.2,0.5-0.2,0.5-0.3h0.2c0,0,0,0,0-0.2c0,0,0,0,0.2,0v0.2c0-0.2,0-0.2,0-0.3h0.2v0.2v-0.2c0,0,0-0.2,0.2-0.3
			c0,0.2,0,0.2,0,0.2c0.2,0,0.2-0.2,0.3-0.2c0-0.2,0-0.2,0.2-0.2c0-0.3,0.2-0.5,0.3-0.5s0.2,0,0.2-0.2c0,0,0,0.2,0,0
			c0.2,0,0.2-0.2,0.2-0.2c0.2-0.2,0.3-0.2,0.5-0.3c0-0.2,0.2-0.2,0.2,0c0-0.2,0-0.2,0-0.2c0.2-0.2,0.2-0.2,0.2-0.2
			c0.2-0.2,0.3-0.3,0.5-0.5c0.2,0,0.2,0,0.2,0s0,0-0.2,0c0.2-0.2,0.3-0.2,0.5-0.3c0-0.2,0.2-0.3,0.3-0.3c0.2-0.2,0.3-0.3,0.5-0.5
			c0,0.2,0,0,0,0c0.2,0,0.3-0.2,0.3-0.2s0,0,0-0.2c0.2,0,0.3,0,0.3,0s0,0-0.2,0c0.2-0.2,0.2-0.2,0.2-0.2h0.2v-0.2c0,0,0.2-0.2,0.2,0
			c0-0.2,0-0.2,0.2-0.2c0.2-0.3,0.3-0.3,0.5-0.2c0-0.2-0.2-0.2-0.2-0.2c0-0.2,0.2-0.2,0.2-0.2l0.2-0.2v0.2c0-0.2,0-0.2,0-0.2
			c0.2,0,0.2,0,0.2-0.2h0.2c0,0,0,0,0-0.2h0.2h-0.2c0.2-0.2,0.2-0.2,0.3-0.2l0.2-0.2c0,0,0,0,0,0.2c0-0.2,0-0.2,0-0.2s0-0.2,0.2-0.2
			c0,0,0.2-0.2,0.2,0h0.2h-0.2c0-0.2,0-0.2,0-0.2l0.2-0.2c0.2,0.2,0,0,0.2,0c0,0,0,0,0.2,0h-0.2c0-0.2,0-0.2,0-0.2
			c0.2,0,0.2,0,0.2,0s0,0,0-0.2c0,0,0,0,0.2,0v0.2h0.2c0,0,0,0,0.2,0c0,0,0,0,0-0.2c-0.2,0-0.2,0-0.3,0c0,0,0,0,0-0.2
			c0.2,0.2,0.2,0.2,0.3,0.2c0-0.2,0-0.2,0-0.2s0,0,0-0.2v0.2c0,0,0,0,0.2,0c0-0.2,0-0.3,0.2-0.3c0.2-0.2,0.2,0,0.3,0
			c0-0.2,0.2-0.2,0-0.3c0-0.2,0.2-0.2,0.3-0.3c0.2,0,0.2,0,0.3,0c-0.2,0-0.2-0.2-0.2-0.2s0.2,0,0.2-0.2c0,0.2,0.2,0.2,0.2,0.2v-0.2
			c0.2-0.2,0.2-0.2,0.2-0.2l0.2-0.2c0.2,0,0.2-0.2,0.3-0.2h-0.2c0.2,0,0.2,0,0.2,0c0-0.2,0.2-0.2,0.2-0.3c0.2,0,0.2,0,0.3-0.2
			c0,0,0-0.2,0.2,0c0,0,0,0,0-0.2h0.2c0-0.2,0.2-0.3,0.2-0.3c0.2,0,0.2,0,0.2,0c0-0.2,0.2-0.2,0.3-0.3l0.2-0.2
			c0.2-0.2,0.3-0.3,0.5-0.6c0,0.2,0,0.2,0,0.2c0.2,0,0.2-0.2,0.2-0.2c0.3-0.3,0.6-0.6,0.9-0.9s0.6-0.6,1.1-0.8c0-0.2,0-0.2,0-0.2
			c0-0.2,0.2-0.2,0.3-0.3s0.5-0.5,0.6-0.6s0.2-0.2,0.2-0.2c0.2-0.2,0.3-0.2,0.3-0.3c0.2-0.2,0.3-0.3,0.5-0.5s0.2-0.2,0.3-0.3
			c0,0,0.2,0,0.2-0.2c0,0,0,0,0.2,0c0,0,0,0,0-0.2h0.2c0,0,0,0-0.2-0.2c0.2,0,0.2,0,0.3-0.2c0,0.2,0,0,0,0c0-0.2,0-0.2,0-0.2
			c0.2,0,0.2,0,0.2,0s0,0-0.2,0c0.2,0,0.2,0,0.2,0v-0.2c0.2,0,0.3,0,0.3-0.2c0.2,0,0.2,0,0.2,0s0,0,0.2,0c-0.2,0-0.2,0-0.2,0v-0.2
			c0.2-0.2,0.2-0.2,0.3-0.2c0-0.2,0-0.2,0-0.2h0.2c0,0,0,0,0,0.2c0-0.2,0-0.2,0-0.2h-0.2c0,0,0,0,0-0.2c0.2,0.2,0.2,0.2,0.3,0.2
			c-0.2-0.2-0.2-0.2-0.2-0.3c0.2,0.2,0.2,0.2,0.2,0.2c0-0.2,0-0.2,0.2-0.3v0.2c0-0.2,0.2-0.2,0.2-0.3c0.2,0,0.2,0,0.2-0.2
			c0,0,0.2-0.2,0.3-0.2c0-0.2,0-0.2,0.2-0.2c0-0.3,0.2-0.3,0.3-0.5l0.2-0.2c0-0.3,0.3-0.3,0.5-0.6c0.2,0,0.2-0.2,0.3-0.2
			c0.2-0.2,0.2-0.3,0.3-0.3c0-0.2,0.2-0.3,0.3-0.3c0,0,0-0.2,0.2-0.2c0,0,0,0,0.2-0.2c0,0,0,0-0.2,0c0.2,0,0.3,0,0.3,0
			s-0.2,0-0.2-0.2c0.2,0,0.2,0,0.3,0c-0.2,0-0.2,0-0.2-0.2h0.2c0,0,0,0,0-0.2c0,0,0,0,0.2,0c0,0,0,0,0,0.2c-0.2,0-0.2,0-0.2,0h0.2
			c-0.2-0.2-0.2-0.2-0.2-0.2c0.2,0,0.2-0.2,0.3-0.2h0.2c0-0.2-0.2-0.2,0-0.2c0-0.2,0,0,0-0.2c0,0,0.2,0,0.2-0.2c0,0.2,0,0.2,0,0.2
			c0-0.2,0.2-0.2,0.2-0.3c0,0.2,0,0.2,0,0.2s0,0,0.2,0c-0.2,0-0.2-0.2-0.2-0.2h0.2c0-0.2,0.2-0.2,0.2-0.2c0-0.2,0-0.2,0.2-0.3h0.2
			c0,0,0,0,0.2,0c-0.2,0-0.2,0-0.2,0c0-0.2,0.2-0.2,0.2-0.3h0.2c0-0.2,0.2-0.2,0.2-0.3c0,0.2,0,0.2,0,0.2c0.2,0,0.2,0,0.2,0
			s0-0.2-0.2-0.2c0.2,0,0.2,0,0.3,0c-0.2,0-0.2,0-0.2-0.2c0,0,0,0,0.2,0v0.2c0-0.2,0-0.2,0-0.3c0.2,0,0.2-0.2,0.3-0.2
			c0,0,0,0.2,0.2,0.2c0-0.2,0-0.2,0-0.2c-0.2-0.2,0-0.3,0.2-0.5l0.2,0.2c0-0.2,0-0.2,0-0.2v-0.2h0.2c0-0.2,0.2-0.3,0.2-0.3h0.2H492
			c0.2,0,0.2-0.2,0.3-0.2c0,0,0,0-0.2,0c0.2,0,0.2,0,0.2,0c0-0.3,0.3-0.3,0.3-0.5h0.2l0.2-0.2c0-0.2,0-0.3,0.3-0.3v-0.2
			c0-0.2,0.2-0.3,0.3-0.5c0,0,0.2-0.2,0.3-0.2c0-0.2,0.2-0.3,0.2-0.3c0.2-0.3,0.3-0.5,0.5-0.6s0.3-0.5,0.5-0.6s0.3-0.3,0.6-0.3
			c0,0,0-0.2,0.2-0.2c0.2-0.2,0.5-0.3,0.6-0.6c0.5-0.3,0.9-0.5,1.4-0.6c0.9-0.5,1.8-0.5,2.7-0.5s1.7,0.2,2.4,0.3
			c0.6,0.2,1.2,0.3,1.8,0.5c0.6,0.3,1.2,0.8,1.8,1.1c0.5,0.3,0.8,0.8,1.1,1.1c0.2,0.3,0.3,0.5,0.5,0.6c0.3,0.6,0.5,1.2,0.6,1.8
			c0,0.5,0,0.9,0,1.4c0,0.2,0,0.5,0,0.6c-0.2,0.2-0.2,0.5-0.3,0.6c0,0.2,0,0.3-0.2,0.5c-0.3,0.9-0.8,1.7-1.2,2.6
			c-0.3,0.5-0.5,1.1-0.8,1.5c-0.8,1.4-1.5,2.7-2.1,4.1c-0.3,0.5-0.6,1.1-0.9,1.7c-0.8,1.4-1.5,2.7-2.1,4.1c-0.3,0.8-0.6,1.5-0.8,2.3
			c0,0.2,0,0.2,0.2,0.3s0.8,0.3,0.9,0.3c0.2-0.2,0.3-0.2,0.5-0.2c0.3-0.2,0.6-0.3,0.9-0.3c0.2-0.2,0.5-0.2,0.8-0.3
			c0.8-0.3,1.4-0.8,2.1-1.2c0.5-0.3,0.8-0.6,1.2-0.9c0.2-0.2,0.2-0.3,0.3-0.5c0.3-0.2,0.5-0.3,0.8-0.5c0.5-0.6,1.1-1.1,1.7-1.7
			c0.2-0.2,0.3-0.3,0.5-0.3c0.2-0.2,0.2-0.2,0.3-0.5c0.6-0.3,0.9-0.6,1.5-0.6c0.3,0,0.5,0,0.8,0c0.2,0,0.2,0,0.2,0.2
			c0.3,0.6,0.3,1.2,0,1.8c-0.2,0.5-0.3,0.8-0.5,1.2s-0.5,0.9-0.8,1.4c0,0.2-0.2,0.2-0.2,0.3c0,0,0,0,0,0.2s-0.2,0.3-0.3,0.5
			c0,0.2,0,0.3-0.2,0.5c-0.2,0.3-0.2,0.5-0.3,0.6c-0.2,0.3-0.2,0.6-0.3,0.8c0,0,0,0-0.2,0v0.2l-0.2,0.2v0.2c0,0.2,0,0.2-0.2,0.2
			c0,0,0,0,0,0.2v-0.2c0,0.2,0,0.2,0,0.2c-0.2,0.2-0.2,0.3-0.3,0.5c0,0,0,0,0-0.2c0,0.2,0,0.2,0,0.2s0,0-0.2,0.2c0,0,0,0,0.2,0v-0.2
			v0.2c-0.2,0-0.2,0.2-0.3,0.3c0,0,0,0-0.2,0h0.2c-0.2,0.2-0.2,0.2-0.2,0.3c0,0,0,0-0.2,0c0,0,0,0,0,0.2h0.2c-0.2,0-0.2,0-0.2,0
			c-0.2,0.2,0,0.3-0.2,0.3c0,0.2,0,0.2-0.2,0.3c0,0,0,0,0-0.2c0,0.2,0,0.2,0,0.2c-0.2,0.2-0.2,0.3-0.3,0.5c0,0.2-0.3,0.3-0.3,0.6
			c0,0,0-0.2-0.2-0.2c0,0.2,0.2,0.2,0.2,0.2c-0.3,0.2-0.3,0.6-0.6,0.8c0,0.2-0.2,0.2-0.3,0.2c0.2,0,0.2,0,0.2,0.2
			c-0.2,0-0.2,0-0.2,0c0,0.2,0,0.2-0.2,0.2c0,0.2-0.2,0.3-0.2,0.3c-0.2,0-0.2,0-0.2,0.2c0,0,0,0-0.2,0.2l0.2-0.2h-0.2v0.2
			c0,0,0,0-0.2,0c0.2,0,0.2,0,0.2,0.2l-0.2,0.2c0,0.2-0.2,0.2-0.2,0.2c-0.2,0-0.2,0-0.2,0.2c0,0,0,0.2-0.2,0.2c0,0,0,0-0.2,0.2
			c0,0,0,0-0.2,0c0,0.2,0,0.2,0,0.3c0-0.2,0-0.2-0.2-0.2c0,0,0,0,0,0.2c-0.2,0,0,0,0,0.2l-0.2-0.2c0,0.2,0,0.2,0,0.3
			c0,0-0.2,0-0.3,0c0,0,0,0,0,0.2c0,0,0,0.2-0.2,0.3c0,0,0-0.2,0,0c-0.2,0-0.2,0-0.2,0.2c-0.2,0.2-0.3,0.3-0.5,0.5
			c0-0.2,0-0.2,0-0.2h0.2c0,0,0,0-0.2,0c0,0,0,0,0,0.2c0,0,0,0,0-0.2c0,0.3-0.3,0.5-0.3,0.5c-0.2,0-0.2,0.2-0.2,0.2
			c-0.2,0.2-0.3,0.3-0.5,0.5c0,0.2-0.2,0.3-0.3,0.5s-0.3,0.5-0.5,0.6c0,0,0,0-0.2,0c0,0.2,0,0.2-0.2,0.2c-0.2,0.3-0.3,0.5-0.6,0.6
			c0,0,0.2,0,0.2-0.2c-0.2,0.2-0.2,0.2-0.3,0.2c0,0.2-0.2,0.2-0.2,0.2v0.2l-0.2,0.2c-0.2-0.2-0.2,0-0.2,0v0.2c-0.2,0-0.2,0-0.2,0
			s-0.2,0-0.2,0.2h-0.2v-0.2c0,0,0,0-0.2,0c0.2,0.2,0.2,0.2,0.2,0.2s0,0,0,0.2c0-0.2-0.2-0.2-0.2-0.2c0,0.2,0,0.2-0.2,0.2
			c0,0.2,0,0.2-0.2,0.2s-0.2,0-0.2,0s0,0,0-0.2c0,0.2,0,0.2,0,0.2V450c0,0.2,0,0.2,0,0.2h0.2c0,0-0.2,0-0.2,0.2c0-0.2,0-0.2-0.2-0.2
			v0.2l-0.2,0.2v-0.2c-0.2,0.2-0.2,0.2-0.3,0.3c0,0,0,0-0.2,0c0,0.2,0,0.3-0.2,0.3h-0.2c-0.2,0.2-0.5,0.5-0.6,0.5s-0.2,0.2-0.3,0.2
			c0,0-0.2,0.2-0.3,0.2c-0.2,0.2-0.2,0.2-0.3,0.2c-0.2,0.2-0.6,0.3-0.8,0.3c0,0.2-0.2,0.2-0.3,0.2c0,0,0,0,0,0.2c0,0,0-0.2-0.2-0.2
			c0,0.2,0,0.2,0,0.2c-0.2,0-0.2,0-0.2,0l-0.2,0.2c-0.2,0-0.3,0.2-0.3,0.2c-0.2-0.2-0.2-0.2-0.2-0.2v0.2h-0.2c0,0.2,0,0.2-0.2,0
			c0,0.2-0.2,0.2-0.2,0.2h-0.2c0,0.2-0.2,0.2-0.3,0c0,0.2,0,0.2,0,0.2h-0.2h-0.2c0,0.2-0.2,0.2-0.3,0c0,0.2,0,0.2,0,0.2s0,0-0.2,0
			l0.2-0.2h-0.2v0.2c0.2,0,0.2,0,0.2,0c-0.2,0-0.2,0-0.2,0h-0.2c0,0,0-0.2-0.2-0.2c0,0,0,0.2,0.2,0.2c0,0,0,0-0.2,0.2
			c0-0.2,0-0.2,0-0.2c-0.2,0-0.2,0-0.2,0.2c0-0.2,0-0.2,0-0.3c-0.2,0.2-0.2,0.2-0.2,0.3c-0.2,0-0.3,0-0.3-0.2c-0.2,0-0.2,0-0.2,0.2
			c-0.2,0-0.2,0-0.3,0.2c0-0.2,0-0.2-0.2-0.2c0-0.2,0-0.2,0-0.2s0,0,0,0.2c0,0,0,0,0,0.2c-0.2-0.2-0.2-0.2-0.2-0.2
			c-0.2,0-0.2,0-0.2,0c-0.2,0-0.2,0-0.2,0h-0.2c0,0,0,0-0.2,0c0,0,0,0-0.2,0c0,0.2-0.5,0-0.5-0.2c-0.2,0.2-0.5,0.2-0.5,0
			c-0.2,0-0.2,0.2-0.2,0c-0.3,0-0.5,0-0.8,0c0,0,0,0-0.2-0.2c0,0-0.2,0-0.3,0s-0.5-0.2-0.8-0.2c-0.3-0.2-0.8-0.3-0.9-0.6
			c-0.2-0.2-0.2-0.2-0.3-0.2c-0.2-0.2-0.3-0.3-0.5-0.6s-0.5-0.6-0.6-0.9c-0.2-0.2-0.2-0.3-0.3-0.5c-0.5-1.2-0.8-2.4-0.8-3.8
			c0-1.5,0-3,0.2-4.7c0-1.8,0.2-3.7,0.5-5.5c0-0.2,0-0.3,0.2-0.6c-0.3,0.3-0.6,0.6-0.9,0.9c-0.2,0.3-0.3,0.5-0.5,0.8
			c-0.2,0.2-0.3,0.3-0.5,0.5c0,0.2-0.2,0.3-0.3,0.5s-0.3,0.5-0.5,0.6c-0.2,0-0.2,0.2-0.2,0.2c-0.2,0-0.2,0-0.2,0s0,0,0.2,0
			c-0.2,0-0.2,0.2-0.3,0.2c0,0,0,0,0,0.2V439c0,0.2,0,0.2,0,0.2c-0.2,0-0.2,0-0.2,0s0,0,0.2,0c-0.2,0.2-0.3,0.3-0.3,0.5
			c-0.2,0-0.2,0-0.2,0c-0.2,0.2-0.2,0.3-0.2,0.3c-0.2,0.3-0.5,0.5-0.6,0.8c0,0,0,0-0.2,0c-0.2,0.2-0.2,0.3-0.2,0.3
			c-0.2,0.2-0.3,0.3-0.5,0.5c0,0-0.2,0.2-0.2,0.3l-0.2,0.2c-0.2,0.2-0.2,0.2-0.2,0.3c-0.2,0.2-0.3,0.3-0.6,0.5
			c-0.2,0.3-0.3,0.6-0.6,0.9c0,0.2-0.2,0.2-0.2,0.3c-0.2,0-0.3,0.2-0.3,0.3c-0.3,0.3-0.6,0.8-0.9,1.1c-0.5,0.5-0.8,0.9-1.1,1.4
			c-0.3,0.3-0.5,0.6-0.8,0.8c-0.2,0.3-0.3,0.5-0.6,0.6c-0.2,0.3-0.5,0.6-0.6,0.9c-0.3,0.3-0.6,0.5-0.8,0.8c-0.3,0.3-0.5,0.5-0.8,0.8
			c0,0-0.2,0.2-0.3,0.3s-0.3,0.3-0.5,0.5c-0.3,0.3-0.6,0.6-0.9,0.9c-0.2,0.2-0.3,0.3-0.5,0.3c0,0,0,0.2-0.2,0.2c0,0,0,0.2-0.2,0.2
			c0,0-0.2,0.2-0.3,0.2c-0.3,0.3-0.6,0.6-0.9,0.9c-0.5,0.5-0.9,0.8-1.4,1.1c-0.6,0.5-1.1,0.9-1.7,1.4c-0.9,0.6-2,0.9-3.2,1.1
			c-0.5,0.2-1.1,0-1.7,0c-0.8,0-1.5,0-2.3,0c-0.3,0-0.6-0.2-0.9-0.2c-0.3-0.2-0.5-0.2-0.8-0.2h-0.2c-0.8-0.3-1.4-0.5-2-0.9
			c-1.5-0.8-2.7-2-3.8-3.2c-0.9-1.4-1.7-2.7-2.4-4.3c-0.6-1.1-1.1-2.3-1.2-3.5c-0.2-0.6-0.2-1.1-0.3-1.5c0-0.6,0-1.2,0-1.7
			c0-0.2,0-0.2,0-0.3c0.2-1.2,0.3-2.3,0.5-3.5c0.6-2.3,1.4-4.4,2.4-6.6c0.8-1.5,1.5-2.9,2.3-4.4c1.8-3.4,3.8-6.7,5.9-9.9
			c2-2.7,4-5.5,6.2-8.1c0.5-0.6,1.1-1.4,1.5-2c0,0,0.2,0,0.2-0.2c0-0.3,0.3-0.5,0.5-0.8c0.2-0.2,0.3-0.3,0.5-0.6l0.2-0.2
			c0.2-0.2,0.2-0.5,0.5-0.5c0-0.2,0.2-0.3,0.3-0.3v-0.2h0.2c0,0,0,0-0.2-0.2c0.2,0,0.2,0,0.3-0.2c0-0.2,0.2-0.2,0.2-0.2
			c0-0.2,0.2-0.2,0.2-0.3s0.2-0.2,0.3-0.2v-0.2c0,0,0,0,0-0.2c0,0.2,0,0.2,0,0.2c0-0.2,0-0.2,0.2-0.2h0.2c0-0.2-0.2-0.3,0-0.3h0.2
			v-0.2h0.2c0,0,0,0-0.2,0c0.2-0.3,0.3-0.2,0.3-0.2c0-0.2,0-0.3,0.2-0.3c0-0.2,0.2-0.2,0.2-0.3c0.2,0,0.2,0.2,0.2,0.2s0,0,0-0.2
			c0,0,0,0-0.2,0h0.2V402h0.2c0,0,0,0,0-0.2l0.2,0.2c0,0,0,0,0-0.2c0,0,0,0-0.2,0c0.2,0,0.2,0,0.3,0c-0.2-0.2-0.2-0.2-0.2-0.3
			c0.2,0.2,0.2,0.2,0.3,0.2h0.2c0,0,0,0,0-0.2c-0.2,0-0.2,0-0.3,0c0.2,0,0.2,0,0.3,0c0-0.2,0-0.2,0-0.3c0,0.2,0,0.2,0.2,0.2
			c-0.2-0.2,0.2-0.2,0-0.3c0,0,0.2-0.2,0.3-0.2c0,0,0,0,0.2,0v-0.2c-0.2-0.2,0.2-0.3,0.2-0.5c0.2,0,0.2,0,0.3,0c0,0.2,0,0.2,0,0.2
			s0,0,0-0.2c0,0,0,0,0.2,0h-0.2h0.2c-0.2-0.2-0.2-0.2-0.2-0.2c0.2,0,0.2,0,0.3,0l-0.2-0.2c0.2-0.2,0.2-0.3,0.3-0.3s0.2-0.2,0.3-0.2
			c0,0,0,0,0-0.2h0.2c0-0.2,0.3-0.3,0.5-0.5c0,0,0,0,0.2,0c0,0,0-0.2,0.2-0.2c0-0.2,0-0.2,0-0.2s0,0,0,0.2v-0.2l0.2-0.2
			c0.2,0,0.2,0,0.2,0s0,0,0.2,0c-0.2,0-0.2,0-0.2-0.2c0.2,0,0.3-0.2,0.3-0.3c0.2,0,0.2,0,0.2,0c0.2-0.2,0.3-0.3,0.5-0.5
			c0.2,0,0.2-0.2,0.2-0.2c0.5-0.5,0.9-0.8,1.4-1.1c0.2-0.2,0.3-0.2,0.5-0.5c0,0,0,0,0.2,0c0.2-0.2,0.3-0.2,0.5-0.3
			c0.3-0.2,0.8-0.5,1.2-0.8c0.5-0.2,0.8-0.3,1.2-0.5s0.9-0.3,1.5-0.6c1.7-0.6,3.4-1.1,5-1.5c0.6-0.2,1.1-0.3,1.7-0.3
			c0.6-0.2,1.4-0.3,2.1-0.3C490.9,391.5,491.2,391.5,491.5,391.5z M465.8,442.3h-0.2C465.8,442.3,465.8,442.3,465.8,442.3z
			 M466.4,441.7c-0.2,0-0.2,0-0.2,0H466.4z M466.3,441.7c0,0.2,0,0.2,0,0.2V441.7z M467,441.3c-0.2,0-0.2,0-0.2,0
			S466.9,441.3,467,441.3z M467,441.1c0,0.2,0,0.2,0,0.2V441.1z M467.2,441.1v0.2V441.1z M467.9,440.7c0-0.2,0-0.2,0-0.2
			S467.9,440.5,467.9,440.7z M468.5,439.8c-0.2,0-0.2,0-0.2,0S468.4,439.8,468.5,439.8z M468.5,439.9c-0.2,0-0.2,0-0.2,0v0.2
			C468.5,440.1,468.5,439.9,468.5,439.9z M468.4,440.2c0-0.2,0-0.2,0-0.2S468.4,440.1,468.4,440.2z M468.7,439.8h-0.2
			c0-0.2,0-0.2,0-0.2C468.7,439.8,468.7,439.8,468.7,439.8z M468.5,439.8c0,0.2,0,0.2,0,0.2V439.8z M468.7,404.6c0.2,0,0.2,0,0.2,0
			C468.7,404.6,468.7,404.6,468.7,404.6z M469,439.3c0,0,0,0,0.2,0C469,439.3,469,439.3,469,439.3z M469.5,403.3c0-0.2,0-0.2,0-0.2
			S469.5,403.2,469.5,403.3z M469.6,439v-0.2V439z M469.9,402.7v0.2V402.7z M470.1,438.4c0,0.2,0,0.2,0,0.2S470.1,438.5,470.1,438.4
			z M470.2,402.6c0,0,0,0,0-0.2C470.2,402.6,470.2,402.6,470.2,402.6z M470.8,437.9c-0.2,0.2-0.2,0.2-0.2,0.2
			C470.8,438.1,470.8,438.1,470.8,437.9z M471,402.1c-0.2,0-0.2,0-0.2,0S470.8,402.1,471,402.1z M471.4,401.5c-0.2,0-0.2,0-0.2,0
			H471.4h-0.2H471.4z M471.6,401.2h0.2C471.7,401.2,471.7,401.2,471.6,401.2z M471.7,400.8h0.2c0,0.2,0,0.2-0.2,0.2V400.8z
			 M471.7,437.2c0,0,0,0,0-0.2C471.7,437.2,471.7,437.2,471.7,437.2z M472,436.9h-0.2C472,436.9,472,436.9,472,436.9z M472,451
			c0,0,0,0-0.2,0C471.9,451,471.9,451,472,451z M472,450.9c0.2,0,0.2,0,0.2,0c0.2-0.2,0.3-0.3,0.5-0.6c-0.2,0.2-0.3,0.3-0.5,0.6
			C472.2,450.9,472.2,450.9,472,450.9z M472.2,400.6v-0.2V400.6z M472.5,436.7c0,0,0,0-0.2,0C472.5,436.7,472.5,436.7,472.5,436.7z
			 M472.5,436.4v-0.2C472.5,436.4,472.5,436.4,472.5,436.4z M473,399.7c0,0,0,0-0.2,0C473,399.7,473,399.7,473,399.7z M473,435.9
			c0,0.2,0,0.2,0,0.2S473,436.1,473,435.9c0.2,0,0.2,0,0.2,0S473.1,435.9,473,435.9z M473.7,435.3h-0.2H473.7z M475.9,433.4
			c0.2,0.2,0.2,0.2,0.2,0.2h-0.2V433.4z M476.6,432.7v0.2C476.6,432.9,476.6,432.9,476.6,432.7z M478,431.7v0.2V431.7z M479.5,442.6
			c0.2,0,0.2,0,0.2,0S479.7,442.6,479.5,442.6z M481.2,440.2c0,0,0,0-0.2,0c0,0,0,0,0,0.2c0,0,0,0,0,0.2c-0.2,0-0.2,0-0.2,0
			c-0.2,0.2-0.2,0.2-0.2,0.2s0-0.2,0.2-0.2c0,0,0,0,0.2,0c0-0.2,0-0.2,0-0.2c0-0.2,0-0.2,0-0.2C481.2,440.2,481.2,440.2,481.2,440.2
			z M481.2,440.1c0,0,0,0,0,0.2C481.2,440.1,481.2,440.1,481.2,440.1z M482.1,439.6c0,0,0,0,0.2,0
			C482.1,439.6,482.1,439.6,482.1,439.6z M482.3,428c0,0,0,0,0-0.2C482.3,428,482.3,428,482.3,428z M483.8,426.5h-0.2
			C483.8,426.5,483.8,426.5,483.8,426.5z M484.1,393.1v0.2V393.1z M484.1,426.2c0.2,0,0.2,0.2,0.2,0.2S484.2,426.2,484.1,426.2z
			 M484.2,425.9v0.2V425.9z M484.4,425.4v0.2V425.4z M484.8,425.4c0,0,0,0,0-0.2c-0.2,0.2-0.2,0.2-0.2,0.2
			C484.8,425.4,484.8,425.4,484.8,425.4z M485,425.1c-0.2,0-0.2,0-0.2,0S484.8,425.1,485,425.1z M485.3,424.5v0.2V424.5z
			 M485.6,424.5c0.2,0,0.2,0,0.2,0S485.8,424.5,485.6,424.5z M485.8,393.1c0.2,0,0.2,0,0.2,0V393C485.9,393,485.8,393,485.8,393.1z
			 M485.8,424.2h0.2C485.9,424.2,485.9,424.2,485.8,424.2z M485.8,424.2c0.2,0,0.2,0,0.2,0C485.8,424.2,485.8,424.2,485.8,424.2z
			 M486.1,393c0.2,0,0.2,0,0.2,0C486.1,393,486.1,393,486.1,393z M486.5,423.9v0.2C486.5,424.1,486.5,424.1,486.5,423.9h-0.2
			C486.5,423.9,486.5,423.9,486.5,423.9z M486.7,423.5h-0.2H486.7z M486.7,392.7c0,0.2,0,0.2,0,0.2S486.7,392.8,486.7,392.7z
			 M486.8,423.3c0.2,0,0.2,0,0.2,0S487,423.3,486.8,423.3z M487.4,422.7h-0.2H487.4z M488.8,421.6c0-0.2,0-0.2,0-0.2V421.6z
			 M489.1,421c0,0,0,0,0-0.2V421z M489.6,420.3c0,0,0,0,0,0.2C489.6,420.3,489.6,420.3,489.6,420.3z M490,391.8c0,0,0,0,0,0.2
			C490,391.8,490,391.8,490,391.8z M490.3,391.9c0,0,0,0,0-0.2C490.3,391.8,490.3,391.8,490.3,391.9z M490.3,391.9
			c0,0.2,0,0.2,0,0.2s0,0,0.2,0L490.3,391.9z M490.8,391.9h-0.2H490.8z M490.6,419.6c0,0,0,0,0,0.2
			C490.6,419.6,490.6,419.6,490.6,419.6z M491.2,418.7c0,0,0,0,0-0.2c0,0.2,0,0.2,0.2,0.2C491.2,418.7,491.2,418.7,491.2,418.7z
			 M491.7,391.8h-0.2H491.7z M491.9,418.1v0.2V418.1z M492.2,391.8c0-0.2,0-0.2,0-0.2C492.2,391.8,492.2,391.8,492.2,391.8z
			 M492.2,453.2c0,0.2,0,0.2,0,0.2S492.2,453.3,492.2,453.2z M492.3,453.2c0,0,0,0,0.2,0C492.3,453.2,492.3,453.2,492.3,453.2z
			 M492.6,392.8c0,0.2,0,0.2,0.2,0.2h-0.2C492.6,392.8,492.6,392.8,492.6,392.8h-0.2C492.6,392.8,492.6,392.8,492.6,392.8z
			 M492.8,453.3l-0.2-0.2h0.2V453.3z M492.8,391.6v0.2V391.6z M493.2,392.8v0.2V392.8c-0.2,0-0.2,0-0.2,0.2
			C493.1,393,493.1,393,493.2,392.8z M493.5,393c0.2,0,0.2,0,0.2,0H493.5z M495.1,452.7c0,0,0,0,0,0.2
			C495.1,452.7,495.1,452.7,495.1,452.7z M495.5,408.8h-0.2H495.5z M495.5,452.5v-0.2V452.5z M496.1,452.4
			C496,452.4,496,452.4,496.1,452.4C496,452.4,496,452.4,496.1,452.4z M496.6,391.6c0,0,0,0,0,0.2
			C496.6,391.6,496.6,391.6,496.6,391.6z M496.9,393.4c0,0,0,0,0,0.2C496.9,393.4,496.9,393.4,496.9,393.4z M496.9,394v-0.2V394z
			 M497,393.6v-0.2V393.6z M497.2,393.6c0,0,0,0,0.2,0c-0.2,0-0.2-0.2-0.2-0.2V393.6z M497.3,408.1h-0.2H497.3z M497.3,393.6h0.2
			C497.3,393.6,497.3,393.6,497.3,393.6z M497.5,451.6h0.2C497.6,451.6,497.6,451.6,497.5,451.6z M497.8,393.7c0-0.2,0-0.2-0.2-0.2
			C497.8,393.7,497.8,393.7,497.8,393.7z M497.9,407.8c0.2,0,0.2,0,0.2,0S498.1,407.8,497.9,407.8z M499,393.9h-0.2
			C498.9,393.9,498.9,393.9,499,393.9z M498.9,450.9h0.2H498.9z M499.3,449.4c0,0,0,0-0.2,0C499.3,449.4,499.3,449.4,499.3,449.4z
			 M499.3,450.6h0.2H499.3z M499.6,449.2V449V449.2z M499.8,394.2c0-0.2,0-0.2,0-0.2C499.8,394.2,499.8,394.2,499.8,394.2z
			 M500.1,394.2c0,0,0,0,0,0.2C500.1,394.2,500.1,394.2,500.1,394.2z M500.4,414.2c0,0.2,0,0.2,0.2,0.2c0,0,0,0,0-0.2
			C500.4,414.2,500.4,414.2,500.4,414.2c-0.2,0-0.2,0-0.3,0C500.2,414.2,500.2,414.2,500.4,414.2z M500.5,449.7c0-0.2,0-0.2,0-0.2
			c0.2,0.2,0.2,0.2,0.2,0.2S500.7,449.7,500.5,449.7z M500.8,415.5c-0.2,0-0.2,0-0.2,0S500.7,415.5,500.8,415.5z M501.1,394.5
			c0,0,0,0-0.2,0c0.2,0,0.2,0.2,0.3,0.2C501.1,394.5,501.1,394.5,501.1,394.5z M501.6,394.7c0,0,0,0-0.2,0c0-0.2,0-0.2,0-0.2v0.2
			h-0.2h0.2H501.6z M501.5,449c0,0,0,0,0.2,0c-0.2,0-0.2,0.2-0.2,0.2V449z M501.5,449c0.2,0,0.2,0,0.2,0S501.6,449,501.5,449z
			 M501.5,449.2c0,0,0,0,0,0.2C501.5,449.2,501.5,449.2,501.5,449.2z M501.9,394.7c0,0,0,0,0,0.2h-0.2c0,0,0,0,0-0.2c0,0,0,0,0,0.2
			h0.2C501.9,394.8,501.9,394.8,501.9,394.7c0.2,0,0.2,0,0.2,0C501.9,394.7,501.9,394.7,501.9,394.7z M502.1,412.8h-0.2H502.1z
			 M502.7,395c-0.2,0-0.2,0-0.2,0S502.5,395,502.7,395z M502.8,395c0,0,0,0-0.2,0H502.8z M503.1,395.1v0.2V395.1z M503.9,394h0.2
			H503.9C503.9,393.9,503.9,393.9,503.9,394C503.9,393.9,503.9,393.9,503.9,394z M504,414.2h0.2H504z M504.3,414.2h-0.2
			C504.3,414.2,504.3,414.2,504.3,414.2z M504.7,394.2c0,0.2,0,0.2,0,0.2C504.7,394.2,504.7,394.2,504.7,394.2z M504.7,445.5v0.2
			V445.5z M505,413.7h-0.2H505z M505,445.4c0-0.2,0-0.2,0.2-0.2v0.2H505z M505.4,444.9c0,0,0,0,0.2,0
			C505.4,444.9,505.4,444.9,505.4,444.9z M505.6,444.6c0,0,0,0,0.2,0C505.6,444.6,505.6,444.6,505.6,444.6z M506.3,394.7
			c-0.2,0-0.2,0-0.2,0S506.2,394.7,506.3,394.7h-0.2H506.3z M506.3,444c0,0,0,0-0.2,0C506.3,444,506.3,444,506.3,444z M506.5,443.9
			v-0.2V443.9z M506.8,394.8v0.2C506.8,395,506.8,395,506.8,394.8z M506.8,442.8h0.2H506.8z M506.9,443.1c0,0,0,0,0.2,0
			C506.9,443.1,506.9,443.1,506.9,443.1z M507.2,395.1v0.2C507.2,395.3,507.2,395.3,507.2,395.1z M507.7,411.7c-0.2,0-0.2,0-0.2,0
			H507.7z M508.3,395.9c0,0,0,0-0.2,0H508.3z M508.2,418.6c0.2,0,0.2,0,0.2,0C508.2,418.6,508.2,418.6,508.2,418.6z M508.3,418.4
			c0,0,0,0,0,0.2C508.3,418.6,508.3,418.6,508.3,418.4z M508.9,440.1c0.2,0,0.2,0,0.2,0S509.1,440.1,508.9,440.1z M509.2,411.6
			l0.2,0.2c0.2,0,0.3-0.2,0.5-0.2c0,0,0,0,0-0.2C509.7,411.6,509.5,411.6,509.2,411.6z M509.2,439.8c0,0,0,0,0,0.2V439.8z
			 M509.4,439c0,0.2,0,0.2,0,0.2S509.4,439.1,509.4,439z M510.1,438.1H510H510.1z M510,438.4h0.2H510z M511,398.3c0,0,0,0,0-0.2
			C511,398.3,511,398.3,511,398.3h0.2H511z M511.4,398.6v-0.2C511.4,398.6,511.4,398.6,511.4,398.6z M511.7,398.9c0,0,0,0,0,0.2
			C511.7,399.1,511.7,399.1,511.7,398.9z M512,410.4c0,0,0-0.2,0.2-0.2v0.2C512,410.4,512,410.4,512,410.4z M512.1,399.5
			c0.2,0,0.2,0,0.2,0S512.3,399.5,512.1,399.5z M512.1,410c0,0.2,0,0.2,0,0.2S512.1,410.2,512.1,410z M512.4,409.4c0,0,0,0,0,0.2
			V409.4z M512.7,408.8v-0.2C512.7,408.8,512.7,408.8,512.7,408.8z M512.9,408.7c0,0,0,0,0-0.2C512.9,408.7,512.9,408.7,512.9,408.7
			z"/>
		<path fill="#FFFFFF" d="M609.6,392.4c0,0.2,0,0.2,0,0.3s-0.2,0.5-0.2,0.6c0,0.5,0,0.8-0.2,1.1c-0.3,1.2-0.5,2.3-0.9,3.4
			c-0.3,0.9-0.8,1.7-1.1,2.6c-0.3,0.6-0.6,1.4-1.1,1.8c-0.3,0.6-0.5,1.2-0.8,1.8c0,0.5-0.2,0.8-0.5,1.1c-0.2,0.2-0.2,0.3-0.3,0.6
			s-0.5,0.8-0.8,1.2c-0.6,1.2-1.4,2.4-2.1,3.7c-0.5,0.8-0.9,1.4-1.4,2.1c-1.8,3.4-3.7,6.6-5.8,9.6c-3,4.6-6.4,8.8-9.8,12.9
			c-4.6,5.3-9.1,10.5-13.9,15.7c-0.8,0.9-1.7,1.7-2.4,2.6c-0.6,0.6-1.1,1.2-1.7,1.8c-1.4,1.4-2.7,2.4-4.3,3.2
			c-0.5,0.3-0.8,0.5-1.1,0.5c-0.8,0.2-1.5,0.3-2.3,0.5s-1.5,0.2-2.3-0.2c-0.3,0-0.6-0.2-0.8-0.2s-0.3,0.2-0.5,0h-0.2
			c-0.2,0-0.2-0.2-0.3-0.2c0,0.2-0.2,0.2-0.3,0.2c-0.3,0-0.5,0-0.8-0.2c-0.5,0-0.9-0.2-1.4-0.3s-0.8-0.3-1.2-0.5
			c-0.3-0.2-0.6-0.3-0.9-0.5s-0.5-0.3-0.8-0.5c-0.2-0.2-0.3-0.3-0.6-0.5c-0.2-0.2-0.3-0.2-0.5-0.3s-0.2-0.2-0.2-0.3
			c-0.2,0-0.2,0-0.2,0c-0.3-0.2-0.5-0.5-0.6-0.6c0-0.2-0.2-0.2-0.3-0.3c0.2,0,0.2-0.2,0.2-0.2s-0.2,0-0.2-0.2v0.2
			c0-0.2-0.2-0.2-0.2-0.3h-0.2c-0.2-0.2-0.2-0.2-0.3-0.3c0-0.2,0.2-0.2,0.2-0.2v-0.2v0.2c0,0-0.2,0-0.2,0.2c0-0.2,0-0.3-0.2-0.3
			s-0.3-0.2-0.2-0.3c0,0,0-0.2-0.2-0.2c-0.2-0.2-0.5-0.5-0.5-0.8c-0.2-0.2-0.2-0.3-0.3-0.5c-0.2-0.5-0.3-0.9-0.6-1.4
			c-0.2-0.2-0.2-0.5-0.3-0.8c-0.2-0.5-0.3-1.1-0.5-1.7c-0.2-0.3-0.2-0.8-0.2-1.1s0-0.6,0-0.9c0-0.2,0-0.5,0-0.6
			c-0.2-0.8-0.3-1.5-0.2-2.3c0-0.5,0-0.9,0-1.5c0.2,0,0.2-0.2,0.2-0.3c0,0,0,0,0-0.2s0-0.5,0-0.8c0.2-0.6,0.2-1.4,0.2-2
			c0,0,0,0,0-0.2s0-0.5,0-0.6s0-0.2,0-0.3c-0.2,0.2-0.2,0.2-0.3,0.3c-0.6,0.6-1.4,1.4-2,2c-0.5,0.5-1.1,1.1-1.5,1.5
			c-1.1,0.9-2,1.7-2.9,2.6c-0.2,0.2-0.3,0.3-0.5,0.5c-0.2,0.3-0.3,0.5-0.6,0.6c-0.2,0.2-0.3,0.3-0.5,0.5c-1.8,1.4-3.8,2.7-5.8,4
			c-2.7,1.7-5.5,3-8.5,4.3c-1.1,0.5-2.3,0.8-3.4,1.1c-1.1,0.2-2.1,0.3-3,0.2c-0.9,0-2-0.2-2.9-0.2c-0.5-0.2-0.9-0.3-1.2-0.8
			c-0.6-0.8-1.2-1.7-1.5-2.6c-0.5-0.9-0.9-1.8-0.9-2.9c-0.2-0.6-0.3-1.4-0.3-2c0-0.3-0.2-0.5-0.2-0.6c0-0.9,0-2,0-2.9
			c0-0.2,0-0.3,0.2-0.5c0-0.2,0-0.5,0-0.8c0.2-1.8,0.5-3.5,1.1-5.3s1.4-3.7,2-5.5c1.8-4.9,4-9.6,6.6-14.2c2.3-4.3,4.9-8.4,7.5-12.3
			c0-0.2,0.2-0.3,0.2-0.5c-0.2,0.2-0.2,0.2-0.3,0.2c-0.8,0.3-1.5,0.5-2.3,0.5c-0.9,0.2-1.8,0.3-2.6,0.3c-0.5,0.2-0.8,0-1.1-0.3
			c-0.2-0.2-0.2-0.2-0.3-0.3s-0.3-0.3-0.3-0.5c0.2-0.3,0.2-0.6,0.2-1.1c0.2-0.6,0.5-1.2,0.9-1.7c0.8-0.8,1.7-1.2,2.7-1.7
			c0.8-0.5,1.4-0.8,2.1-1.2s1.5-0.9,2.3-1.4c0.2,0,0.5-0.2,0.6-0.3c0.8-0.5,1.5-0.8,2.3-1.4c0.3-0.2,0.5-0.3,0.8-0.6
			c0.2,0,0.3,0,0.3-0.2c0.2,0,0.3,0,0.5,0c0.2,0.2,0.3,0.2,0.5,0.2c0.6-0.3,1.4-0.3,2-0.3h0.2c1.5,0.2,3,0.5,4.4,0.9
			c2.1,0.8,4.1,1.8,5.9,3c0.5,0.2,0.8,0.5,1.1,0.6c0.5,0.5,0.9,0.9,1.2,1.4c1.7,1.8,1.7,4.7,0.5,6.6c-0.8,0.9-1.5,2-2.1,3
			c-0.5,0.6-0.9,1.2-1.2,2c-0.2,0.2-0.2,0.3-0.2,0.3c-0.9,1.4-1.8,2.6-2.7,4c-2.1,2.9-4.1,5.6-6.2,8.5c-2.7,3.8-5.3,7.9-7.6,12
			c0,0.2,0,0.2,0,0.3c0.3-0.2,0.8-0.5,1.1-0.6c1.5-1.1,2.9-2.3,4.1-3.5c2.1-2,4.1-4,6.2-5.9c2.4-2.4,5-4.9,7.5-7.5
			c2.7-2.7,5.5-5.6,8.1-8.7c2.9-3.5,5.8-6.9,8.7-10.4c0.2-0.2,0.2-0.3,0.2-0.6c0.2-0.3,0.2-0.8,0.3-1.1s0.3-0.8,0.3-1.1
			s0.2-0.6,0.3-0.9c0-0.2,0.2-0.3,0.3-0.5l0.2-0.2c0.3-0.6,1.2-0.9,1.8-0.8c0.8,0.2,1.5,0.3,2.1,0.3c0.9,0.2,1.7,0.5,2.6,0.8
			c0.6,0.2,1.4,0.5,2,0.8c1.4,0.5,2.7,0.9,4.1,1.5c0.2,0,0.2,0,0.3,0.2c0.5,0,0.9,0.2,1.4,0.5c0.6,0.5,1.1,0.9,1.2,1.5
			c0.3,0.6,0.3,1.2,0.5,1.8s0,1.2-0.2,1.7c-0.2,0.8-0.5,1.5-0.8,2.3v0.2c0,0.3-0.2,0.6-0.2,0.8c-0.5,0.8-0.8,1.4-1.1,2.1
			c-0.6,0.8-1.1,1.5-1.5,2.3c-1.4,2.4-2.9,4.7-4.4,7c-2.7,4-5.2,8.1-7.3,12.3c-1.4,2.9-2.7,5.8-3.8,8.8c-0.6,1.7-1.1,3.5-1.4,5.3
			c0,0,0,0.2,0,0.3c0.3,0,0.6-0.2,0.9-0.3c0.8-0.5,1.5-0.9,2.1-1.4c1.5-1.2,2.7-2.6,4-4c7.5-9,14-18.4,19.8-28.6
			c1.5-3,3.2-5.9,4.6-9c0.2-0.3,0.3-0.6,0.3-0.9s0-0.5,0.3-0.6c-0.3-0.3,0-0.6,0-0.9c0-0.2,0-0.3,0.2-0.3c-0.2-0.5,0.2-0.9,0.2-1.4
			c0.2,0,0.2,0,0.3,0c0-0.2,0-0.2,0-0.2c-0.2,0-0.2,0-0.3,0c0-0.2,0.3-0.2,0.2-0.2c0-0.2,0-0.3,0-0.3c0-0.3,0-0.3,0.3-0.5h-0.2
			c0-0.2,0-0.5,0-0.6l0.2-0.2c0-0.2,0-0.2,0-0.3c0.2-0.2,0-0.3,0-0.3c0.2-0.3,0.3-0.6,0.3-0.9c0.2-0.3,0.3-0.5,0.3-0.9
			c0.2-0.3,0.3-0.8,0.3-1.1c0.2-0.2,0.2-0.2,0.2-0.3c0.2-0.3,0.2-0.5,0.3-0.8c0.2-0.6,0.3-1.1,0.8-1.7c0.2-0.2,0.5-0.3,0.6-0.5
			c0.5-0.6,1.2-0.9,2-1.2c0.3,0,0.6,0,1.1-0.2c0.5,0,1.1,0,1.7,0c0,0.2,0.2,0,0.2,0c0.2,0,0.2,0,0.2,0c0.2,0,0.2,0,0.2,0
			c0.8,0.2,1.4,0.3,2.1,0.3c0.9,0,2,0.3,2.9,0.5c1.1,0.2,2,0.8,3,1.1c0.5,0.3,0.8,0.8,0.8,1.2C609.4,392.2,609.6,392.4,609.6,392.4z
			 M547.9,453.8c0,0.2,0,0.3,0.3,0.3C548,453.9,548,453.9,547.9,453.8z M575.5,398.8c0.2,0.2,0.2,0.2,0.3,0.2
			C575.6,398.9,575.6,398.8,575.5,398.8z M576.1,399.1h0.2H576.1z"/>
	</g>
</g>
</svg>
