<?xml version="1.0" encoding="UTF-8" standalone="no"?>
<svg width="600px" height="119px" viewBox="0 0 600 119" version="1.1" xmlns="http://www.w3.org/2000/svg" xmlns:xlink="http://www.w3.org/1999/xlink">
    <!-- Generator: Sketch 39.1 (31720) - http://www.bohemiancoding.com/sketch -->
    <title>Group 2</title>
    <desc>Created with Sketch.</desc>
    <defs></defs>
    <g id="Chart" stroke="none" stroke-width="1" fill="none" fill-rule="evenodd">
        <g id="5" transform="translate(0.000000, -71.000000)" fill="#B8E986">
            <g id="Group-2" transform="translate(0.000000, 71.000000)">
                <rect id="Combined-Shape-Copy-49" x="539" y="33" width="6" height="86"></rect>
                <rect id="Combined-Shape-Copy-48" x="528" y="36" width="6" height="83"></rect>
                <rect id="Combined-Shape-Copy-47" x="517" y="42" width="6" height="77"></rect>
                <rect id="Combined-Shape-Copy-46" x="506" y="49" width="6" height="70"></rect>
                <rect id="Combined-Shape-Copy-53" x="583" y="24" width="6" height="95"></rect>
                <rect id="Combined-Shape-Copy-54" x="594" y="19" width="6" height="100"></rect>
                <rect id="Combined-Shape-Copy-52" x="572" y="26" width="6" height="93"></rect>
                <rect id="Combined-Shape-Copy-51" x="561" y="28" width="6" height="91"></rect>
                <rect id="Combined-Shape-Copy-50" x="550" y="30" width="6" height="89"></rect>
                <rect id="Combined-Shape-Copy-45" x="495" y="54" width="6" height="65"></rect>
                <rect id="Combined-Shape-Copy-44" x="484" y="49" width="6" height="70"></rect>
                <rect id="Combined-Shape-Copy-43" x="473" y="46" width="6" height="73"></rect>
                <rect id="Combined-Shape-Copy-42" x="462" y="42" width="6" height="77"></rect>
                <rect id="Combined-Shape-Copy-41" x="451" y="46" width="6" height="73"></rect>
                <rect id="Combined-Shape-Copy-40" x="440" y="54" width="6" height="65"></rect>
                <rect id="Combined-Shape-Copy-39" x="429" y="62" width="6" height="57"></rect>
                <rect id="Combined-Shape-Copy-38" x="418" y="62" width="6" height="57"></rect>
                <rect id="Combined-Shape-Copy-37" x="407" y="59" width="6" height="60"></rect>
                <rect id="Combined-Shape-Copy-36" x="396" y="54" width="6" height="65"></rect>
                <rect id="Combined-Shape-Copy-35" x="385" y="49" width="6" height="70"></rect>
                <rect id="Combined-Shape-Copy-34" x="374" y="42" width="6" height="77"></rect>
                <rect id="Combined-Shape-Copy-33" x="363" y="36" width="6" height="83"></rect>
                <rect id="Combined-Shape-Copy-32" x="352" y="30" width="6" height="89"></rect>
                <rect id="Combined-Shape-Copy-31" x="341" y="26" width="6" height="93"></rect>
                <rect id="Combined-Shape-Copy-30" x="330" y="22" width="6" height="97"></rect>
                <rect id="Combined-Shape-Copy-29" x="319" y="16.478824" width="6" height="102.521176"></rect>
                <rect id="Combined-Shape-Copy-28" x="308" y="12.9128701" width="6" height="106.08713"></rect>
                <rect id="Combined-Shape-Copy-27" x="297" y="9.34691612" width="6" height="109.653084"></rect>
                <rect id="Combined-Shape-Copy-26" x="286" y="5.78096217" width="6" height="113.219038"></rect>
                <rect id="Combined-Shape-Copy-25" x="275" y="3.10649671" width="6" height="115.893503"></rect>
                <rect id="Combined-Shape-Copy-24" x="264" y="1.32351974" width="6" height="117.67648"></rect>
                <rect id="Combined-Shape-Copy-23" x="253" y="3.10649671" width="6" height="115.893503"></rect>
                <rect id="Combined-Shape-Copy-22" x="242" y="4.88947368" width="6" height="114.110526"></rect>
                <rect id="Combined-Shape-Copy-21" x="231" y="9.34691612" width="6" height="109.653084"></rect>
                <rect id="Combined-Shape-Copy-20" x="220" y="12.9128701" width="6" height="106.08713"></rect>
                <rect id="Combined-Shape-Copy-19" x="209" y="16.478824" width="6" height="102.521176"></rect>
                <rect id="Combined-Shape-Copy-18" x="198" y="20.9362664" width="6" height="98.0637336"></rect>
                <rect id="Combined-Shape-Copy-17" x="187" y="27.1766859" width="6" height="91.8233141"></rect>
                <rect id="Combined-Shape-Copy-16" x="176" y="29.8511513" width="6" height="89.1488487"></rect>
                <rect id="Combined-Shape-Copy-15" x="165" y="32.5256168" width="6" height="86.4743832"></rect>
                <rect id="Combined-Shape-Copy-14" x="154" y="37.8745477" width="6" height="81.1254523"></rect>
                <rect id="Combined-Shape-Copy-13" x="143" y="36.0915707" width="6" height="82.9084293"></rect>
                <rect id="Combined-Shape-Copy-12" x="132" y="0.43203125" width="6" height="118.567969"></rect>
                <rect id="Combined-Shape-Copy-11" x="121" y="0.43203125" width="6" height="118.567969"></rect>
                <rect id="Combined-Shape-Copy-10" x="110" y="0.43203125" width="6" height="118.567969"></rect>
                <rect id="Combined-Shape-Copy-9" x="99" y="0.43203125" width="6" height="118.567969"></rect>
                <rect id="Combined-Shape-Copy-8" x="88" y="0.43203125" width="6" height="118.567969"></rect>
                <rect id="Combined-Shape-Copy-7" x="77" y="0.43203125" width="6" height="118.567969"></rect>
                <rect id="Combined-Shape-Copy-6" x="66" y="0.43203125" width="6" height="118.567969"></rect>
                <rect id="Combined-Shape-Copy-5" x="55" y="0.43203125" width="6" height="118.567969"></rect>
                <rect id="Combined-Shape-Copy-4" x="44" y="0.43203125" width="6" height="118.567969"></rect>
                <rect id="Combined-Shape-Copy-3" x="33" y="0.43203125" width="6" height="118.567969"></rect>
                <rect id="Combined-Shape-Copy-2" x="22" y="0.43203125" width="6" height="118.567969"></rect>
                <rect id="Combined-Shape-Copy" x="11" y="0.43203125" width="6" height="118.567969"></rect>
                <rect id="Combined-Shape" x="0" y="0.43203125" width="6" height="118.567969"></rect>
            </g>
        </g>
    </g>
</svg>