<?xml version="1.0" encoding="UTF-8" standalone="no"?>
<svg width="801px" height="580px" viewBox="0 0 801 580" version="1.1" xmlns="http://www.w3.org/2000/svg" xmlns:xlink="http://www.w3.org/1999/xlink">
    <!-- Generator: Sketch 39.1 (31720) - http://www.bohemiancoding.com/sketch -->
    <title>Group</title>
    <desc>Created with Sketch.</desc>
    <defs>
        <linearGradient x1="127.238182%" y1="44.5281804%" x2="0%" y2="44.5281804%" id="linearGradient-1">
            <stop stop-color="#FC75FF" offset="0%"></stop>
            <stop stop-color="#33AAF5" offset="100%"></stop>
        </linearGradient>
        <linearGradient x1="100%" y1="50%" x2="-17.3446808%" y2="50%" id="linearGradient-2">
            <stop stop-color="#FA3434" offset="0%"></stop>
            <stop stop-color="#F8B95E" offset="100%"></stop>
        </linearGradient>
        <rect id="path-3" x="0" y="0" width="60" height="140"></rect>
        <filter x="-50%" y="-50%" width="200%" height="200%" filterUnits="objectBoundingBox" id="filter-4">
            <feOffset dx="0" dy="2" in="SourceAlpha" result="shadowOffsetOuter1"></feOffset>
            <feGaussianBlur stdDeviation="10" in="shadowOffsetOuter1" result="shadowBlurOuter1"></feGaussianBlur>
            <feColorMatrix values="0 0 0 0 0   0 0 0 0 0   0 0 0 0 0  0 0 0 0.5 0" type="matrix" in="shadowBlurOuter1"></feColorMatrix>
        </filter>
        <rect id="path-5" x="0" y="180" width="60" height="248"></rect>
        <filter x="-50%" y="-50%" width="200%" height="200%" filterUnits="objectBoundingBox" id="filter-6">
            <feOffset dx="0" dy="2" in="SourceAlpha" result="shadowOffsetOuter1"></feOffset>
            <feGaussianBlur stdDeviation="10" in="shadowOffsetOuter1" result="shadowBlurOuter1"></feGaussianBlur>
            <feColorMatrix values="0 0 0 0 0   0 0 0 0 0   0 0 0 0 0  0 0 0 0.5 0" type="matrix" in="shadowBlurOuter1"></feColorMatrix>
        </filter>
    </defs>
    <g id="Chart" stroke="none" stroke-width="1" fill="none" fill-rule="evenodd">
        <g id="6" transform="translate(-9.000000, 0.000000)">
            <g id="Group" transform="translate(-51.000000, 0.000000)">
                <g id="barleft" transform="translate(118.000000, 50.000000)" fill="url(#linearGradient-1)">
                    <path d="M216,0 L313.415659,0 L313.415659,16 L216,16 L216,0 Z M-2.84217094e-14,36 L313.415659,36 L313.415659,52 L-2.84217094e-14,52 L-2.84217094e-14,36 Z M277.061745,72 L313.415659,72 L313.415659,88 L277.061745,88 L277.061745,72 Z M217.70783,108 L313.415659,108 L313.415659,124 L217.70783,124 L217.70783,108 Z M245,140 L313.415659,140 L313.415659,164 L245,164 L245,140 Z M207,180 L313.415659,180 L313.415659,196 L207,196 L207,180 Z M260.20783,216 L313.415659,216 L313.415659,232 L260.20783,232 L260.20783,216 Z M183,252 L313.415659,252 L313.415659,268 L183,268 L183,252 Z M277.061745,288 L313.415659,288 L313.415659,304 L277.061745,304 L277.061745,288 Z M225,324 L313.415659,324 L313.415659,340 L225,340 L225,324 Z M168,360 L313.415659,360 L313.415659,376 L168,376 L168,360 Z M295.238702,396 L313.415659,396 L313.415659,412 L295.238702,412 L295.238702,396 Z" id="Combined-Shape"></path>
                </g>
                <g id="barright" transform="translate(491.000000, 50.000000)" fill="url(#linearGradient-2)">
                    <path d="M0,0 L132,0 L132,16 L0,16 L0,0 Z M0,36 L89,36 L89,52 L0,52 L0,36 Z M0,72 L72.7078297,72 L72.7078297,88 L0,88 L0,72 Z M0,108 L115.5,108 L115.5,124 L0,124 L0,108 Z M0,140 L192,140 L192,164 L0,164 L0,140 Z M0,180 L89,180 L89,196 L0,196 L0,180 Z M0,216 L36.3539148,216 L36.3539148,232 L0,232 L0,216 Z M0,252 L72.7078297,252 L72.7078297,268 L0,268 L0,252 Z M0,288 L115.5,288 L115.5,304 L0,304 L0,288 Z M0,324 L333,324 L333,340 L0,340 L0,324 Z M0,360 L95.5,360 L95.5,376 L0,376 L0,360 Z M0,396 L57.75,396 L57.75,412 L0,412 L0,396 Z" id="Combined-Shape"></path>
                </g>
                <g id="displaybg" transform="translate(431.000000, 42.000000)">
                    <g id="Rectangle-151-Copy">
                        <use fill="black" fill-opacity="1" filter="url(#filter-4)" xlink:href="#path-3"></use>
                        <use fill="#27283B" fill-rule="evenodd" xlink:href="#path-3"></use>
                    </g>
                    <g id="Rectangle-151-Copy-2">
                        <use fill="black" fill-opacity="1" filter="url(#filter-6)" xlink:href="#path-5"></use>
                        <use fill="#27283B" fill-rule="evenodd" xlink:href="#path-5"></use>
                    </g>
                </g>
                <g id="digital" transform="translate(347.000000, 50.000000)" font-weight="normal">
                    <text id="0~2" opacity="0.3" font-family=".AppleSystemUIFont" font-size="14" fill="#FFFFFF">
                        <tspan x="105.132812" y="410">0~</tspan>
                        <tspan x="109.347168" y="427">2</tspan>
                    </text>
                    <text id="2~4" opacity="0.3" font-family=".AppleSystemUIFont" font-size="14" fill="#FFFFFF">
                        <tspan x="105.313965" y="374">2~</tspan>
                        <tspan x="109.070312" y="391">4</tspan>
                    </text>
                    <text id="4~6" opacity="0.3" font-family=".AppleSystemUIFont" font-size="14" fill="#FFFFFF">
                        <tspan x="105.037109" y="338">4~</tspan>
                        <tspan x="109.114746" y="355">6</tspan>
                    </text>
                    <text id="6~8" opacity="0.3" font-family=".AppleSystemUIFont" font-size="14" fill="#FFFFFF">
                        <tspan x="105.081543" y="302">6~</tspan>
                        <tspan x="109.104492" y="319">8</tspan>
                    </text>
                    <text id="8~10" opacity="0.3" font-family=".AppleSystemUIFont" font-size="14" fill="#FFFFFF">
                        <tspan x="105.071289" y="266">8~</tspan>
                        <tspan x="105.977051" y="283">10</tspan>
                    </text>
                    <text id="10~12" opacity="0.3" font-family=".AppleSystemUIFont" font-size="14" fill="#FFFFFF">
                        <tspan x="101.443848" y="230">10~</tspan>
                        <tspan x="105.658203" y="247">12</tspan>
                    </text>
                    <text id="12~14" opacity="0.3" font-family=".AppleSystemUIFont" font-size="14" fill="#FFFFFF">
                        <tspan x="101.625" y="194">12~</tspan>
                        <tspan x="105.381348" y="211">14</tspan>
                    </text>
                    <text id="14~16" font-family=".AppleSystemUIFont" font-size="14" fill="#FFFFFF">
                        <tspan x="101.348145" y="158">14~</tspan>
                        <tspan x="105.425781" y="175">16</tspan>
                    </text>
                    <text id="16~18" opacity="0.3" font-family=".AppleSystemUIFont" font-size="14" fill="#FFFFFF">
                        <tspan x="101.392578" y="122">16~</tspan>
                        <tspan x="105.415527" y="139">18</tspan>
                    </text>
                    <text id="18~20" opacity="0.3" font-family=".AppleSystemUIFont" font-size="14" fill="#FFFFFF">
                        <tspan x="101.382324" y="86">18~</tspan>
                        <tspan x="104.513184" y="103">20</tspan>
                    </text>
                    <text id="20~22" opacity="0.3" font-family=".AppleSystemUIFont" font-size="14" fill="#FFFFFF">
                        <tspan x="100.47998" y="50">20~</tspan>
                        <tspan x="104.694336" y="67">22</tspan>
                    </text>
                    <text id="22~24" opacity="0.3" font-family=".AppleSystemUIFont" font-size="14" fill="#FFFFFF">
                        <tspan x="101.661133" y="14">22~</tspan>
                        <tspan x="105.52002" y="31">24</tspan>
                    </text>
                    <text id="0" font-family=".SFNSDisplay-Regular, .SF NS Display" font-size="24" fill="#FFFFFF">
                        <tspan x="109" y="511">0</tspan>
                    </text>
                    <text id="-4.9" font-family=".SFNSDisplay-Regular, .SF NS Display" font-size="24" fill="#9A8FFA">
                        <tspan x="3.24414062" y="511">-4</tspan>
                        <tspan x="5.30078125" y="539">.9</tspan>
                    </text>
                    <text id="11.1" font-family=".SFNSDisplay-Regular, .SF NS Display" font-size="24" fill="#F96443">
                        <tspan x="323.28125" y="511">11.</tspan>
                        <tspan x="331.003906" y="539">1</tspan>
                    </text>
                </g>
                <g id="Graduation" transform="translate(0.000000, 503.000000)" fill="#D8D8D8" opacity="0.2">
                    <rect id="Rectangle-227-Copy-5" x="460" y="0" width="1" height="13"></rect>
                    <rect id="Rectangle-227-Copy-8" x="300" y="0" width="1" height="13"></rect>
                    <rect id="Rectangle-227-Copy-9" x="140" y="0" width="1" height="13"></rect>
                    <rect id="Rectangle-227-Copy-6" x="620" y="0" width="1" height="13"></rect>
                    <rect id="Rectangle-227-Copy-7" x="780" y="0" width="1" height="13"></rect>
                    <rect id="Rectangle-227-Copy-10" x="540" y="0" width="1" height="13"></rect>
                    <rect id="Rectangle-227-Copy-14" x="560" y="0" width="1" height="13"></rect>
                    <rect id="Rectangle-227-Copy-15" x="580" y="0" width="1" height="13"></rect>
                    <rect id="Rectangle-227-Copy-16" x="600" y="0" width="1" height="13"></rect>
                    <rect id="Rectangle-227-Copy-11" x="500" y="0" width="1" height="13"></rect>
                    <rect id="Rectangle-227-Copy-13" x="520" y="0" width="1" height="13"></rect>
                    <rect id="Rectangle-227-Copy-12" x="480" y="0" width="1" height="13"></rect>
                    <rect id="Rectangle-227-Copy-34" x="380" y="0" width="1" height="13"></rect>
                    <rect id="Rectangle-227-Copy-33" x="400" y="0" width="1" height="13"></rect>
                    <rect id="Rectangle-227-Copy-32" x="420" y="0" width="1" height="13"></rect>
                    <rect id="Rectangle-227-Copy-31" x="440" y="0" width="1" height="13"></rect>
                    <rect id="Rectangle-227-Copy-29" x="340" y="0" width="1" height="13"></rect>
                    <rect id="Rectangle-227-Copy-28" x="360" y="0" width="1" height="13"></rect>
                    <rect id="Rectangle-227-Copy-27" x="320" y="0" width="1" height="13"></rect>
                    <rect id="Rectangle-227-Copy-41" x="220" y="0" width="1" height="13"></rect>
                    <rect id="Rectangle-227-Copy-40" x="240" y="0" width="1" height="13"></rect>
                    <rect id="Rectangle-227-Copy-39" x="260" y="0" width="1" height="13"></rect>
                    <rect id="Rectangle-227-Copy-38" x="280" y="0" width="1" height="13"></rect>
                    <rect id="Rectangle-227-Copy-37" x="180" y="0" width="1" height="13"></rect>
                    <rect id="Rectangle-227-Copy-36" x="200" y="0" width="1" height="13"></rect>
                    <rect id="Rectangle-227-Copy-35" x="160" y="0" width="1" height="13"></rect>
                    <rect id="Rectangle-227-Copy-48" x="60" y="0" width="1" height="13"></rect>
                    <rect id="Rectangle-227-Copy-47" x="80" y="0" width="1" height="13"></rect>
                    <rect id="Rectangle-227-Copy-46" x="100" y="0" width="1" height="13"></rect>
                    <rect id="Rectangle-227-Copy-45" x="120" y="0" width="1" height="13"></rect>
                    <rect id="Rectangle-227-Copy-23" x="700" y="0" width="1" height="13"></rect>
                    <rect id="Rectangle-227-Copy-22" x="720" y="0" width="1" height="13"></rect>
                    <rect id="Rectangle-227-Copy-21" x="740" y="0" width="1" height="13"></rect>
                    <rect id="Rectangle-227-Copy-20" x="760" y="0" width="1" height="13"></rect>
                    <rect id="Rectangle-227-Copy-19" x="660" y="0" width="1" height="13"></rect>
                    <rect id="Rectangle-227-Copy-18" x="680" y="0" width="1" height="13"></rect>
                    <rect id="Rectangle-227-Copy-17" x="640" y="0" width="1" height="13"></rect>
                    <rect id="Rectangle-227-Copy-30" x="860" y="0" width="1" height="13"></rect>
                    <rect id="Rectangle-227-Copy-26" x="820" y="0" width="1" height="13"></rect>
                    <rect id="Rectangle-227-Copy-25" x="840" y="0" width="1" height="13"></rect>
                    <rect id="Rectangle-227-Copy-24" x="800" y="0" width="1" height="13"></rect>
                </g>
                <g id="displayline" transform="translate(681.500000, 0.000000)" stroke="#F96443" stroke-dasharray="3,5">
                    <path d="M1,0 L1,527" id="Path-40"></path>
                </g>
                <g id="displayline" transform="translate(362.500000, 0.000000)" stroke="#AE89FA" stroke-dasharray="3,5">
                    <path d="M1,0 L1,527" id="Path-40"></path>
                </g>
            </g>
        </g>
    </g>
</svg>